%FSLAX34Y34*%
%MOMM*%
%LNSOLDERMASK_BOTTOM*%
G71*
G01*
%ADD10R, 3.000X1.200*%
%ADD11C, 2.400*%
%ADD12C, 3.300*%
%ADD13C, 2.400*%
%ADD14C, 2.000*%
%ADD15R, 0.850X1.200*%
%ADD16C, 2.000*%
%ADD17C, 4.900*%
%ADD18C, 3.700*%
%ADD19R, 1.800X1.700*%
%ADD20R, 1.700X2.200*%
%ADD21R, 1.700X1.800*%
%ADD22R, 1.800X1.600*%
%ADD23R, 2.200X1.700*%
%ADD24C, 0.860*%
%ADD25C, 2.100*%
%ADD26C, 1.100*%
%ADD27R, 2.200X4.100*%
%LPD*%
X176000Y-287300D02*
G54D10*
D03*
X176000Y-300000D02*
G54D10*
D03*
X176000Y-312700D02*
G54D10*
D03*
X176000Y-325400D02*
G54D10*
D03*
X176000Y-338100D02*
G54D10*
D03*
X176000Y-350800D02*
G54D10*
D03*
X176000Y-363500D02*
G54D10*
D03*
X176000Y-376200D02*
G54D10*
D03*
X176000Y-388900D02*
G54D10*
D03*
X176000Y-401600D02*
G54D10*
D03*
X84000Y-401600D02*
G54D10*
D03*
X84000Y-388900D02*
G54D10*
D03*
X84000Y-376200D02*
G54D10*
D03*
X84000Y-363500D02*
G54D10*
D03*
X84000Y-350800D02*
G54D10*
D03*
X84000Y-338100D02*
G54D10*
D03*
X84000Y-325400D02*
G54D10*
D03*
X84000Y-312700D02*
G54D10*
D03*
X84000Y-300000D02*
G54D10*
D03*
X84000Y-287300D02*
G54D10*
D03*
X39119Y-164850D02*
G54D11*
D03*
X62019Y-164850D02*
G54D11*
D03*
X84919Y-164850D02*
G54D11*
D03*
X431033Y-397986D02*
G54D11*
D03*
G36*
X443033Y-320986D02*
X443033Y-344986D01*
X419033Y-344986D01*
X419033Y-320986D01*
X443033Y-320986D01*
G37*
G54D12*
X456402Y-260837D02*
X427402Y-260837D01*
G54D12*
X456402Y-165837D02*
X427402Y-165837D01*
X366902Y-213337D02*
G54D13*
D03*
X366902Y-238337D02*
G54D13*
D03*
X366902Y-188337D02*
G54D13*
D03*
X212453Y-348099D02*
G54D14*
D03*
X237853Y-348099D02*
G54D14*
D03*
X263254Y-348099D02*
G54D14*
D03*
G36*
X278653Y-358099D02*
X278653Y-338099D01*
X298653Y-338099D01*
X298653Y-358099D01*
X278653Y-358099D01*
G37*
X250033Y-216875D02*
G54D15*
D03*
X250033Y-243875D02*
G54D15*
D03*
X256533Y-216875D02*
G54D15*
D03*
X256533Y-243875D02*
G54D15*
D03*
X263033Y-216875D02*
G54D15*
D03*
X263033Y-243875D02*
G54D15*
D03*
X269533Y-216875D02*
G54D15*
D03*
X269533Y-243875D02*
G54D15*
D03*
X212441Y-379931D02*
G54D14*
D03*
X237842Y-379931D02*
G54D14*
D03*
X263242Y-379931D02*
G54D14*
D03*
G36*
X278642Y-389931D02*
X278642Y-369931D01*
X298642Y-369931D01*
X298642Y-389931D01*
X278642Y-389931D01*
G37*
X105033Y-221986D02*
G54D16*
D03*
X135989Y-221986D02*
G54D16*
D03*
X120907Y-201349D02*
G54D16*
D03*
X137080Y-157287D02*
G54D16*
D03*
G36*
X147079Y-167287D02*
X147079Y-187287D01*
X127079Y-187287D01*
X127079Y-167287D01*
X147079Y-167287D01*
G37*
X378122Y-46878D02*
G54D17*
D03*
X378122Y-106878D02*
G54D17*
D03*
X328322Y-81978D02*
G54D18*
D03*
G36*
X85698Y-272031D02*
X85698Y-252031D01*
X105698Y-252031D01*
X105698Y-272031D01*
X85698Y-272031D01*
G37*
X121098Y-262031D02*
G54D14*
D03*
X146499Y-262031D02*
G54D14*
D03*
X171898Y-262031D02*
G54D14*
D03*
X197298Y-262031D02*
G54D14*
D03*
X85491Y-193135D02*
G54D16*
D03*
X34691Y-193135D02*
G54D16*
D03*
X36522Y-136374D02*
G54D11*
D03*
X61922Y-136374D02*
G54D11*
D03*
X87322Y-136374D02*
G54D11*
D03*
X36852Y-95374D02*
G54D19*
D03*
X36852Y-114374D02*
G54D19*
D03*
X114964Y-141383D02*
G54D19*
D03*
X114964Y-160383D02*
G54D19*
D03*
X247826Y-50158D02*
G54D20*
D03*
X280326Y-50258D02*
G54D20*
D03*
X247826Y-76158D02*
G54D20*
D03*
X280326Y-76258D02*
G54D20*
D03*
X247826Y-102158D02*
G54D20*
D03*
X280326Y-102258D02*
G54D20*
D03*
X247826Y-128158D02*
G54D20*
D03*
X280326Y-128258D02*
G54D20*
D03*
X247826Y-154158D02*
G54D20*
D03*
X280326Y-154258D02*
G54D20*
D03*
G36*
X183326Y-39158D02*
X200326Y-39158D01*
X200326Y-61158D01*
X183326Y-61158D01*
X183326Y-39158D01*
G37*
X224326Y-50258D02*
G54D20*
D03*
G36*
X183326Y-65158D02*
X200326Y-65158D01*
X200326Y-87158D01*
X183326Y-87158D01*
X183326Y-65158D01*
G37*
X224326Y-76258D02*
G54D20*
D03*
X191826Y-102158D02*
G54D20*
D03*
X224326Y-102258D02*
G54D20*
D03*
X191826Y-128158D02*
G54D20*
D03*
X224326Y-128258D02*
G54D20*
D03*
G36*
X183326Y-143158D02*
X200326Y-143158D01*
X200326Y-165158D01*
X183326Y-165158D01*
X183326Y-143158D01*
G37*
X224326Y-154258D02*
G54D20*
D03*
X344033Y-141986D02*
G54D16*
D03*
G36*
X334033Y-151986D02*
X314033Y-151986D01*
X314033Y-131986D01*
X334033Y-131986D01*
X334033Y-151986D01*
G37*
X324800Y-116100D02*
G54D21*
D03*
X343800Y-116101D02*
G54D21*
D03*
X222033Y-179986D02*
G54D19*
D03*
X222033Y-198986D02*
G54D19*
D03*
X287033Y-179986D02*
G54D19*
D03*
X287033Y-198986D02*
G54D19*
D03*
X263632Y-198469D02*
G54D21*
D03*
X244632Y-198469D02*
G54D21*
D03*
X84033Y-213986D02*
G54D19*
D03*
X84033Y-232986D02*
G54D19*
D03*
X287033Y-219386D02*
G54D22*
D03*
X287033Y-239386D02*
G54D22*
D03*
X309033Y-219986D02*
G54D19*
D03*
X309033Y-238986D02*
G54D19*
D03*
G36*
X323196Y-445843D02*
X323196Y-465843D01*
X303196Y-465843D01*
X303196Y-445843D01*
X323196Y-445843D01*
G37*
X287796Y-455843D02*
G54D14*
D03*
X262396Y-455844D02*
G54D14*
D03*
X236996Y-455843D02*
G54D14*
D03*
X211596Y-455843D02*
G54D14*
D03*
X186196Y-455843D02*
G54D14*
D03*
X160796Y-455844D02*
G54D14*
D03*
X135396Y-455844D02*
G54D14*
D03*
X27033Y-232986D02*
G54D19*
D03*
X27032Y-213987D02*
G54D19*
D03*
X58223Y-300940D02*
G54D19*
D03*
X58223Y-281941D02*
G54D19*
D03*
X35223Y-300940D02*
G54D19*
D03*
X35223Y-281941D02*
G54D19*
D03*
X313006Y-277923D02*
G54D19*
D03*
X313006Y-296923D02*
G54D19*
D03*
X212453Y-411099D02*
G54D14*
D03*
X237853Y-411099D02*
G54D14*
D03*
X263254Y-411099D02*
G54D14*
D03*
G36*
X278653Y-421099D02*
X278653Y-401099D01*
X298653Y-401099D01*
X298653Y-421099D01*
X278653Y-421099D01*
G37*
X171289Y-218445D02*
G54D19*
D03*
X171289Y-199445D02*
G54D19*
D03*
X222033Y-219986D02*
G54D19*
D03*
X222033Y-238986D02*
G54D19*
D03*
X110033Y-455986D02*
G54D14*
D03*
X212454Y-295099D02*
G54D14*
D03*
X237853Y-295099D02*
G54D14*
D03*
X263253Y-295099D02*
G54D14*
D03*
X244907Y-319852D02*
G54D21*
D03*
X263906Y-319851D02*
G54D21*
D03*
X203907Y-319852D02*
G54D21*
D03*
X222907Y-319851D02*
G54D21*
D03*
X339964Y-203383D02*
G54D19*
D03*
X339964Y-222383D02*
G54D19*
D03*
X344226Y-421758D02*
G54D23*
D03*
X344126Y-454258D02*
G54D23*
D03*
X311942Y-368482D02*
G54D19*
D03*
X311942Y-349482D02*
G54D19*
D03*
G54D24*
X242033Y-257986D02*
X242033Y-263986D01*
G36*
X237733Y-263986D02*
X246333Y-263986D01*
X246333Y-268286D01*
X237733Y-268286D01*
X237733Y-263986D01*
G37*
G54D24*
X253033Y-257986D02*
X253033Y-263986D01*
G36*
X248733Y-263986D02*
X257333Y-263986D01*
X257333Y-268286D01*
X248733Y-268286D01*
X248733Y-263986D01*
G37*
X171552Y-160726D02*
G54D14*
D03*
X171552Y-236926D02*
G54D14*
D03*
X130122Y-44878D02*
G54D17*
D03*
X130122Y-104878D02*
G54D17*
D03*
X80322Y-79978D02*
G54D18*
D03*
X403625Y-132301D02*
G54D25*
D03*
X479825Y-132301D02*
G54D25*
D03*
X253033Y-257986D02*
G54D26*
D03*
X242033Y-257986D02*
G54D26*
D03*
X237126Y-102158D02*
G54D27*
D03*
X191826Y-102158D02*
G54D27*
D03*
M02*
