%FSLAX34Y34*%
%MOMM*%
%LNSILK_BOTTOM*%
G71*
G01*
%ADD10C, 0.200*%
%ADD11C, 0.222*%
%ADD12C, 0.206*%
%ADD13C, 0.500*%
%ADD14C, 0.260*%
%LPD*%
G54D10*
X100000Y-280300D02*
X160000Y-280300D01*
X160000Y-408600D01*
X100000Y-408600D01*
X100000Y-280300D01*
G54D11*
X121014Y-424247D02*
X121014Y-411803D01*
G54D11*
X111680Y-421914D02*
X112302Y-423470D01*
X113546Y-424247D01*
X114791Y-424247D01*
X116035Y-423470D01*
X116658Y-421914D01*
X116658Y-414136D01*
X116035Y-412581D01*
X114791Y-411803D01*
X113546Y-411803D01*
X112302Y-412581D01*
X111680Y-414136D01*
G54D11*
X102346Y-424247D02*
X107324Y-424247D01*
X107324Y-423470D01*
X106701Y-421914D01*
X102968Y-417247D01*
X102346Y-415692D01*
X102346Y-414136D01*
X102968Y-412581D01*
X104212Y-411803D01*
X105457Y-411803D01*
X106701Y-412581D01*
X107324Y-414136D01*
G54D10*
X246033Y-237475D02*
X274033Y-237475D01*
X274033Y-223475D01*
X246033Y-223475D01*
X246033Y-237475D01*
G36*
X246033Y-227475D02*
X250033Y-223475D01*
X246033Y-223475D01*
X246033Y-227475D01*
G37*
G54D10*
X246033Y-227475D02*
X250033Y-223475D01*
X246033Y-223475D01*
X246033Y-227475D01*
G54D12*
X278632Y-275140D02*
X278632Y-263584D01*
G54D12*
X269966Y-272973D02*
X270544Y-274418D01*
X271700Y-275140D01*
X272855Y-275140D01*
X274011Y-274418D01*
X274588Y-272973D01*
X274588Y-265751D01*
X274011Y-264307D01*
X272855Y-263584D01*
X271700Y-263584D01*
X270544Y-264307D01*
X269966Y-265751D01*
G54D12*
X265922Y-265751D02*
X265345Y-264307D01*
X264189Y-263584D01*
X263034Y-263584D01*
X261878Y-264307D01*
X261300Y-265751D01*
X261300Y-267196D01*
X261878Y-268640D01*
X263034Y-269362D01*
X261878Y-270084D01*
X261300Y-271529D01*
X261300Y-272973D01*
X261878Y-274418D01*
X263034Y-275140D01*
X264189Y-275140D01*
X265345Y-274418D01*
X265922Y-272973D01*
G54D10*
X46852Y-85874D02*
X26852Y-85874D01*
X26852Y-123874D01*
X46852Y-123874D01*
X46852Y-85874D01*
G54D12*
X59889Y-107471D02*
X58156Y-108915D01*
X57578Y-110360D01*
X57578Y-113249D01*
G54D12*
X62200Y-113249D02*
X62200Y-101693D01*
X59312Y-101693D01*
X58156Y-102415D01*
X57578Y-103860D01*
X57578Y-105304D01*
X58156Y-106749D01*
X59312Y-107471D01*
X62200Y-107471D01*
G54D12*
X53534Y-106026D02*
X50646Y-101693D01*
X50646Y-113249D01*
G54D10*
X124964Y-131883D02*
X104964Y-131883D01*
X104964Y-169883D01*
X124964Y-169883D01*
X124964Y-131883D01*
G54D12*
X116092Y-183446D02*
X116670Y-184891D01*
X117825Y-185613D01*
X118981Y-185613D01*
X120136Y-184891D01*
X120714Y-183446D01*
X120714Y-176224D01*
X120136Y-174780D01*
X118981Y-174057D01*
X117825Y-174057D01*
X116670Y-174780D01*
X116092Y-176224D01*
G54D12*
X107426Y-176224D02*
X108004Y-174780D01*
X109159Y-174057D01*
X110315Y-174057D01*
X111470Y-174780D01*
X112048Y-176224D01*
X112048Y-179835D01*
X112048Y-180557D01*
X110315Y-179113D01*
X109159Y-179113D01*
X108004Y-179835D01*
X107426Y-181280D01*
X107426Y-183446D01*
X108004Y-184891D01*
X109159Y-185613D01*
X110315Y-185613D01*
X111470Y-184891D01*
X112048Y-183446D01*
X112048Y-179835D01*
G54D12*
X280014Y-28480D02*
X278281Y-29924D01*
X277703Y-31369D01*
X277703Y-34257D01*
G54D12*
X282326Y-34257D02*
X282326Y-22702D01*
X279437Y-22702D01*
X278281Y-23424D01*
X277703Y-24869D01*
X277703Y-26313D01*
X278281Y-27757D01*
X279437Y-28480D01*
X282326Y-28480D01*
G54D12*
X270193Y-34257D02*
X270193Y-22702D01*
X273660Y-29924D01*
X273660Y-31369D01*
X269037Y-31369D01*
G54D12*
X264994Y-29202D02*
X260371Y-29202D01*
G54D12*
X254016Y-28480D02*
X252283Y-29924D01*
X251705Y-31369D01*
X251705Y-34257D01*
G54D12*
X256328Y-34257D02*
X256328Y-22702D01*
X253439Y-22702D01*
X252283Y-23424D01*
X251705Y-24869D01*
X251705Y-26313D01*
X252283Y-27757D01*
X253439Y-28480D01*
X256328Y-28480D01*
G54D12*
X247662Y-27035D02*
X244773Y-22702D01*
X244773Y-34257D01*
G54D12*
X237262Y-34257D02*
X237262Y-22702D01*
X240728Y-29924D01*
X240728Y-31369D01*
X236106Y-31369D01*
G54D10*
X315300Y-106100D02*
X315300Y-126100D01*
X353300Y-126100D01*
X353300Y-106100D01*
X315300Y-106100D01*
G54D12*
X372181Y-141869D02*
X372759Y-143313D01*
X373914Y-144035D01*
X375070Y-144035D01*
X376225Y-143313D01*
X376803Y-141869D01*
X376803Y-134646D01*
X376225Y-133202D01*
X375070Y-132480D01*
X373914Y-132480D01*
X372759Y-133202D01*
X372181Y-134646D01*
G54D12*
X368137Y-136813D02*
X365248Y-132480D01*
X365248Y-144035D01*
G54D12*
X356582Y-134646D02*
X356582Y-141869D01*
X357160Y-143313D01*
X358315Y-144035D01*
X359471Y-144035D01*
X360626Y-143313D01*
X361204Y-141869D01*
X361204Y-134646D01*
X360626Y-133202D01*
X359471Y-132480D01*
X358315Y-132480D01*
X357160Y-133202D01*
X356582Y-134646D01*
G54D10*
X232033Y-170486D02*
X212033Y-170486D01*
X212033Y-208486D01*
X232033Y-208486D01*
X232033Y-170486D01*
G54D12*
X206661Y-187607D02*
X204928Y-189051D01*
X204350Y-190496D01*
X204350Y-193385D01*
G54D12*
X208972Y-193385D02*
X208972Y-181829D01*
X206083Y-181829D01*
X204928Y-182551D01*
X204350Y-183996D01*
X204350Y-185440D01*
X204928Y-186885D01*
X206083Y-187607D01*
X208972Y-187607D01*
G54D12*
X200306Y-186162D02*
X197417Y-181829D01*
X197417Y-193385D01*
G54D12*
X188751Y-181829D02*
X193373Y-181829D01*
X193373Y-186885D01*
X192795Y-186885D01*
X191640Y-186162D01*
X190484Y-186162D01*
X189329Y-186885D01*
X188751Y-188329D01*
X188751Y-191218D01*
X189329Y-192662D01*
X190484Y-193385D01*
X191640Y-193385D01*
X192795Y-192662D01*
X193373Y-191218D01*
G54D10*
X297033Y-170486D02*
X277033Y-170486D01*
X277033Y-208486D01*
X297033Y-208486D01*
X297033Y-170486D01*
G54D12*
X317459Y-177012D02*
X315725Y-178456D01*
X315148Y-179900D01*
X315148Y-182789D01*
G54D12*
X319770Y-182789D02*
X319770Y-171234D01*
X316881Y-171234D01*
X315725Y-171956D01*
X315148Y-173400D01*
X315148Y-174845D01*
X315725Y-176289D01*
X316881Y-177012D01*
X319770Y-177012D01*
G54D12*
X311104Y-175567D02*
X308215Y-171234D01*
X308215Y-182789D01*
G54D12*
X299548Y-173400D02*
X300126Y-171956D01*
X301282Y-171234D01*
X302437Y-171234D01*
X303593Y-171956D01*
X304171Y-173400D01*
X304171Y-177012D01*
X304171Y-177734D01*
X302437Y-176289D01*
X301282Y-176289D01*
X300126Y-177012D01*
X299548Y-178456D01*
X299548Y-180623D01*
X300126Y-182067D01*
X301282Y-182789D01*
X302437Y-182789D01*
X303593Y-182067D01*
X304171Y-180623D01*
X304171Y-177012D01*
G54D10*
X273132Y-208469D02*
X273132Y-188469D01*
X235132Y-188469D01*
X235132Y-208469D01*
X273132Y-208469D01*
G54D12*
X254404Y-183964D02*
X254982Y-185409D01*
X256138Y-186131D01*
X257293Y-186131D01*
X258449Y-185409D01*
X259026Y-183964D01*
X259026Y-176742D01*
X258449Y-175298D01*
X257293Y-174576D01*
X256138Y-174576D01*
X254982Y-175298D01*
X254404Y-176742D01*
G54D12*
X247472Y-180353D02*
X248627Y-180353D01*
X249783Y-179631D01*
X250360Y-178187D01*
X250360Y-176742D01*
X249783Y-175298D01*
X248627Y-174576D01*
X247472Y-174576D01*
X246316Y-175298D01*
X245738Y-176742D01*
X245738Y-178187D01*
X246316Y-179631D01*
X247472Y-180353D01*
X246316Y-181076D01*
X245738Y-182520D01*
X245738Y-183964D01*
X246316Y-185409D01*
X247472Y-186131D01*
X248627Y-186131D01*
X249783Y-185409D01*
X250360Y-183964D01*
X250360Y-182520D01*
X249783Y-181076D01*
X248627Y-180353D01*
G54D10*
X94033Y-204486D02*
X74033Y-204486D01*
X74033Y-242486D01*
X94033Y-242486D01*
X94033Y-204486D01*
G54D12*
X65659Y-216708D02*
X66237Y-218152D01*
X67393Y-218874D01*
X68548Y-218874D01*
X69704Y-218152D01*
X70282Y-216708D01*
X70282Y-209485D01*
X69704Y-208041D01*
X68548Y-207319D01*
X67393Y-207319D01*
X66237Y-208041D01*
X65659Y-209485D01*
G54D12*
X58149Y-218874D02*
X58149Y-207319D01*
X61616Y-214541D01*
X61616Y-215985D01*
X56993Y-215985D01*
G36*
X160000Y-280300D02*
X159927Y-289166D01*
X151112Y-280467D01*
X160000Y-280300D01*
G37*
G54D10*
X160000Y-280300D02*
X159927Y-289166D01*
X151112Y-280467D01*
X160000Y-280300D01*
G54D10*
X297033Y-210486D02*
X277033Y-210486D01*
X277033Y-248486D01*
X297033Y-248486D01*
X297033Y-210486D01*
G54D12*
X325850Y-200358D02*
X324117Y-201802D01*
X323539Y-203246D01*
X323539Y-206135D01*
G54D12*
X328161Y-206135D02*
X328161Y-194580D01*
X325272Y-194580D01*
X324117Y-195302D01*
X323539Y-196746D01*
X323539Y-198191D01*
X324117Y-199635D01*
X325272Y-200358D01*
X328161Y-200358D01*
G54D12*
X319495Y-198913D02*
X316606Y-194580D01*
X316606Y-206135D01*
G54D12*
X309673Y-200358D02*
X310829Y-200358D01*
X311984Y-199635D01*
X312562Y-198191D01*
X312562Y-196746D01*
X311984Y-195302D01*
X310829Y-194580D01*
X309673Y-194580D01*
X308518Y-195302D01*
X307940Y-196746D01*
X307940Y-198191D01*
X308518Y-199635D01*
X309673Y-200358D01*
X308518Y-201080D01*
X307940Y-202524D01*
X307940Y-203969D01*
X308518Y-205413D01*
X309673Y-206135D01*
X310829Y-206135D01*
X311984Y-205413D01*
X312562Y-203969D01*
X312562Y-202524D01*
X311984Y-201080D01*
X310829Y-200358D01*
G54D10*
X319033Y-210486D02*
X299033Y-210486D01*
X299033Y-248486D01*
X319033Y-248486D01*
X319033Y-210486D01*
G54D12*
X340261Y-240081D02*
X338528Y-241525D01*
X337950Y-242970D01*
X337950Y-245859D01*
G54D12*
X342572Y-245859D02*
X342572Y-234303D01*
X339684Y-234303D01*
X338528Y-235025D01*
X337950Y-236470D01*
X337950Y-237914D01*
X338528Y-239359D01*
X339684Y-240081D01*
X342572Y-240081D01*
G54D12*
X333906Y-238636D02*
X331018Y-234303D01*
X331018Y-245859D01*
G54D12*
X326973Y-234303D02*
X322351Y-234303D01*
X322929Y-235748D01*
X324085Y-237914D01*
X325240Y-240803D01*
X325818Y-242970D01*
X325818Y-245859D01*
G54D10*
X17032Y-242487D02*
X37032Y-242487D01*
X37032Y-204487D01*
X17032Y-204487D01*
X17032Y-242487D01*
G54D12*
X30704Y-251414D02*
X28971Y-252859D01*
X28393Y-254303D01*
X28393Y-257192D01*
G54D12*
X33015Y-257192D02*
X33015Y-245637D01*
X30126Y-245637D01*
X28971Y-246359D01*
X28393Y-247803D01*
X28393Y-249248D01*
X28971Y-250692D01*
X30126Y-251414D01*
X33015Y-251414D01*
G54D12*
X24349Y-247803D02*
X23772Y-246359D01*
X22616Y-245637D01*
X21460Y-245637D01*
X20305Y-246359D01*
X19727Y-247803D01*
X19727Y-249248D01*
X20305Y-250692D01*
X21460Y-251414D01*
X20305Y-252137D01*
X19727Y-253581D01*
X19727Y-255026D01*
X20305Y-256470D01*
X21460Y-257192D01*
X22616Y-257192D01*
X23772Y-256470D01*
X24349Y-255026D01*
G54D10*
X48223Y-310441D02*
X68223Y-310441D01*
X68223Y-272441D01*
X48223Y-272441D01*
X48223Y-310441D01*
G54D12*
X55727Y-329713D02*
X54283Y-330290D01*
X53560Y-331446D01*
X53560Y-332602D01*
X54283Y-333757D01*
X55727Y-334335D01*
X62949Y-334335D01*
X64394Y-333757D01*
X65116Y-332602D01*
X65116Y-331446D01*
X64394Y-330290D01*
X62949Y-329713D01*
G54D12*
X60783Y-325669D02*
X65116Y-322780D01*
X53560Y-322780D01*
G54D12*
X60783Y-318736D02*
X65116Y-315847D01*
X53560Y-315847D01*
G54D10*
X25223Y-310441D02*
X45223Y-310441D01*
X45223Y-272441D01*
X25223Y-272441D01*
X25223Y-310441D01*
G54D12*
X12677Y-288438D02*
X11233Y-289016D01*
X10510Y-290171D01*
X10510Y-291327D01*
X11233Y-292482D01*
X12677Y-293060D01*
X19899Y-293060D01*
X21344Y-292482D01*
X22066Y-291327D01*
X22066Y-290171D01*
X21344Y-289016D01*
X19899Y-288438D01*
G54D12*
X17733Y-284394D02*
X22066Y-281505D01*
X10510Y-281505D01*
G54D12*
X10510Y-272839D02*
X10510Y-277461D01*
X11233Y-277461D01*
X12677Y-276883D01*
X17010Y-273416D01*
X18455Y-272839D01*
X19899Y-272839D01*
X21344Y-273416D01*
X22066Y-274572D01*
X22066Y-275728D01*
X21344Y-276883D01*
X19899Y-277461D01*
G54D10*
X323006Y-268423D02*
X303006Y-268423D01*
X303006Y-306423D01*
X323006Y-306423D01*
X323006Y-268423D01*
G54D12*
X321432Y-259449D02*
X319699Y-260893D01*
X319121Y-262338D01*
X319121Y-265226D01*
G54D12*
X323743Y-265226D02*
X323743Y-253671D01*
X320855Y-253671D01*
X319699Y-254393D01*
X319121Y-255838D01*
X319121Y-257282D01*
X319699Y-258726D01*
X320855Y-259449D01*
X323743Y-259449D01*
G54D12*
X310455Y-265226D02*
X315077Y-265226D01*
X315077Y-264504D01*
X314500Y-263060D01*
X311033Y-258726D01*
X310455Y-257282D01*
X310455Y-255838D01*
X311033Y-254393D01*
X312189Y-253671D01*
X313344Y-253671D01*
X314500Y-254393D01*
X315077Y-255838D01*
G54D10*
X161289Y-227945D02*
X181289Y-227945D01*
X181289Y-189945D01*
X161289Y-189945D01*
X161289Y-227945D01*
G54D12*
X193025Y-216108D02*
X193603Y-217552D01*
X194759Y-218274D01*
X195914Y-218274D01*
X197070Y-217552D01*
X197647Y-216108D01*
X197647Y-208886D01*
X197070Y-207441D01*
X195914Y-206719D01*
X194759Y-206719D01*
X193603Y-207441D01*
X193025Y-208886D01*
G54D12*
X184359Y-206719D02*
X188981Y-206719D01*
X188981Y-211774D01*
X188404Y-211774D01*
X187248Y-211052D01*
X186093Y-211052D01*
X184937Y-211774D01*
X184359Y-213219D01*
X184359Y-216108D01*
X184937Y-217552D01*
X186093Y-218274D01*
X187248Y-218274D01*
X188404Y-217552D01*
X188981Y-216108D01*
G54D10*
X232033Y-210486D02*
X212033Y-210486D01*
X212033Y-248486D01*
X232033Y-248486D01*
X232033Y-210486D01*
G54D12*
X204083Y-240703D02*
X204661Y-242147D01*
X205816Y-242869D01*
X206972Y-242869D01*
X208127Y-242147D01*
X208705Y-240703D01*
X208705Y-233480D01*
X208127Y-232036D01*
X206972Y-231314D01*
X205816Y-231314D01*
X204661Y-232036D01*
X204083Y-233480D01*
G54D12*
X200039Y-231314D02*
X195417Y-231314D01*
X195995Y-232758D01*
X197150Y-234925D01*
X198306Y-237814D01*
X198884Y-239980D01*
X198884Y-242869D01*
G54D10*
X235406Y-309851D02*
X235406Y-329851D01*
X273406Y-329851D01*
X273406Y-309851D01*
X235406Y-309851D01*
G54D12*
X321846Y-319324D02*
X320113Y-320769D01*
X319535Y-322213D01*
X319535Y-325102D01*
G54D12*
X324157Y-325102D02*
X324157Y-313546D01*
X321268Y-313546D01*
X320113Y-314269D01*
X319535Y-315713D01*
X319535Y-317158D01*
X320113Y-318602D01*
X321268Y-319324D01*
X324157Y-319324D01*
G54D12*
X310869Y-325102D02*
X315491Y-325102D01*
X315491Y-324380D01*
X314913Y-322935D01*
X311447Y-318602D01*
X310869Y-317158D01*
X310869Y-315713D01*
X311447Y-314269D01*
X312602Y-313546D01*
X313758Y-313546D01*
X314913Y-314269D01*
X315491Y-315713D01*
G54D12*
X302203Y-315713D02*
X302203Y-322935D01*
X302781Y-324380D01*
X303936Y-325102D01*
X305092Y-325102D01*
X306247Y-324380D01*
X306825Y-322935D01*
X306825Y-315713D01*
X306247Y-314269D01*
X305092Y-313546D01*
X303936Y-313546D01*
X302781Y-314269D01*
X302203Y-315713D01*
G54D10*
X304033Y-201986D02*
X299033Y-206986D01*
G54D10*
X299033Y-206986D02*
X299033Y-203986D01*
X302033Y-206986D01*
X299033Y-206986D01*
G54D10*
X194406Y-309851D02*
X194406Y-329851D01*
X232406Y-329851D01*
X232406Y-309851D01*
X194406Y-309851D01*
G54D12*
X288535Y-322935D02*
X289113Y-324380D01*
X290268Y-325102D01*
X291424Y-325102D01*
X292579Y-324380D01*
X293157Y-322935D01*
X293157Y-315713D01*
X292579Y-314269D01*
X291424Y-313546D01*
X290268Y-313546D01*
X289113Y-314269D01*
X288535Y-315713D01*
G54D12*
X279869Y-325102D02*
X284491Y-325102D01*
X284491Y-324380D01*
X283913Y-322935D01*
X280447Y-318602D01*
X279869Y-317158D01*
X279869Y-315713D01*
X280447Y-314269D01*
X281602Y-313546D01*
X282758Y-313546D01*
X283913Y-314269D01*
X284491Y-315713D01*
G54D10*
X349964Y-193883D02*
X329964Y-193883D01*
X329964Y-231883D01*
X349964Y-231883D01*
X349964Y-193883D01*
G54D12*
X341592Y-188946D02*
X342169Y-190390D01*
X343325Y-191113D01*
X344480Y-191113D01*
X345636Y-190390D01*
X346214Y-188946D01*
X346214Y-181724D01*
X345636Y-180279D01*
X344480Y-179557D01*
X343325Y-179557D01*
X342169Y-180279D01*
X341592Y-181724D01*
G54D12*
X337548Y-183890D02*
X334659Y-179557D01*
X334659Y-191113D01*
G54D10*
X332457Y-412239D02*
X332457Y-464077D01*
X355994Y-464077D01*
X355994Y-412239D01*
X332457Y-412239D01*
G54D12*
X351604Y-402602D02*
X349870Y-404046D01*
X349293Y-405491D01*
X349293Y-408380D01*
G54D12*
X353915Y-408380D02*
X353915Y-396824D01*
X351026Y-396824D01*
X349870Y-397546D01*
X349293Y-398991D01*
X349293Y-400435D01*
X349870Y-401880D01*
X351026Y-402602D01*
X353915Y-402602D01*
G54D12*
X345249Y-401157D02*
X342360Y-396824D01*
X342360Y-408380D01*
G54D12*
X338316Y-406213D02*
X337738Y-407658D01*
X336583Y-408380D01*
X335427Y-408380D01*
X334271Y-407658D01*
X333694Y-406213D01*
X333694Y-402602D01*
X333694Y-401880D01*
X335427Y-403324D01*
X336583Y-403324D01*
X337738Y-402602D01*
X338316Y-401157D01*
X338316Y-398991D01*
X337738Y-397546D01*
X336582Y-396824D01*
X335427Y-396824D01*
X334272Y-397546D01*
X333694Y-398991D01*
X333694Y-402602D01*
G54D10*
X301942Y-377982D02*
X321942Y-377982D01*
X321942Y-339982D01*
X301942Y-339982D01*
X301942Y-377982D01*
G54D12*
X340802Y-345881D02*
X341379Y-347326D01*
X342535Y-348048D01*
X343690Y-348048D01*
X344846Y-347326D01*
X345424Y-345881D01*
X345424Y-338659D01*
X344846Y-337215D01*
X343690Y-336492D01*
X342535Y-336492D01*
X341379Y-337215D01*
X340802Y-338659D01*
G54D12*
X336758Y-340826D02*
X333869Y-336492D01*
X333869Y-348048D01*
G54D12*
X329825Y-338659D02*
X329247Y-337215D01*
X328091Y-336492D01*
X326936Y-336492D01*
X325780Y-337215D01*
X325203Y-338659D01*
X325203Y-340103D01*
X325780Y-341548D01*
X326936Y-342270D01*
X325780Y-342992D01*
X325203Y-344437D01*
X325203Y-345881D01*
X325780Y-347326D01*
X326936Y-348048D01*
X328091Y-348048D01*
X329247Y-347326D01*
X329825Y-345881D01*
G54D12*
X358326Y-276757D02*
X358326Y-286146D01*
G54D12*
X358326Y-281091D02*
X357748Y-282969D01*
X356592Y-283257D01*
X355437Y-282969D01*
X354859Y-281524D01*
X354859Y-278635D01*
X355437Y-277191D01*
X356592Y-276757D01*
X357748Y-277191D01*
X358326Y-278924D01*
G54D12*
X350814Y-283257D02*
X350814Y-276757D01*
G54D12*
X350814Y-274591D02*
X350814Y-274591D01*
G54D12*
X343304Y-282535D02*
X344228Y-283257D01*
X345384Y-283257D01*
X346539Y-282535D01*
X346770Y-281091D01*
X346770Y-278635D01*
X346193Y-277191D01*
X345037Y-276757D01*
X343882Y-277191D01*
X343304Y-278202D01*
X343304Y-279646D01*
X346770Y-279646D01*
G54D12*
X339260Y-276757D02*
X335793Y-276757D01*
X339260Y-283257D01*
X335793Y-283257D01*
G54D12*
X328282Y-281524D02*
X328282Y-278635D01*
X328860Y-277191D01*
X330015Y-276757D01*
X331171Y-277191D01*
X331748Y-278635D01*
X331748Y-281524D01*
X331171Y-282969D01*
X330015Y-283257D01*
X328860Y-282969D01*
X328282Y-281524D01*
G54D12*
X369326Y-292757D02*
X367014Y-299257D01*
X364703Y-292757D01*
G54D12*
X357193Y-297524D02*
X357193Y-294635D01*
X357771Y-293191D01*
X358926Y-292757D01*
X360082Y-293191D01*
X360660Y-294635D01*
X360660Y-297524D01*
X360082Y-298969D01*
X358926Y-299257D01*
X357771Y-298969D01*
X357193Y-297524D01*
G54D12*
X353148Y-299257D02*
X353148Y-287702D01*
G54D12*
X345638Y-292757D02*
X345638Y-299257D01*
G54D12*
X345638Y-297813D02*
X346216Y-298969D01*
X347371Y-299257D01*
X348527Y-298969D01*
X349104Y-297813D01*
X349104Y-292757D01*
G54D12*
X341594Y-299257D02*
X341594Y-292757D01*
G54D12*
X341594Y-293913D02*
X340438Y-292757D01*
X339282Y-293191D01*
X338705Y-294202D01*
X338705Y-299257D01*
G54D12*
X338705Y-293913D02*
X337549Y-292757D01*
X336394Y-293191D01*
X335816Y-294202D01*
X335816Y-299257D01*
G54D12*
X328305Y-298535D02*
X329229Y-299257D01*
X330385Y-299257D01*
X331540Y-298535D01*
X331772Y-297091D01*
X331772Y-294635D01*
X331194Y-293191D01*
X330038Y-292757D01*
X328883Y-293191D01*
X328305Y-294202D01*
X328305Y-295646D01*
X331772Y-295646D01*
G54D12*
X438326Y-431257D02*
X438326Y-419702D01*
G54D12*
X431393Y-425191D02*
X432548Y-424757D01*
X433704Y-425191D01*
X434282Y-426635D01*
X434282Y-429524D01*
X433704Y-430969D01*
X432548Y-431257D01*
X431393Y-430969D01*
G54D12*
X423882Y-431257D02*
X423882Y-419702D01*
G54D12*
X423882Y-426635D02*
X424460Y-425191D01*
X425615Y-424757D01*
X426771Y-425191D01*
X427348Y-426635D01*
X427348Y-429524D01*
X426771Y-430969D01*
X425615Y-431257D01*
X424460Y-430969D01*
X423882Y-429524D01*
G54D12*
X415678Y-431257D02*
X415678Y-419702D01*
G54D12*
X415678Y-426635D02*
X415100Y-425191D01*
X413944Y-424757D01*
X412789Y-425191D01*
X412211Y-426635D01*
X412211Y-429524D01*
X412789Y-430969D01*
X413944Y-431257D01*
X415100Y-430969D01*
X415678Y-429524D01*
G54D12*
X408166Y-425480D02*
X407011Y-424757D01*
X405624Y-424757D01*
X404700Y-426202D01*
X404700Y-431257D01*
G54D12*
X404700Y-429091D02*
X405278Y-427646D01*
X406433Y-427357D01*
X407589Y-427646D01*
X408166Y-429091D01*
X407935Y-430535D01*
X407011Y-431257D01*
X406433Y-431257D01*
X406202Y-431257D01*
X405278Y-430535D01*
X404700Y-429091D01*
G54D12*
X397767Y-425191D02*
X398922Y-424757D01*
X400078Y-425191D01*
X400656Y-426635D01*
X400656Y-429524D01*
X400078Y-430969D01*
X398922Y-431257D01*
X397767Y-430969D01*
G54D12*
X393722Y-431257D02*
X393722Y-419702D01*
G54D12*
X391989Y-426924D02*
X390256Y-431257D01*
G54D12*
X393722Y-428369D02*
X390256Y-424757D01*
G54D12*
X386212Y-431257D02*
X386212Y-419702D01*
G54D12*
X382168Y-431257D02*
X382168Y-424757D01*
G54D12*
X382168Y-422591D02*
X382168Y-422591D01*
G54D12*
X378124Y-433424D02*
X376968Y-434146D01*
X376159Y-434146D01*
X375004Y-433424D01*
X374657Y-431980D01*
X374657Y-424757D01*
G54D12*
X374657Y-426635D02*
X375235Y-425191D01*
X376390Y-424757D01*
X377546Y-425191D01*
X378124Y-426635D01*
X378124Y-429524D01*
X377546Y-430969D01*
X376390Y-431257D01*
X375235Y-430969D01*
X374657Y-429524D01*
G54D12*
X370612Y-431257D02*
X370612Y-419702D01*
G54D12*
X370612Y-426635D02*
X370035Y-425191D01*
X368879Y-424757D01*
X367724Y-425191D01*
X367146Y-426635D01*
X367146Y-431257D01*
G54D12*
X361946Y-419702D02*
X361946Y-430535D01*
X361368Y-431257D01*
X360790Y-430969D01*
G54D12*
X363102Y-424757D02*
X360790Y-424757D01*
G54D12*
X426326Y-447257D02*
X426326Y-435702D01*
G54D12*
X426326Y-442635D02*
X425748Y-441191D01*
X424592Y-440757D01*
X423437Y-441191D01*
X422859Y-442635D01*
X422859Y-445524D01*
X423437Y-446969D01*
X424592Y-447257D01*
X425748Y-446969D01*
X426326Y-445524D01*
G54D12*
X418814Y-447257D02*
X418814Y-440757D01*
G54D12*
X418814Y-442202D02*
X417659Y-440757D01*
X416503Y-440757D01*
G54D12*
X412460Y-447257D02*
X412460Y-440757D01*
G54D12*
X412460Y-438591D02*
X412460Y-438591D01*
G54D12*
X408416Y-449424D02*
X407260Y-450146D01*
X406451Y-450146D01*
X405296Y-449424D01*
X404949Y-447980D01*
X404949Y-440757D01*
G54D12*
X404949Y-442635D02*
X405527Y-441191D01*
X406682Y-440757D01*
X407838Y-441191D01*
X408416Y-442635D01*
X408416Y-445524D01*
X407838Y-446969D01*
X406682Y-447257D01*
X405527Y-446969D01*
X404949Y-445524D01*
G54D12*
X400904Y-447257D02*
X400904Y-435702D01*
G54D12*
X400904Y-442635D02*
X400327Y-441191D01*
X399171Y-440757D01*
X398016Y-441191D01*
X397438Y-442635D01*
X397438Y-447257D01*
G54D12*
X392238Y-435702D02*
X392238Y-446535D01*
X391660Y-447257D01*
X391082Y-446969D01*
G54D12*
X393394Y-440757D02*
X391082Y-440757D01*
G54D12*
X387038Y-447257D02*
X387038Y-440757D01*
G54D12*
X387038Y-442202D02*
X386461Y-441191D01*
X385305Y-440757D01*
X384150Y-441191D01*
X383572Y-442202D01*
X383572Y-447257D01*
G54D12*
X376061Y-446535D02*
X376985Y-447257D01*
X378141Y-447257D01*
X379296Y-446535D01*
X379528Y-445091D01*
X379528Y-442635D01*
X378950Y-441191D01*
X377794Y-440757D01*
X376639Y-441191D01*
X376061Y-442202D01*
X376061Y-443646D01*
X379528Y-443646D01*
G54D12*
X372016Y-446535D02*
X370861Y-447257D01*
X369705Y-447257D01*
X368550Y-446535D01*
X368550Y-445091D01*
X369128Y-444369D01*
X371439Y-443646D01*
X372016Y-442924D01*
X372016Y-441480D01*
X370861Y-440757D01*
X369705Y-440757D01*
X368550Y-441480D01*
G54D12*
X364506Y-446535D02*
X363350Y-447257D01*
X362194Y-447257D01*
X361039Y-446535D01*
X361039Y-445091D01*
X361617Y-444369D01*
X363928Y-443646D01*
X364506Y-442924D01*
X364506Y-441480D01*
X363350Y-440757D01*
X362194Y-440757D01*
X361039Y-441480D01*
G36*
X354033Y-347986D02*
X487033Y-347986D01*
X487033Y-381986D01*
X354033Y-381986D01*
X354033Y-347986D01*
G37*
G54D13*
X354033Y-347986D02*
X487033Y-347986D01*
X487033Y-381986D01*
X354033Y-381986D01*
X354033Y-347986D01*
G54D12*
X483293Y-339213D02*
X483870Y-340657D01*
X485026Y-341380D01*
X486182Y-341380D01*
X487337Y-340657D01*
X487915Y-339213D01*
X487915Y-331991D01*
X487337Y-330546D01*
X486182Y-329824D01*
X485026Y-329824D01*
X483870Y-330546D01*
X483293Y-331991D01*
G54D12*
X479249Y-341380D02*
X476360Y-329824D01*
X473471Y-341380D01*
G54D12*
X478093Y-337046D02*
X474627Y-337046D01*
G54D12*
X469427Y-329824D02*
X469427Y-341380D01*
X465382Y-341380D01*
G54D12*
X461339Y-341380D02*
X461339Y-341380D01*
G54D12*
X461339Y-334880D02*
X461339Y-334880D01*
G54D14*
X180145Y-37111D02*
X291270Y-37111D01*
X291270Y-167286D01*
X181733Y-167286D01*
G54D14*
X180145Y-37111D02*
X180145Y-152999D01*
M02*
