%FSLAX34Y34*%
%MOMM*%
%LNSMDMASK_BOTTOM*%
G71*
G01*
%ADD10R, 2.600X0.800*%
%ADD11R, 0.450X0.800*%
%ADD12R, 1.400X1.300*%
%ADD13R, 1.300X1.800*%
%ADD14R, 1.300X1.400*%
%ADD15R, 1.400X1.200*%
%ADD16R, 1.800X1.300*%
%LPD*%
X178967Y-286314D02*
G54D10*
D03*
X178967Y-299014D02*
G54D10*
D03*
X178967Y-311714D02*
G54D10*
D03*
X178967Y-324414D02*
G54D10*
D03*
X178967Y-337114D02*
G54D10*
D03*
X178967Y-349814D02*
G54D10*
D03*
X178967Y-362514D02*
G54D10*
D03*
X178967Y-375214D02*
G54D10*
D03*
X178967Y-387914D02*
G54D10*
D03*
X178967Y-400614D02*
G54D10*
D03*
X86967Y-400614D02*
G54D10*
D03*
X86967Y-387914D02*
G54D10*
D03*
X86967Y-375214D02*
G54D10*
D03*
X86967Y-362514D02*
G54D10*
D03*
X86967Y-349814D02*
G54D10*
D03*
X86967Y-337114D02*
G54D10*
D03*
X86967Y-324414D02*
G54D10*
D03*
X86967Y-311714D02*
G54D10*
D03*
X86967Y-299014D02*
G54D10*
D03*
X86967Y-286314D02*
G54D10*
D03*
X253000Y-215889D02*
G54D11*
D03*
X253000Y-242889D02*
G54D11*
D03*
X259500Y-215889D02*
G54D11*
D03*
X259500Y-242889D02*
G54D11*
D03*
X266000Y-215889D02*
G54D11*
D03*
X266000Y-242889D02*
G54D11*
D03*
X272500Y-215889D02*
G54D11*
D03*
X272500Y-242889D02*
G54D11*
D03*
X39819Y-94388D02*
G54D12*
D03*
X39819Y-113388D02*
G54D12*
D03*
X117931Y-140397D02*
G54D12*
D03*
X117932Y-159396D02*
G54D12*
D03*
X250793Y-49171D02*
G54D13*
D03*
X283293Y-49271D02*
G54D13*
D03*
X250793Y-75171D02*
G54D13*
D03*
X283293Y-75271D02*
G54D13*
D03*
X250793Y-101171D02*
G54D13*
D03*
X283293Y-101271D02*
G54D13*
D03*
X250793Y-127171D02*
G54D13*
D03*
X283293Y-127271D02*
G54D13*
D03*
X250793Y-153171D02*
G54D13*
D03*
X283293Y-153271D02*
G54D13*
D03*
G36*
X188293Y-40171D02*
X201293Y-40171D01*
X201293Y-58171D01*
X188293Y-58171D01*
X188293Y-40171D01*
G37*
X227293Y-49271D02*
G54D13*
D03*
G36*
X188293Y-66172D02*
X201293Y-66171D01*
X201293Y-84171D01*
X188293Y-84172D01*
X188293Y-66172D01*
G37*
X227293Y-75271D02*
G54D13*
D03*
X194793Y-101171D02*
G54D13*
D03*
X227293Y-101271D02*
G54D13*
D03*
X194793Y-127171D02*
G54D13*
D03*
X227293Y-127271D02*
G54D13*
D03*
G36*
X188293Y-144171D02*
X201293Y-144171D01*
X201293Y-162171D01*
X188293Y-162171D01*
X188293Y-144171D01*
G37*
X227293Y-153271D02*
G54D13*
D03*
X327767Y-115114D02*
G54D14*
D03*
X346767Y-115114D02*
G54D14*
D03*
X225000Y-179000D02*
G54D12*
D03*
X225000Y-198000D02*
G54D12*
D03*
X290000Y-179000D02*
G54D12*
D03*
X290000Y-198000D02*
G54D12*
D03*
X266600Y-197482D02*
G54D14*
D03*
X247600Y-197483D02*
G54D14*
D03*
X87000Y-213000D02*
G54D12*
D03*
X87000Y-232000D02*
G54D12*
D03*
X290000Y-218400D02*
G54D15*
D03*
X290000Y-238400D02*
G54D15*
D03*
X312000Y-219000D02*
G54D12*
D03*
X312000Y-238000D02*
G54D12*
D03*
X30000Y-232000D02*
G54D12*
D03*
X30000Y-213000D02*
G54D12*
D03*
X61190Y-299954D02*
G54D12*
D03*
X61190Y-280955D02*
G54D12*
D03*
X38190Y-299954D02*
G54D12*
D03*
X38190Y-280955D02*
G54D12*
D03*
X315974Y-276937D02*
G54D12*
D03*
X315974Y-295937D02*
G54D12*
D03*
X64000Y-213000D02*
G54D12*
D03*
X64000Y-232000D02*
G54D12*
D03*
X225000Y-219000D02*
G54D12*
D03*
X225000Y-238000D02*
G54D12*
D03*
X247874Y-318865D02*
G54D14*
D03*
X266874Y-318865D02*
G54D14*
D03*
X206874Y-318865D02*
G54D14*
D03*
X225874Y-318865D02*
G54D14*
D03*
X342931Y-202397D02*
G54D12*
D03*
X342932Y-221396D02*
G54D12*
D03*
X347193Y-420772D02*
G54D16*
D03*
X347093Y-453272D02*
G54D16*
D03*
X316974Y-356937D02*
G54D12*
D03*
X316974Y-375937D02*
G54D12*
D03*
M02*
