%FSLAX34Y34*%
%MOMM*%
%LNCOPPER_TOP*%
G71*
G01*
%ADD10C, 2.400*%
%ADD11C, 0.200*%
%ADD12C, 3.300*%
%ADD13C, 2.400*%
%ADD14C, 2.000*%
%ADD15C, 2.000*%
%ADD16C, 4.900*%
%ADD17C, 3.700*%
%ADD18C, 1.600*%
%ADD19C, 1.100*%
%ADD20C, 0.700*%
%ADD21C, 0.660*%
%ADD22C, 0.900*%
%ADD23C, 0.260*%
%ADD24C, 0.150*%
%ADD25C, 1.000*%
%ADD26C, 0.206*%
%ADD27C, 2.100*%
%ADD28C, 0.600*%
%ADD29C, 0.170*%
%ADD30C, 1.400*%
%ADD31C, 0.667*%
%ADD32C, 0.967*%
%ADD33C, 0.533*%
%ADD34C, 1.500*%
%ADD35C, 0.233*%
%ADD36C, 0.567*%
%ADD37C, 2.000*%
%ADD38C, 2.900*%
%ADD39C, 2.000*%
%ADD40C, 1.600*%
%ADD41C, 1.600*%
%ADD42C, 4.500*%
%ADD43C, 3.300*%
%ADD44C, 0.700*%
%ADD45C, 0.300*%
%ADD46C, 0.500*%
%ADD47C, 1.700*%
%LPD*%
G36*
X0Y0D02*
X505000Y0D01*
X505000Y-500000D01*
X0Y-500000D01*
X0Y0D01*
G37*
%LPC*%
X42087Y-163864D02*
G54D10*
D03*
X64987Y-163864D02*
G54D10*
D03*
X87887Y-163864D02*
G54D10*
D03*
G54D11*
G75*
G01X72950Y-39000D02*
G03X72950Y-39000I-30000J0D01*
G01*
G36*
G75*
G01X72950Y-39000D02*
G03X72950Y-39000I-30000J0D01*
G01*
G37*
X72950Y-39000D01*
X434000Y-397000D02*
G54D10*
D03*
G36*
X446000Y-320000D02*
X446000Y-344000D01*
X422000Y-344000D01*
X422000Y-320000D01*
X446000Y-320000D01*
G37*
G54D12*
X459369Y-259851D02*
X430369Y-259851D01*
G54D12*
X459369Y-164851D02*
X430369Y-164851D01*
X369869Y-212351D02*
G54D13*
D03*
X369869Y-237351D02*
G54D13*
D03*
X369869Y-187351D02*
G54D13*
D03*
X215421Y-347113D02*
G54D14*
D03*
X240821Y-347113D02*
G54D14*
D03*
X266221Y-347113D02*
G54D14*
D03*
G36*
X281621Y-357113D02*
X281621Y-337113D01*
X301621Y-337113D01*
X301621Y-357113D01*
X281621Y-357113D01*
G37*
X215409Y-378945D02*
G54D14*
D03*
X240809Y-378945D02*
G54D14*
D03*
X266209Y-378945D02*
G54D14*
D03*
G36*
X281609Y-388945D02*
X281609Y-368945D01*
X301609Y-368945D01*
X301609Y-388945D01*
X281609Y-388945D01*
G37*
X108000Y-221000D02*
G54D15*
D03*
X138956Y-221000D02*
G54D15*
D03*
X123875Y-200363D02*
G54D15*
D03*
X140047Y-156301D02*
G54D15*
D03*
G36*
X150046Y-166301D02*
X150046Y-186301D01*
X130046Y-186301D01*
X130046Y-166301D01*
X150046Y-166301D01*
G37*
X381089Y-45892D02*
G54D16*
D03*
X381089Y-105892D02*
G54D16*
D03*
X331289Y-80992D02*
G54D17*
D03*
G36*
X88666Y-271045D02*
X88666Y-251045D01*
X108666Y-251045D01*
X108666Y-271045D01*
X88666Y-271045D01*
G37*
X124066Y-261045D02*
G54D14*
D03*
X149466Y-261045D02*
G54D14*
D03*
X174866Y-261045D02*
G54D14*
D03*
X200266Y-261045D02*
G54D14*
D03*
X88458Y-192149D02*
G54D15*
D03*
X37658Y-192149D02*
G54D15*
D03*
X39490Y-135388D02*
G54D10*
D03*
X64890Y-135388D02*
G54D10*
D03*
X90290Y-135388D02*
G54D10*
D03*
G54D18*
X23000Y1000D02*
X483000Y1000D01*
G54D18*
G75*
G01X23000Y1000D02*
G03X3000Y-19000I0J-20000D01*
G01*
G54D18*
G75*
G01X503000Y-19000D02*
G03X483000Y1000I-20000J0D01*
G01*
G54D18*
X3000Y-19000D02*
X3000Y-479000D01*
G54D18*
G75*
G01X3000Y-479000D02*
G03X23000Y-499000I20000J0D01*
G01*
G54D18*
X503000Y-19000D02*
X503000Y-479000D01*
G54D18*
G75*
G01X483000Y-499000D02*
G03X503000Y-479000I0J20000D01*
G01*
G54D18*
X23000Y-499000D02*
X483000Y-499000D01*
X347000Y-141000D02*
G54D15*
D03*
G36*
X337000Y-151000D02*
X317000Y-151000D01*
X317000Y-131000D01*
X337000Y-131000D01*
X337000Y-151000D01*
G37*
G36*
X326163Y-444857D02*
X326163Y-464857D01*
X306163Y-464857D01*
X306163Y-444857D01*
X326163Y-444857D01*
G37*
X290763Y-454857D02*
G54D14*
D03*
X265363Y-454857D02*
G54D14*
D03*
X239963Y-454857D02*
G54D14*
D03*
X214563Y-454857D02*
G54D14*
D03*
X189163Y-454857D02*
G54D14*
D03*
X163763Y-454857D02*
G54D14*
D03*
X138363Y-454857D02*
G54D14*
D03*
X156000Y-290000D02*
G54D19*
D03*
X39000Y-264000D02*
G54D19*
D03*
X215421Y-410113D02*
G54D14*
D03*
X240821Y-410113D02*
G54D14*
D03*
X266221Y-410113D02*
G54D14*
D03*
G36*
X281621Y-420113D02*
X281621Y-400113D01*
X301621Y-400113D01*
X301621Y-420113D01*
X281621Y-420113D01*
G37*
X47000Y-213000D02*
G54D19*
D03*
X113000Y-455000D02*
G54D14*
D03*
X215421Y-294113D02*
G54D14*
D03*
X240821Y-294113D02*
G54D14*
D03*
X266221Y-294113D02*
G54D14*
D03*
G54D20*
X98666Y-261045D02*
X98666Y-282666D01*
X106000Y-290000D01*
X156000Y-290000D01*
X158000Y-375000D02*
G54D19*
D03*
G54D21*
X159000Y-375000D02*
X159000Y-409000D01*
X177000Y-427000D01*
X224000Y-427000D01*
X240000Y-443000D01*
X240000Y-454820D01*
X239963Y-454857D01*
G54D21*
X214563Y-454857D02*
X214563Y-435563D01*
X211000Y-432000D01*
X175000Y-432000D01*
X154000Y-411000D01*
X154000Y-383000D01*
X151000Y-380000D01*
X151000Y-369000D01*
X157486Y-362514D01*
X157486Y-362514D02*
G54D19*
D03*
G54D22*
X47000Y-213000D02*
X47000Y-256000D01*
X39000Y-264000D01*
X346000Y-469000D02*
G54D19*
D03*
G54D22*
X138363Y-454857D02*
X138363Y-477363D01*
X145000Y-484000D01*
X340000Y-484000D01*
X346000Y-478000D01*
X346000Y-469000D01*
X229000Y-279000D02*
G54D19*
D03*
X127000Y-306000D02*
G54D19*
D03*
G54D21*
X127000Y-306000D02*
X222634Y-306000D01*
X228121Y-300513D01*
X228121Y-279879D01*
X229000Y-279000D01*
X109000Y-375000D02*
G54D19*
D03*
X123000Y-388000D02*
G54D19*
D03*
X278000Y-257500D02*
G54D19*
D03*
X269000Y-255000D02*
G54D19*
D03*
G54D21*
X277000Y-257000D02*
X284000Y-264000D01*
X284000Y-311000D01*
X275000Y-320000D01*
X255000Y-320000D01*
X241000Y-334000D01*
X241000Y-356000D01*
X235000Y-362000D01*
X211500Y-362000D01*
X203500Y-354000D01*
X131000Y-354000D01*
X123000Y-362000D01*
X123000Y-388000D01*
G54D21*
X109000Y-375000D02*
X115000Y-369000D01*
X115000Y-361000D01*
X129000Y-347000D01*
X215000Y-347000D01*
X216000Y-347000D01*
X249000Y-314000D01*
X273000Y-314000D01*
X278000Y-309000D01*
X278000Y-269000D01*
X269000Y-260000D01*
X269000Y-255000D01*
G54D23*
X308000Y-138000D02*
X317000Y-147000D01*
X335000Y-147000D01*
X347000Y-159000D01*
X503000Y-159000D01*
G54D23*
X90290Y-135388D02*
X8388Y-135388D01*
G54D23*
X308084Y-138286D02*
X103286Y-138286D01*
X90290Y-135388D01*
G36*
X129000Y-347000D02*
X129000Y-352000D01*
X131000Y-354000D01*
X203500Y-354000D01*
X211500Y-362000D01*
X235000Y-362000D01*
X241000Y-356000D01*
X241000Y-334000D01*
X255000Y-320000D01*
X255000Y-315000D01*
X254000Y-314000D01*
X248534Y-314000D01*
X215421Y-347113D01*
X129113Y-347113D01*
X129000Y-347000D01*
G37*
G54D24*
X129000Y-347000D02*
X129000Y-352000D01*
X131000Y-354000D01*
X203500Y-354000D01*
X211500Y-362000D01*
X235000Y-362000D01*
X241000Y-356000D01*
X241000Y-334000D01*
X255000Y-320000D01*
X255000Y-315000D01*
X254000Y-314000D01*
X248534Y-314000D01*
X215421Y-347113D01*
X129113Y-347113D01*
X129000Y-347000D01*
G36*
X158000Y-375000D02*
X158000Y-411000D01*
X156000Y-413000D01*
X154000Y-411000D01*
X154000Y-383000D01*
X151000Y-380000D01*
X151000Y-370000D01*
X153000Y-370000D01*
X158000Y-375000D01*
G37*
G54D24*
X158000Y-375000D02*
X158000Y-411000D01*
X156000Y-413000D01*
X154000Y-411000D01*
X154000Y-383000D01*
X151000Y-380000D01*
X151000Y-370000D01*
X153000Y-370000D01*
X158000Y-375000D01*
G36*
X269000Y-255000D02*
X275000Y-255000D01*
X277000Y-257000D01*
X284000Y-264000D01*
X284000Y-278000D01*
X283000Y-279000D01*
X278000Y-279000D01*
X278000Y-269000D01*
X269000Y-255000D01*
G37*
G54D24*
X269000Y-255000D02*
X275000Y-255000D01*
X277000Y-257000D01*
X284000Y-264000D01*
X284000Y-278000D01*
X283000Y-279000D01*
X278000Y-279000D01*
X278000Y-269000D01*
X269000Y-255000D01*
X174520Y-159740D02*
G54D14*
D03*
X174520Y-235940D02*
G54D14*
D03*
G54D25*
X174520Y-235940D02*
X218060Y-235940D01*
X223000Y-231000D01*
X223000Y-216500D01*
X233500Y-206000D01*
X278500Y-206000D01*
X306000Y-233500D01*
X306000Y-332734D01*
X291621Y-347113D01*
G36*
X223500Y-296500D02*
X223500Y-299000D01*
X217500Y-305000D01*
X221634Y-305000D01*
X222634Y-306000D01*
X228121Y-300513D01*
X223500Y-296500D01*
G37*
G54D11*
X223500Y-296500D02*
X223500Y-299000D01*
X217500Y-305000D01*
X221634Y-305000D01*
X222634Y-306000D01*
X228121Y-300513D01*
X223500Y-296500D01*
G54D26*
X399560Y-483778D02*
X399560Y-472222D01*
G54D26*
X397249Y-472222D02*
X401871Y-472222D01*
G54D26*
X410537Y-474389D02*
X410537Y-481611D01*
X409959Y-483056D01*
X408804Y-483778D01*
X407648Y-483778D01*
X406493Y-483056D01*
X405915Y-481611D01*
X405915Y-474389D01*
X406493Y-472945D01*
X407648Y-472222D01*
X408804Y-472222D01*
X409959Y-472945D01*
X410537Y-474389D01*
G54D26*
X414581Y-483778D02*
X414581Y-472222D01*
X417470Y-472222D01*
X418625Y-472945D01*
X419203Y-474389D01*
X419203Y-475834D01*
X418625Y-477278D01*
X417470Y-478000D01*
X414581Y-478000D01*
X133089Y-43892D02*
G54D16*
D03*
X133089Y-103892D02*
G54D16*
D03*
X83289Y-78992D02*
G54D17*
D03*
X406592Y-131314D02*
G54D27*
D03*
X482792Y-131315D02*
G54D27*
D03*
G54D11*
G75*
G01X493000Y-39000D02*
G03X493000Y-39000I-30000J0D01*
G01*
G36*
G75*
G01X493000Y-39000D02*
G03X493000Y-39000I-30000J0D01*
G01*
G37*
X493000Y-39000D01*
G54D11*
G75*
G01X493000Y-459000D02*
G03X493000Y-459000I-30000J0D01*
G01*
G36*
G75*
G01X493000Y-459000D02*
G03X493000Y-459000I-30000J0D01*
G01*
G37*
X493000Y-459000D01*
G54D11*
G75*
G01X73000Y-459000D02*
G03X73000Y-459000I-30000J0D01*
G01*
G36*
G75*
G01X73000Y-459000D02*
G03X73000Y-459000I-30000J0D01*
G01*
G37*
X73000Y-459000D01*
X256000Y-257000D02*
G54D19*
D03*
X245000Y-257000D02*
G54D19*
D03*
G36*
X494000Y-489000D02*
X531000Y-489000D01*
X531000Y-533000D01*
X494000Y-533000D01*
X494000Y-489000D01*
G37*
G54D28*
X494000Y-489000D02*
X531000Y-489000D01*
X531000Y-533000D01*
X494000Y-533000D01*
X494000Y-489000D01*
G36*
X-3000Y-479000D02*
X3000Y-479000D01*
X3000Y-500000D01*
X-3000Y-500000D01*
X-3000Y-479000D01*
G37*
G54D28*
X-3000Y-479000D02*
X3000Y-479000D01*
X3000Y-500000D01*
X-3000Y-500000D01*
X-3000Y-479000D01*
G36*
X3000Y-19000D02*
X0Y-19000D01*
X0Y0D01*
X15000Y0D01*
X3000Y-19000D01*
G37*
G54D29*
X3000Y-19000D02*
X0Y-19000D01*
X0Y0D01*
X15000Y0D01*
X3000Y-19000D01*
G36*
X496000Y-6000D02*
X496000Y-12000D01*
X503000Y-19000D01*
X503000Y-8000D01*
X505000Y-6000D01*
X505000Y-1000D01*
X504000Y0D01*
X484000Y0D01*
X483000Y1000D01*
X496000Y-6000D01*
G37*
G54D29*
X496000Y-6000D02*
X496000Y-12000D01*
X503000Y-19000D01*
X503000Y-8000D01*
X505000Y-6000D01*
X505000Y-1000D01*
X504000Y0D01*
X484000Y0D01*
X483000Y1000D01*
X496000Y-6000D01*
G54D30*
X133089Y-43892D02*
X133089Y-54911D01*
X112000Y-76000D01*
X95000Y-110000D01*
G54D30*
X95000Y-110000D02*
X76000Y-110000D01*
X65000Y-121000D01*
X65000Y-135278D01*
X64890Y-135388D01*
%LPD*%
G54D31*
G36*
X434000Y-393667D02*
X446500Y-393667D01*
X446500Y-400333D01*
X434000Y-400333D01*
X434000Y-393667D01*
G37*
G36*
X437333Y-397000D02*
X437333Y-409500D01*
X430667Y-409500D01*
X430667Y-397000D01*
X437333Y-397000D01*
G37*
G36*
X434000Y-400333D02*
X421500Y-400333D01*
X421500Y-393667D01*
X434000Y-393667D01*
X434000Y-400333D01*
G37*
G36*
X430667Y-397000D02*
X430667Y-384500D01*
X437333Y-384500D01*
X437333Y-397000D01*
X430667Y-397000D01*
G37*
G54D32*
G36*
X444869Y-255018D02*
X476369Y-255018D01*
X476369Y-264684D01*
X444869Y-264684D01*
X444869Y-255018D01*
G37*
G36*
X449702Y-259851D02*
X449702Y-276851D01*
X440036Y-276851D01*
X440036Y-259851D01*
X449702Y-259851D01*
G37*
G36*
X444869Y-264684D02*
X413369Y-264684D01*
X413369Y-255018D01*
X444869Y-255018D01*
X444869Y-264684D01*
G37*
G36*
X440036Y-259851D02*
X440036Y-242851D01*
X449702Y-242851D01*
X449702Y-259851D01*
X440036Y-259851D01*
G37*
G54D32*
G36*
X444869Y-160018D02*
X476369Y-160018D01*
X476369Y-169684D01*
X444869Y-169684D01*
X444869Y-160018D01*
G37*
G36*
X449702Y-164851D02*
X449702Y-181851D01*
X440036Y-181851D01*
X440036Y-164851D01*
X449702Y-164851D01*
G37*
G36*
X444869Y-169684D02*
X413369Y-169684D01*
X413369Y-160018D01*
X444869Y-160018D01*
X444869Y-169684D01*
G37*
G54D31*
G36*
X369869Y-184018D02*
X382369Y-184018D01*
X382369Y-190684D01*
X369869Y-190684D01*
X369869Y-184018D01*
G37*
G36*
X373202Y-187351D02*
X373202Y-199851D01*
X366536Y-199851D01*
X366536Y-187351D01*
X373202Y-187351D01*
G37*
G36*
X369869Y-190684D02*
X357369Y-190684D01*
X357369Y-184018D01*
X369869Y-184018D01*
X369869Y-190684D01*
G37*
G36*
X366536Y-187351D02*
X366536Y-174851D01*
X373202Y-174851D01*
X373202Y-187351D01*
X366536Y-187351D01*
G37*
G54D33*
G36*
X266221Y-349780D02*
X255721Y-349780D01*
X255721Y-344446D01*
X266221Y-344446D01*
X266221Y-349780D01*
G37*
G36*
X263554Y-347113D02*
X263554Y-336613D01*
X268888Y-336613D01*
X268888Y-347113D01*
X263554Y-347113D01*
G37*
G36*
X266221Y-344446D02*
X276721Y-344446D01*
X276721Y-349780D01*
X266221Y-349780D01*
X266221Y-344446D01*
G37*
G36*
X268888Y-347113D02*
X268888Y-357613D01*
X263554Y-357613D01*
X263554Y-347113D01*
X268888Y-347113D01*
G37*
G54D33*
G36*
X266209Y-381612D02*
X255709Y-381612D01*
X255709Y-376278D01*
X266209Y-376278D01*
X266209Y-381612D01*
G37*
G36*
X263542Y-378945D02*
X263542Y-368445D01*
X268876Y-368445D01*
X268876Y-378945D01*
X263542Y-378945D01*
G37*
G36*
X266209Y-376278D02*
X276709Y-376278D01*
X276709Y-381612D01*
X266209Y-381612D01*
X266209Y-376278D01*
G37*
G36*
X268876Y-378945D02*
X268876Y-389445D01*
X263542Y-389445D01*
X263542Y-378945D01*
X268876Y-378945D01*
G37*
G54D33*
G36*
X121208Y-200363D02*
X121208Y-189863D01*
X126541Y-189863D01*
X126541Y-200363D01*
X121208Y-200363D01*
G37*
G36*
X123875Y-197696D02*
X134375Y-197696D01*
X134375Y-203030D01*
X123875Y-203030D01*
X123875Y-197696D01*
G37*
G36*
X126541Y-200363D02*
X126541Y-210863D01*
X121208Y-210863D01*
X121208Y-200363D01*
X126541Y-200363D01*
G37*
G36*
X123875Y-203030D02*
X113375Y-203030D01*
X113375Y-197696D01*
X123875Y-197696D01*
X123875Y-203030D01*
G37*
G54D33*
G36*
X140047Y-153634D02*
X150547Y-153634D01*
X150547Y-158968D01*
X140047Y-158968D01*
X140047Y-153634D01*
G37*
G36*
X140047Y-158968D02*
X129547Y-158968D01*
X129547Y-153634D01*
X140047Y-153634D01*
X140047Y-158968D01*
G37*
G36*
X137380Y-156301D02*
X137380Y-145801D01*
X142714Y-145801D01*
X142714Y-156301D01*
X137380Y-156301D01*
G37*
G54D34*
G36*
X381089Y-98392D02*
X406089Y-98392D01*
X406089Y-113392D01*
X381089Y-113392D01*
X381089Y-98392D01*
G37*
G36*
X388589Y-105892D02*
X388589Y-130892D01*
X373589Y-130892D01*
X373589Y-105892D01*
X388589Y-105892D01*
G37*
G36*
X381089Y-113392D02*
X356089Y-113392D01*
X356089Y-98392D01*
X381089Y-98392D01*
X381089Y-113392D01*
G37*
G36*
X373589Y-105892D02*
X373589Y-80892D01*
X388589Y-80892D01*
X388589Y-105892D01*
X373589Y-105892D01*
G37*
G54D33*
G36*
X149466Y-263712D02*
X138966Y-263712D01*
X138966Y-258378D01*
X149466Y-258378D01*
X149466Y-263712D01*
G37*
G36*
X146799Y-261045D02*
X146799Y-250545D01*
X152133Y-250545D01*
X152133Y-261045D01*
X146799Y-261045D01*
G37*
G36*
X149466Y-258378D02*
X159966Y-258378D01*
X159966Y-263712D01*
X149466Y-263712D01*
X149466Y-258378D01*
G37*
G36*
X152133Y-261045D02*
X152133Y-271545D01*
X146799Y-271545D01*
X146799Y-261045D01*
X152133Y-261045D01*
G37*
G54D33*
G36*
X349667Y-141000D02*
X349667Y-151500D01*
X344333Y-151500D01*
X344333Y-141000D01*
X349667Y-141000D01*
G37*
G36*
X347000Y-143667D02*
X336500Y-143667D01*
X336500Y-138333D01*
X347000Y-138333D01*
X347000Y-143667D01*
G37*
G36*
X344333Y-141000D02*
X344333Y-130500D01*
X349667Y-130500D01*
X349667Y-141000D01*
X344333Y-141000D01*
G37*
G36*
X347000Y-138333D02*
X357500Y-138333D01*
X357500Y-143667D01*
X347000Y-143667D01*
X347000Y-138333D01*
G37*
G54D35*
G36*
X187833Y-210000D02*
X187833Y-206000D01*
X190167Y-206000D01*
X190167Y-210000D01*
X187833Y-210000D01*
G37*
G36*
X189000Y-208833D02*
X193000Y-208833D01*
X193000Y-211167D01*
X189000Y-211167D01*
X189000Y-208833D01*
G37*
G36*
X190167Y-210000D02*
X190167Y-214000D01*
X187833Y-214000D01*
X187833Y-210000D01*
X190167Y-210000D01*
G37*
G36*
X189000Y-211167D02*
X185000Y-211167D01*
X185000Y-208833D01*
X189000Y-208833D01*
X189000Y-211167D01*
G37*
G54D35*
G36*
X241000Y-239833D02*
X245000Y-239833D01*
X245000Y-242167D01*
X241000Y-242167D01*
X241000Y-239833D01*
G37*
G36*
X242167Y-241000D02*
X242167Y-245000D01*
X239833Y-245000D01*
X239833Y-241000D01*
X242167Y-241000D01*
G37*
G54D33*
G36*
X290763Y-452190D02*
X301263Y-452190D01*
X301263Y-457524D01*
X290763Y-457524D01*
X290763Y-452190D01*
G37*
G36*
X293430Y-454857D02*
X293430Y-465357D01*
X288096Y-465357D01*
X288096Y-454857D01*
X293430Y-454857D01*
G37*
G36*
X290763Y-457524D02*
X280263Y-457524D01*
X280263Y-452190D01*
X290763Y-452190D01*
X290763Y-457524D01*
G37*
G36*
X288096Y-454857D02*
X288096Y-444357D01*
X293430Y-444357D01*
X293430Y-454857D01*
X288096Y-454857D01*
G37*
G54D33*
G36*
X266221Y-412780D02*
X255721Y-412780D01*
X255721Y-407446D01*
X266221Y-407446D01*
X266221Y-412780D01*
G37*
G36*
X263554Y-410113D02*
X263554Y-399613D01*
X268888Y-399613D01*
X268888Y-410113D01*
X263554Y-410113D01*
G37*
G36*
X266221Y-407446D02*
X276721Y-407446D01*
X276721Y-412780D01*
X266221Y-412780D01*
X266221Y-407446D01*
G37*
G36*
X268888Y-410113D02*
X268888Y-420613D01*
X263554Y-420613D01*
X263554Y-410113D01*
X268888Y-410113D01*
G37*
G54D33*
G36*
X215421Y-296780D02*
X204921Y-296780D01*
X204921Y-291446D01*
X215421Y-291446D01*
X215421Y-296780D01*
G37*
G36*
X212754Y-294113D02*
X212754Y-283613D01*
X218088Y-283613D01*
X218088Y-294113D01*
X212754Y-294113D01*
G37*
G54D35*
G36*
X239833Y-219000D02*
X239833Y-215000D01*
X242167Y-215000D01*
X242167Y-219000D01*
X239833Y-219000D01*
G37*
G36*
X241000Y-217833D02*
X245000Y-217833D01*
X245000Y-220167D01*
X241000Y-220167D01*
X241000Y-217833D01*
G37*
G36*
X242167Y-219000D02*
X242167Y-223000D01*
X239833Y-223000D01*
X239833Y-219000D01*
X242167Y-219000D01*
G37*
G36*
X241000Y-220167D02*
X237000Y-220167D01*
X237000Y-217833D01*
X241000Y-217833D01*
X241000Y-220167D01*
G37*
G54D35*
G36*
X104833Y-241000D02*
X104833Y-237000D01*
X107167Y-237000D01*
X107167Y-241000D01*
X104833Y-241000D01*
G37*
G36*
X106000Y-239833D02*
X110000Y-239833D01*
X110000Y-242167D01*
X106000Y-242167D01*
X106000Y-239833D01*
G37*
G36*
X107167Y-241000D02*
X107167Y-245000D01*
X104833Y-245000D01*
X104833Y-241000D01*
X107167Y-241000D01*
G37*
G36*
X106000Y-242167D02*
X102000Y-242167D01*
X102000Y-239833D01*
X106000Y-239833D01*
X106000Y-242167D01*
G37*
G54D35*
G36*
X315833Y-338000D02*
X315833Y-334000D01*
X318167Y-334000D01*
X318167Y-338000D01*
X315833Y-338000D01*
G37*
G36*
X317000Y-336833D02*
X321000Y-336833D01*
X321000Y-339167D01*
X317000Y-339167D01*
X317000Y-336833D01*
G37*
G36*
X318167Y-338000D02*
X318167Y-342000D01*
X315833Y-342000D01*
X315833Y-338000D01*
X318167Y-338000D01*
G37*
G36*
X317000Y-339167D02*
X313000Y-339167D01*
X313000Y-336833D01*
X317000Y-336833D01*
X317000Y-339167D01*
G37*
G54D35*
G36*
X331833Y-356000D02*
X331833Y-352000D01*
X334167Y-352000D01*
X334167Y-356000D01*
X331833Y-356000D01*
G37*
G36*
X333000Y-354833D02*
X337000Y-354833D01*
X337000Y-357167D01*
X333000Y-357167D01*
X333000Y-354833D01*
G37*
G36*
X334167Y-356000D02*
X334167Y-360000D01*
X331833Y-360000D01*
X331833Y-356000D01*
X334167Y-356000D01*
G37*
G36*
X333000Y-357167D02*
X329000Y-357167D01*
X329000Y-354833D01*
X333000Y-354833D01*
X333000Y-357167D01*
G37*
G54D35*
G36*
X187833Y-223000D02*
X187833Y-219000D01*
X190167Y-219000D01*
X190167Y-223000D01*
X187833Y-223000D01*
G37*
G36*
X189000Y-221833D02*
X193000Y-221833D01*
X193000Y-224167D01*
X189000Y-224167D01*
X189000Y-221833D01*
G37*
G36*
X190167Y-223000D02*
X190167Y-227000D01*
X187833Y-227000D01*
X187833Y-223000D01*
X190167Y-223000D01*
G37*
G36*
X189000Y-224167D02*
X185000Y-224167D01*
X185000Y-221833D01*
X189000Y-221833D01*
X189000Y-224167D01*
G37*
G54D35*
G36*
X201833Y-223000D02*
X201833Y-219000D01*
X204167Y-219000D01*
X204167Y-223000D01*
X201833Y-223000D01*
G37*
G36*
X203000Y-221833D02*
X207000Y-221833D01*
X207000Y-224167D01*
X203000Y-224167D01*
X203000Y-221833D01*
G37*
G36*
X204167Y-223000D02*
X204167Y-227000D01*
X201833Y-227000D01*
X201833Y-223000D01*
X204167Y-223000D01*
G37*
G36*
X203000Y-224167D02*
X199000Y-224167D01*
X199000Y-221833D01*
X203000Y-221833D01*
X203000Y-224167D01*
G37*
G54D34*
G36*
X133089Y-96392D02*
X158089Y-96392D01*
X158089Y-111392D01*
X133089Y-111392D01*
X133089Y-96392D01*
G37*
G36*
X140589Y-103892D02*
X140589Y-128892D01*
X125589Y-128892D01*
X125589Y-103892D01*
X140589Y-103892D01*
G37*
G36*
X125589Y-103892D02*
X125589Y-78892D01*
X140589Y-78892D01*
X140589Y-103892D01*
X125589Y-103892D01*
G37*
G54D36*
G36*
X479959Y-131315D02*
X479959Y-120315D01*
X485626Y-120315D01*
X485626Y-131315D01*
X479959Y-131315D01*
G37*
G36*
X482792Y-128482D02*
X493792Y-128482D01*
X493792Y-134148D01*
X482792Y-134148D01*
X482792Y-128482D01*
G37*
G36*
X485626Y-131315D02*
X485626Y-142315D01*
X479959Y-142315D01*
X479959Y-131315D01*
X485626Y-131315D01*
G37*
G36*
X482792Y-134148D02*
X471792Y-134148D01*
X471792Y-128482D01*
X482792Y-128482D01*
X482792Y-134148D01*
G37*
X42087Y-163864D02*
G54D37*
D03*
X64987Y-163864D02*
G54D37*
D03*
X87887Y-163864D02*
G54D37*
D03*
X434000Y-397000D02*
G54D37*
D03*
G36*
X444000Y-322000D02*
X444000Y-342000D01*
X424000Y-342000D01*
X424000Y-322000D01*
X444000Y-322000D01*
G37*
G54D38*
X459369Y-259851D02*
X430369Y-259851D01*
G54D38*
X459369Y-164851D02*
X430369Y-164851D01*
X369869Y-212351D02*
G54D39*
D03*
X369869Y-237351D02*
G54D39*
D03*
X369869Y-187351D02*
G54D39*
D03*
X215421Y-347113D02*
G54D40*
D03*
X240821Y-347113D02*
G54D40*
D03*
X266221Y-347113D02*
G54D40*
D03*
G36*
X283621Y-355113D02*
X283621Y-339113D01*
X299621Y-339113D01*
X299621Y-355113D01*
X283621Y-355113D01*
G37*
X215409Y-378945D02*
G54D40*
D03*
X240809Y-378945D02*
G54D40*
D03*
X266209Y-378945D02*
G54D40*
D03*
G36*
X283609Y-386945D02*
X283609Y-370945D01*
X299609Y-370945D01*
X299609Y-386945D01*
X283609Y-386945D01*
G37*
X108000Y-221000D02*
G54D41*
D03*
X138956Y-221000D02*
G54D41*
D03*
X123875Y-200363D02*
G54D41*
D03*
X140047Y-156301D02*
G54D41*
D03*
G36*
X148046Y-168301D02*
X148046Y-184301D01*
X132046Y-184301D01*
X132046Y-168301D01*
X148046Y-168301D01*
G37*
X381089Y-45892D02*
G54D42*
D03*
X381089Y-105892D02*
G54D42*
D03*
X331289Y-80992D02*
G54D43*
D03*
G36*
X90666Y-269045D02*
X90666Y-253045D01*
X106666Y-253045D01*
X106666Y-269045D01*
X90666Y-269045D01*
G37*
X124066Y-261045D02*
G54D40*
D03*
X149466Y-261045D02*
G54D40*
D03*
X174866Y-261045D02*
G54D40*
D03*
X200266Y-261045D02*
G54D40*
D03*
X88458Y-192149D02*
G54D41*
D03*
X37658Y-192149D02*
G54D41*
D03*
X39490Y-135388D02*
G54D37*
D03*
X64890Y-135388D02*
G54D37*
D03*
X90290Y-135388D02*
G54D37*
D03*
X347000Y-141000D02*
G54D41*
D03*
G36*
X335000Y-149000D02*
X319000Y-149000D01*
X319000Y-133000D01*
X335000Y-133000D01*
X335000Y-149000D01*
G37*
X189000Y-210000D02*
G54D44*
D03*
X241000Y-241000D02*
G54D44*
D03*
G36*
X324163Y-446857D02*
X324163Y-462857D01*
X308163Y-462857D01*
X308163Y-446857D01*
X324163Y-446857D01*
G37*
X290763Y-454857D02*
G54D40*
D03*
X265363Y-454857D02*
G54D40*
D03*
X239963Y-454857D02*
G54D40*
D03*
X214563Y-454857D02*
G54D40*
D03*
X189163Y-454857D02*
G54D40*
D03*
X163763Y-454857D02*
G54D40*
D03*
X138363Y-454857D02*
G54D40*
D03*
X156000Y-290000D02*
G54D44*
D03*
X39000Y-264000D02*
G54D44*
D03*
X215421Y-410113D02*
G54D40*
D03*
X240821Y-410113D02*
G54D40*
D03*
X266221Y-410113D02*
G54D40*
D03*
G36*
X283621Y-418113D02*
X283621Y-402113D01*
X299621Y-402113D01*
X299621Y-418113D01*
X283621Y-418113D01*
G37*
X47000Y-213000D02*
G54D44*
D03*
X113000Y-455000D02*
G54D40*
D03*
X215421Y-294113D02*
G54D40*
D03*
X240821Y-294113D02*
G54D40*
D03*
X266221Y-294113D02*
G54D40*
D03*
G54D45*
X98666Y-261045D02*
X98666Y-282666D01*
X106000Y-290000D01*
X156000Y-290000D01*
X158000Y-375000D02*
G54D44*
D03*
G54D23*
X159000Y-375000D02*
X159000Y-409000D01*
X177000Y-427000D01*
X224000Y-427000D01*
X240000Y-443000D01*
X240000Y-454820D01*
X239963Y-454857D01*
G54D23*
X214563Y-454857D02*
X214563Y-435563D01*
X211000Y-432000D01*
X175000Y-432000D01*
X154000Y-411000D01*
X154000Y-383000D01*
X151000Y-380000D01*
X151000Y-369000D01*
X157486Y-362514D01*
X157486Y-362514D02*
G54D44*
D03*
G54D46*
X47000Y-213000D02*
X47000Y-256000D01*
X39000Y-264000D01*
X346000Y-469000D02*
G54D44*
D03*
G54D46*
X138363Y-454857D02*
X138363Y-477363D01*
X145000Y-484000D01*
X340000Y-484000D01*
X346000Y-478000D01*
X346000Y-469000D01*
X229000Y-279000D02*
G54D44*
D03*
X127000Y-306000D02*
G54D44*
D03*
X241000Y-219000D02*
G54D44*
D03*
G54D23*
X127000Y-306000D02*
X222634Y-306000D01*
X228121Y-300513D01*
X228121Y-279879D01*
X229000Y-279000D01*
X109000Y-375000D02*
G54D44*
D03*
X123000Y-388000D02*
G54D44*
D03*
X278000Y-257500D02*
G54D44*
D03*
X269000Y-255000D02*
G54D44*
D03*
G54D23*
X277000Y-257000D02*
X284000Y-264000D01*
X284000Y-311000D01*
X275000Y-320000D01*
X255000Y-320000D01*
X241000Y-334000D01*
X241000Y-356000D01*
X235000Y-362000D01*
X211500Y-362000D01*
X203500Y-354000D01*
X131000Y-354000D01*
X123000Y-362000D01*
X123000Y-388000D01*
G54D23*
X109000Y-375000D02*
X115000Y-369000D01*
X115000Y-361000D01*
X129000Y-347000D01*
X215000Y-347000D01*
X216000Y-347000D01*
X249000Y-314000D01*
X273000Y-314000D01*
X278000Y-309000D01*
X278000Y-269000D01*
X269000Y-260000D01*
X269000Y-255000D01*
X106000Y-241000D02*
G54D44*
D03*
X317000Y-338000D02*
G54D44*
D03*
X333000Y-356000D02*
G54D44*
D03*
X174520Y-159740D02*
G54D40*
D03*
X174520Y-235940D02*
G54D40*
D03*
X189000Y-223000D02*
G54D44*
D03*
X203000Y-223000D02*
G54D44*
D03*
G54D28*
X174520Y-235940D02*
X218060Y-235940D01*
X223000Y-231000D01*
X223000Y-216500D01*
X233500Y-206000D01*
X278500Y-206000D01*
X306000Y-233500D01*
X306000Y-332734D01*
X291621Y-347113D01*
X133089Y-43892D02*
G54D42*
D03*
X133089Y-103892D02*
G54D42*
D03*
X83289Y-78992D02*
G54D43*
D03*
X406592Y-131314D02*
G54D47*
D03*
X482792Y-131315D02*
G54D47*
D03*
X256000Y-257000D02*
G54D44*
D03*
X245000Y-257000D02*
G54D44*
D03*
G54D25*
X133089Y-43892D02*
X133089Y-54911D01*
X112000Y-76000D01*
X95000Y-110000D01*
G54D25*
X95000Y-110000D02*
X76000Y-110000D01*
X65000Y-121000D01*
X65000Y-135278D01*
X64890Y-135388D01*
M02*
