%FSLAX34Y34*%
%MOMM*%
%LNCOPPER_TOP*%
G71*
G01*
%ADD10C, 2.400*%
%ADD11C, 0.200*%
%ADD12C, 3.300*%
%ADD13C, 2.400*%
%ADD14C, 2.000*%
%ADD15C, 2.000*%
%ADD16C, 4.900*%
%ADD17C, 3.700*%
%ADD18C, 1.600*%
%ADD19C, 1.100*%
%ADD20C, 0.700*%
%ADD21C, 0.900*%
%ADD22C, 0.660*%
%ADD23C, 0.260*%
%ADD24C, 0.150*%
%ADD25C, 0.206*%
%ADD26C, 2.100*%
%ADD27C, 1.400*%
%ADD28C, 1.000*%
%ADD29C, 0.600*%
%ADD30C, 0.667*%
%ADD31C, 0.967*%
%ADD32C, 0.533*%
%ADD33C, 1.500*%
%ADD34C, 0.233*%
%ADD35C, 0.567*%
%ADD36C, 2.000*%
%ADD37C, 2.900*%
%ADD38C, 2.000*%
%ADD39C, 1.600*%
%ADD40C, 1.600*%
%ADD41C, 4.500*%
%ADD42C, 3.300*%
%ADD43C, 0.700*%
%ADD44C, 0.300*%
%ADD45C, 0.500*%
%ADD46C, 1.700*%
%LPD*%
G36*
X-4000Y3000D02*
X546000Y3000D01*
X546000Y-547000D01*
X-4000Y-547000D01*
X-4000Y3000D01*
G37*
%LPC*%
X39119Y-164850D02*
G54D10*
D03*
X62019Y-164850D02*
G54D10*
D03*
X84919Y-164850D02*
G54D10*
D03*
G54D11*
G75*
G01X69983Y-39986D02*
G03X69983Y-39986I-30000J0D01*
G01*
G36*
G75*
G01X69983Y-39986D02*
G03X69983Y-39986I-30000J0D01*
G01*
G37*
X69983Y-39986D01*
X431033Y-397986D02*
G54D10*
D03*
G36*
X443033Y-320986D02*
X443033Y-344986D01*
X419033Y-344986D01*
X419033Y-320986D01*
X443033Y-320986D01*
G37*
G54D12*
X456402Y-260837D02*
X427402Y-260837D01*
G54D12*
X456402Y-165837D02*
X427402Y-165837D01*
X366902Y-213337D02*
G54D13*
D03*
X366902Y-238337D02*
G54D13*
D03*
X366902Y-188337D02*
G54D13*
D03*
X212453Y-348099D02*
G54D14*
D03*
X237853Y-348099D02*
G54D14*
D03*
X263254Y-348099D02*
G54D14*
D03*
G36*
X278653Y-358099D02*
X278653Y-338099D01*
X298653Y-338099D01*
X298653Y-358099D01*
X278653Y-358099D01*
G37*
X212441Y-379931D02*
G54D14*
D03*
X237842Y-379931D02*
G54D14*
D03*
X263242Y-379931D02*
G54D14*
D03*
G36*
X278642Y-389931D02*
X278642Y-369931D01*
X298642Y-369931D01*
X298642Y-389931D01*
X278642Y-389931D01*
G37*
X105033Y-221986D02*
G54D15*
D03*
X135989Y-221986D02*
G54D15*
D03*
X120907Y-201349D02*
G54D15*
D03*
X137080Y-157287D02*
G54D15*
D03*
G36*
X147079Y-167287D02*
X147079Y-187287D01*
X127079Y-187287D01*
X127079Y-167287D01*
X147079Y-167287D01*
G37*
X378122Y-46878D02*
G54D16*
D03*
X378122Y-106878D02*
G54D16*
D03*
X328322Y-81978D02*
G54D17*
D03*
G36*
X85698Y-272031D02*
X85698Y-252031D01*
X105698Y-252031D01*
X105698Y-272031D01*
X85698Y-272031D01*
G37*
X121098Y-262031D02*
G54D14*
D03*
X146499Y-262031D02*
G54D14*
D03*
X171898Y-262031D02*
G54D14*
D03*
X197298Y-262031D02*
G54D14*
D03*
X85491Y-193135D02*
G54D15*
D03*
X34691Y-193135D02*
G54D15*
D03*
X36522Y-136374D02*
G54D10*
D03*
X61922Y-136374D02*
G54D10*
D03*
X87322Y-136374D02*
G54D10*
D03*
G54D18*
X20033Y14D02*
X480033Y14D01*
G54D18*
G75*
G01X20033Y14D02*
G03X33Y-19986I0J-20000D01*
G01*
G54D18*
G75*
G01X500033Y-19986D02*
G03X480033Y14I-20000J0D01*
G01*
G54D18*
X33Y-19986D02*
X33Y-479986D01*
G54D18*
G75*
G01X33Y-479986D02*
G03X20033Y-499986I20000J0D01*
G01*
G54D18*
X500033Y-19986D02*
X500033Y-479986D01*
G54D18*
G75*
G01X480033Y-499986D02*
G03X500033Y-479986I0J20000D01*
G01*
G54D18*
X20033Y-499986D02*
X480033Y-499986D01*
X344033Y-141986D02*
G54D15*
D03*
G36*
X334033Y-151986D02*
X314033Y-151986D01*
X314033Y-131986D01*
X334033Y-131986D01*
X334033Y-151986D01*
G37*
G36*
X323196Y-445843D02*
X323196Y-465843D01*
X303196Y-465843D01*
X303196Y-445843D01*
X323196Y-445843D01*
G37*
X287796Y-455843D02*
G54D14*
D03*
X262396Y-455844D02*
G54D14*
D03*
X236996Y-455843D02*
G54D14*
D03*
X211596Y-455843D02*
G54D14*
D03*
X186196Y-455843D02*
G54D14*
D03*
X160796Y-455844D02*
G54D14*
D03*
X135396Y-455844D02*
G54D14*
D03*
X153033Y-290986D02*
G54D19*
D03*
X36033Y-264986D02*
G54D19*
D03*
X212453Y-411099D02*
G54D14*
D03*
X237853Y-411099D02*
G54D14*
D03*
X263254Y-411099D02*
G54D14*
D03*
G36*
X278653Y-421099D02*
X278653Y-401099D01*
X298653Y-401099D01*
X298653Y-421099D01*
X278653Y-421099D01*
G37*
X44033Y-213986D02*
G54D19*
D03*
X110033Y-455986D02*
G54D14*
D03*
X212454Y-295099D02*
G54D14*
D03*
X237853Y-295099D02*
G54D14*
D03*
X263253Y-295099D02*
G54D14*
D03*
G54D20*
X95698Y-262031D02*
X95698Y-283652D01*
X103033Y-290986D01*
X153033Y-290986D01*
G54D21*
X44033Y-213986D02*
X44033Y-256986D01*
X36033Y-264986D01*
X343033Y-469986D02*
G54D19*
D03*
G54D21*
X135396Y-455844D02*
X135396Y-478350D01*
X142033Y-484986D01*
X337033Y-484986D01*
X343033Y-478986D01*
X343033Y-469986D01*
X226033Y-279986D02*
G54D19*
D03*
G54D22*
X124033Y-306986D02*
X219666Y-306986D01*
X225153Y-301499D01*
X225153Y-280866D01*
X226033Y-279986D01*
X106033Y-375986D02*
G54D19*
D03*
X119239Y-388510D02*
G54D19*
D03*
X275033Y-258486D02*
G54D19*
D03*
X266033Y-255986D02*
G54D19*
D03*
G54D22*
X273258Y-258161D02*
X281195Y-264511D01*
X281195Y-312136D01*
X271670Y-321661D01*
X252620Y-321661D01*
X238333Y-334361D01*
X238333Y-356586D01*
X231983Y-362936D01*
X204995Y-362936D01*
X190708Y-348649D01*
X135145Y-348649D01*
X119270Y-364524D01*
X119270Y-388336D01*
G54D22*
X106570Y-375636D02*
X111333Y-369286D01*
X111333Y-361349D01*
X130383Y-342299D01*
X192295Y-342299D01*
X198645Y-348649D01*
X211345Y-348649D01*
X212933Y-348649D01*
X246270Y-315311D01*
X270083Y-315311D01*
X274845Y-310549D01*
X274845Y-269274D01*
X265320Y-261336D01*
X265320Y-256574D01*
G54D23*
X305033Y-138986D02*
X314033Y-147986D01*
X332033Y-147986D01*
X344033Y-159986D01*
X500033Y-159986D01*
G54D23*
X87322Y-136374D02*
X5420Y-136374D01*
G54D23*
X305117Y-139272D02*
X100318Y-139272D01*
X87322Y-136374D01*
G36*
X111333Y-361349D02*
X119270Y-362936D01*
X135145Y-348649D01*
X190708Y-348649D01*
X198166Y-356037D01*
X198645Y-348649D01*
X192295Y-342299D01*
X130383Y-342299D01*
X111333Y-361349D01*
G37*
G54D24*
X111333Y-361349D02*
X119270Y-362936D01*
X135145Y-348649D01*
X190708Y-348649D01*
X198166Y-356037D01*
X198645Y-348649D01*
X192295Y-342299D01*
X130383Y-342299D01*
X111333Y-361349D01*
G36*
X266033Y-255986D02*
X272033Y-255986D01*
X274033Y-257986D01*
X281033Y-264986D01*
X281033Y-278986D01*
X280033Y-279986D01*
X275033Y-279986D01*
X275033Y-269986D01*
X266033Y-255986D01*
G37*
G54D24*
X266033Y-255986D02*
X272033Y-255986D01*
X274033Y-257986D01*
X281033Y-264986D01*
X281033Y-278986D01*
X280033Y-279986D01*
X275033Y-279986D01*
X275033Y-269986D01*
X266033Y-255986D01*
X171552Y-160726D02*
G54D14*
D03*
X171552Y-236926D02*
G54D14*
D03*
G36*
X220533Y-297486D02*
X220533Y-299986D01*
X214533Y-305986D01*
X218666Y-305986D01*
X219666Y-306986D01*
X225153Y-301499D01*
X220533Y-297486D01*
G37*
G54D11*
X220533Y-297486D02*
X220533Y-299986D01*
X214533Y-305986D01*
X218666Y-305986D01*
X219666Y-306986D01*
X225153Y-301499D01*
X220533Y-297486D01*
G54D25*
X396593Y-484764D02*
X396593Y-473209D01*
G54D25*
X394282Y-473209D02*
X398904Y-473209D01*
G54D25*
X407570Y-475375D02*
X407570Y-482598D01*
X406992Y-484042D01*
X405836Y-484764D01*
X404681Y-484764D01*
X403525Y-484042D01*
X402948Y-482598D01*
X402948Y-475375D01*
X403525Y-473931D01*
X404681Y-473209D01*
X405836Y-473209D01*
X406992Y-473931D01*
X407570Y-475375D01*
G54D25*
X411614Y-484764D02*
X411614Y-473209D01*
X414502Y-473209D01*
X415658Y-473931D01*
X416236Y-475375D01*
X416236Y-476820D01*
X415658Y-478264D01*
X414502Y-478987D01*
X411614Y-478987D01*
X130122Y-44878D02*
G54D16*
D03*
X130122Y-104878D02*
G54D16*
D03*
X80322Y-79978D02*
G54D17*
D03*
X403625Y-132301D02*
G54D26*
D03*
X479825Y-132301D02*
G54D26*
D03*
G54D11*
G75*
G01X490033Y-39986D02*
G03X490033Y-39986I-30000J0D01*
G01*
G36*
G75*
G01X490033Y-39986D02*
G03X490033Y-39986I-30000J0D01*
G01*
G37*
X490033Y-39986D01*
G54D11*
G75*
G01X490033Y-459986D02*
G03X490033Y-459986I-30000J0D01*
G01*
G36*
G75*
G01X490033Y-459986D02*
G03X490033Y-459986I-30000J0D01*
G01*
G37*
X490033Y-459986D01*
G54D11*
G75*
G01X70033Y-459986D02*
G03X70033Y-459986I-30000J0D01*
G01*
G36*
G75*
G01X70033Y-459986D02*
G03X70033Y-459986I-30000J0D01*
G01*
G37*
X70033Y-459986D01*
X253033Y-257986D02*
G54D19*
D03*
X242033Y-257986D02*
G54D19*
D03*
G54D27*
X130122Y-44878D02*
X130122Y-55897D01*
X109033Y-76986D01*
X96624Y-102092D01*
G54D27*
X85033Y-110986D02*
X73033Y-110986D01*
X62033Y-121986D01*
X62033Y-136264D01*
X61922Y-136374D01*
G54D27*
G75*
G01X85033Y-110986D02*
G03X96624Y-102092I0J12000D01*
G01*
G36*
X198645Y-348649D02*
X212933Y-348649D01*
X246270Y-315311D01*
X252620Y-321661D01*
X251033Y-321661D01*
X236745Y-335949D01*
X236745Y-358174D01*
X231983Y-362936D01*
X204995Y-362936D01*
X197058Y-354999D01*
X198645Y-348649D01*
G37*
G54D24*
X198645Y-348649D02*
X212933Y-348649D01*
X246270Y-315311D01*
X252620Y-321661D01*
X251033Y-321661D01*
X236745Y-335949D01*
X236745Y-358174D01*
X231983Y-362936D01*
X204995Y-362936D01*
X197058Y-354999D01*
X198645Y-348649D01*
G54D22*
X124033Y-306986D02*
X122033Y-306986D01*
X108033Y-320986D01*
X108033Y-353286D01*
X108158Y-353411D01*
X108033Y-353286D02*
G54D19*
D03*
X199483Y-420436D02*
G54D19*
D03*
X186783Y-420436D02*
G54D19*
D03*
G54D22*
X186783Y-420436D02*
X189133Y-420436D01*
X211596Y-442900D01*
X211596Y-455843D01*
G36*
X199483Y-420436D02*
X199483Y-422424D01*
X195470Y-426436D01*
X211596Y-442900D01*
X216108Y-439594D01*
X208628Y-429611D01*
X199483Y-420436D01*
G37*
G54D24*
X199483Y-420436D02*
X199483Y-422424D01*
X195470Y-426436D01*
X211596Y-442900D01*
X216108Y-439594D01*
X208628Y-429611D01*
X199483Y-420436D01*
G54D22*
X199483Y-420436D02*
X199483Y-420924D01*
X219283Y-440724D01*
X231983Y-440724D01*
X236745Y-445486D01*
X236745Y-455593D01*
X236996Y-455843D01*
G54D28*
X227220Y-259749D02*
X227220Y-248636D01*
X239920Y-235936D01*
X278020Y-235936D01*
X293895Y-251811D01*
X293895Y-289911D01*
X293895Y-289911D02*
G54D19*
D03*
X227220Y-259749D02*
G54D19*
D03*
G36*
X549533Y-498486D02*
X548533Y-547486D01*
X-3467Y-546486D01*
X-4467Y-498486D01*
X549533Y-498486D01*
G37*
G54D29*
X549533Y-498486D02*
X548533Y-547486D01*
X-3467Y-546486D01*
X-4467Y-498486D01*
X549533Y-498486D01*
G36*
X545533Y3514D02*
X545533Y-547486D01*
X498533Y-546486D01*
X498533Y3514D01*
X545533Y3514D01*
G37*
G54D29*
X545533Y3514D02*
X545533Y-547486D01*
X498533Y-546486D01*
X498533Y3514D01*
X545533Y3514D01*
G36*
X-1467Y-529486D02*
X-21467Y-529486D01*
X-21467Y10514D01*
X-1467Y10514D01*
X-1467Y-529486D01*
G37*
G54D29*
X-1467Y-529486D02*
X-21467Y-529486D01*
X-21467Y10514D01*
X-1467Y10514D01*
X-1467Y-529486D01*
G36*
X-21467Y10514D02*
X528533Y10514D01*
X528533Y514D01*
X-21467Y514D01*
X-21467Y10514D01*
G37*
G54D29*
X-21467Y10514D02*
X528533Y10514D01*
X528533Y514D01*
X-21467Y514D01*
X-21467Y10514D01*
%LPD*%
G54D30*
G36*
X431033Y-394653D02*
X443533Y-394653D01*
X443533Y-401320D01*
X431033Y-401320D01*
X431033Y-394653D01*
G37*
G36*
X434366Y-397986D02*
X434366Y-410486D01*
X427699Y-410486D01*
X427699Y-397986D01*
X434366Y-397986D01*
G37*
G36*
X431033Y-401320D02*
X418533Y-401320D01*
X418533Y-394653D01*
X431033Y-394653D01*
X431033Y-401320D01*
G37*
G36*
X427699Y-397986D02*
X427699Y-385486D01*
X434366Y-385486D01*
X434366Y-397986D01*
X427699Y-397986D01*
G37*
G54D31*
G36*
X441902Y-256004D02*
X473402Y-256004D01*
X473402Y-265671D01*
X441902Y-265671D01*
X441902Y-256004D01*
G37*
G36*
X446735Y-260837D02*
X446735Y-277837D01*
X437068Y-277837D01*
X437068Y-260837D01*
X446735Y-260837D01*
G37*
G36*
X441902Y-265671D02*
X410402Y-265671D01*
X410402Y-256004D01*
X441902Y-256004D01*
X441902Y-265671D01*
G37*
G36*
X437068Y-260837D02*
X437068Y-243837D01*
X446735Y-243837D01*
X446735Y-260837D01*
X437068Y-260837D01*
G37*
G54D31*
G36*
X441902Y-161004D02*
X473402Y-161004D01*
X473402Y-170671D01*
X441902Y-170671D01*
X441902Y-161004D01*
G37*
G36*
X446735Y-165837D02*
X446735Y-182837D01*
X437068Y-182837D01*
X437068Y-165837D01*
X446735Y-165837D01*
G37*
G36*
X441902Y-170671D02*
X410402Y-170671D01*
X410402Y-161004D01*
X441902Y-161004D01*
X441902Y-170671D01*
G37*
G54D30*
G36*
X366902Y-185004D02*
X379402Y-185004D01*
X379402Y-191671D01*
X366902Y-191671D01*
X366902Y-185004D01*
G37*
G36*
X370235Y-188337D02*
X370235Y-200837D01*
X363568Y-200837D01*
X363568Y-188337D01*
X370235Y-188337D01*
G37*
G36*
X366902Y-191671D02*
X354402Y-191671D01*
X354402Y-185004D01*
X366902Y-185004D01*
X366902Y-191671D01*
G37*
G36*
X363568Y-188337D02*
X363568Y-175837D01*
X370235Y-175837D01*
X370235Y-188337D01*
X363568Y-188337D01*
G37*
G54D32*
G36*
X263254Y-350766D02*
X252754Y-350766D01*
X252754Y-345433D01*
X263254Y-345433D01*
X263254Y-350766D01*
G37*
G36*
X260587Y-348099D02*
X260587Y-337599D01*
X265920Y-337599D01*
X265920Y-348099D01*
X260587Y-348099D01*
G37*
G36*
X263254Y-345433D02*
X273754Y-345433D01*
X273754Y-350766D01*
X263254Y-350766D01*
X263254Y-345433D01*
G37*
G36*
X265920Y-348099D02*
X265920Y-358599D01*
X260587Y-358599D01*
X260587Y-348099D01*
X265920Y-348099D01*
G37*
G54D32*
G36*
X263242Y-382598D02*
X252742Y-382598D01*
X252742Y-377265D01*
X263242Y-377265D01*
X263242Y-382598D01*
G37*
G36*
X260575Y-379931D02*
X260575Y-369431D01*
X265908Y-369431D01*
X265908Y-379931D01*
X260575Y-379931D01*
G37*
G36*
X263242Y-377265D02*
X273742Y-377265D01*
X273742Y-382598D01*
X263242Y-382598D01*
X263242Y-377265D01*
G37*
G36*
X265908Y-379931D02*
X265908Y-390431D01*
X260575Y-390431D01*
X260575Y-379931D01*
X265908Y-379931D01*
G37*
G54D32*
G36*
X118241Y-201349D02*
X118241Y-190849D01*
X123574Y-190849D01*
X123574Y-201349D01*
X118241Y-201349D01*
G37*
G36*
X120907Y-198682D02*
X131407Y-198682D01*
X131407Y-204016D01*
X120907Y-204016D01*
X120907Y-198682D01*
G37*
G36*
X123574Y-201349D02*
X123574Y-211849D01*
X118241Y-211849D01*
X118241Y-201349D01*
X123574Y-201349D01*
G37*
G36*
X120907Y-204016D02*
X110407Y-204016D01*
X110407Y-198682D01*
X120907Y-198682D01*
X120907Y-204016D01*
G37*
G54D32*
G36*
X137080Y-154621D02*
X147580Y-154621D01*
X147580Y-159954D01*
X137080Y-159954D01*
X137080Y-154621D01*
G37*
G36*
X137080Y-159954D02*
X126580Y-159954D01*
X126580Y-154621D01*
X137080Y-154621D01*
X137080Y-159954D01*
G37*
G36*
X134413Y-157287D02*
X134413Y-146787D01*
X139746Y-146787D01*
X139746Y-157287D01*
X134413Y-157287D01*
G37*
G54D33*
G36*
X378122Y-99378D02*
X403122Y-99378D01*
X403122Y-114378D01*
X378122Y-114378D01*
X378122Y-99378D01*
G37*
G36*
X385622Y-106878D02*
X385622Y-131878D01*
X370622Y-131878D01*
X370622Y-106878D01*
X385622Y-106878D01*
G37*
G36*
X378122Y-114378D02*
X353122Y-114378D01*
X353122Y-99378D01*
X378122Y-99378D01*
X378122Y-114378D01*
G37*
G36*
X370622Y-106878D02*
X370622Y-81878D01*
X385622Y-81878D01*
X385622Y-106878D01*
X370622Y-106878D01*
G37*
G54D32*
G36*
X146499Y-264698D02*
X135999Y-264698D01*
X135999Y-259365D01*
X146499Y-259365D01*
X146499Y-264698D01*
G37*
G36*
X143832Y-262031D02*
X143832Y-251531D01*
X149165Y-251531D01*
X149165Y-262031D01*
X143832Y-262031D01*
G37*
G36*
X146499Y-259365D02*
X156999Y-259365D01*
X156999Y-264698D01*
X146499Y-264698D01*
X146499Y-259365D01*
G37*
G36*
X149165Y-262031D02*
X149165Y-272531D01*
X143832Y-272531D01*
X143832Y-262031D01*
X149165Y-262031D01*
G37*
G54D32*
G36*
X346699Y-141986D02*
X346699Y-152486D01*
X341366Y-152486D01*
X341366Y-141986D01*
X346699Y-141986D01*
G37*
G36*
X344033Y-144653D02*
X333533Y-144653D01*
X333533Y-139320D01*
X344033Y-139320D01*
X344033Y-144653D01*
G37*
G36*
X341366Y-141986D02*
X341366Y-131486D01*
X346699Y-131486D01*
X346699Y-141986D01*
X341366Y-141986D01*
G37*
G36*
X344033Y-139320D02*
X354533Y-139320D01*
X354533Y-144653D01*
X344033Y-144653D01*
X344033Y-139320D01*
G37*
G54D34*
G36*
X186366Y-199424D02*
X186366Y-195424D01*
X188699Y-195424D01*
X188699Y-199424D01*
X186366Y-199424D01*
G37*
G36*
X187533Y-198257D02*
X191533Y-198257D01*
X191533Y-200590D01*
X187533Y-200590D01*
X187533Y-198257D01*
G37*
G36*
X188699Y-199424D02*
X188699Y-203424D01*
X186366Y-203424D01*
X186366Y-199424D01*
X188699Y-199424D01*
G37*
G36*
X187533Y-200590D02*
X183533Y-200590D01*
X183533Y-198257D01*
X187533Y-198257D01*
X187533Y-200590D01*
G37*
G54D34*
G36*
X241208Y-245582D02*
X245208Y-245582D01*
X245208Y-247916D01*
X241208Y-247916D01*
X241208Y-245582D01*
G37*
G36*
X242374Y-246749D02*
X242374Y-250749D01*
X240041Y-250749D01*
X240041Y-246749D01*
X242374Y-246749D01*
G37*
G54D32*
G36*
X287796Y-453177D02*
X298296Y-453177D01*
X298296Y-458510D01*
X287796Y-458510D01*
X287796Y-453177D01*
G37*
G36*
X290462Y-455843D02*
X290462Y-466343D01*
X285129Y-466343D01*
X285129Y-455843D01*
X290462Y-455843D01*
G37*
G36*
X287796Y-458510D02*
X277296Y-458510D01*
X277296Y-453177D01*
X287796Y-453177D01*
X287796Y-458510D01*
G37*
G36*
X285129Y-455843D02*
X285129Y-445343D01*
X290462Y-445343D01*
X290462Y-455843D01*
X285129Y-455843D01*
G37*
G54D32*
G36*
X263254Y-413766D02*
X252754Y-413766D01*
X252754Y-408433D01*
X263254Y-408433D01*
X263254Y-413766D01*
G37*
G36*
X260587Y-411099D02*
X260587Y-400599D01*
X265920Y-400599D01*
X265920Y-411099D01*
X260587Y-411099D01*
G37*
G36*
X263254Y-408433D02*
X273754Y-408433D01*
X273754Y-413766D01*
X263254Y-413766D01*
X263254Y-408433D01*
G37*
G36*
X265920Y-411099D02*
X265920Y-421599D01*
X260587Y-421599D01*
X260587Y-411099D01*
X265920Y-411099D01*
G37*
G54D32*
G36*
X212454Y-297766D02*
X201954Y-297766D01*
X201954Y-292433D01*
X212454Y-292433D01*
X212454Y-297766D01*
G37*
G36*
X209787Y-295099D02*
X209787Y-284599D01*
X215120Y-284599D01*
X215120Y-295099D01*
X209787Y-295099D01*
G37*
G54D34*
G36*
X236866Y-219986D02*
X236866Y-215986D01*
X239199Y-215986D01*
X239199Y-219986D01*
X236866Y-219986D01*
G37*
G36*
X238033Y-218820D02*
X242033Y-218820D01*
X242033Y-221153D01*
X238033Y-221153D01*
X238033Y-218820D01*
G37*
G36*
X239199Y-219986D02*
X239199Y-223986D01*
X236866Y-223986D01*
X236866Y-219986D01*
X239199Y-219986D01*
G37*
G36*
X238033Y-221153D02*
X234033Y-221153D01*
X234033Y-218820D01*
X238033Y-218820D01*
X238033Y-221153D01*
G37*
G54D34*
G36*
X100278Y-237224D02*
X100278Y-233224D01*
X102612Y-233224D01*
X102612Y-237224D01*
X100278Y-237224D01*
G37*
G36*
X101445Y-236057D02*
X105445Y-236057D01*
X105445Y-238390D01*
X101445Y-238390D01*
X101445Y-236057D01*
G37*
G36*
X102612Y-237224D02*
X102612Y-241224D01*
X100278Y-241224D01*
X100278Y-237224D01*
X102612Y-237224D01*
G37*
G36*
X101445Y-238390D02*
X97445Y-238390D01*
X97445Y-236057D01*
X101445Y-236057D01*
X101445Y-238390D01*
G37*
G54D34*
G36*
X311278Y-385024D02*
X311278Y-381024D01*
X313612Y-381024D01*
X313612Y-385024D01*
X311278Y-385024D01*
G37*
G36*
X312445Y-383857D02*
X316445Y-383857D01*
X316445Y-386190D01*
X312445Y-386190D01*
X312445Y-383857D01*
G37*
G36*
X313612Y-385024D02*
X313612Y-389024D01*
X311278Y-389024D01*
X311278Y-385024D01*
X313612Y-385024D01*
G37*
G36*
X312445Y-386190D02*
X308445Y-386190D01*
X308445Y-383857D01*
X312445Y-383857D01*
X312445Y-386190D01*
G37*
G54D34*
G36*
X327278Y-369686D02*
X327278Y-365686D01*
X329612Y-365686D01*
X329612Y-369686D01*
X327278Y-369686D01*
G37*
G36*
X328445Y-368520D02*
X332445Y-368520D01*
X332445Y-370853D01*
X328445Y-370853D01*
X328445Y-368520D01*
G37*
G36*
X329612Y-369686D02*
X329612Y-373686D01*
X327278Y-373686D01*
X327278Y-369686D01*
X329612Y-369686D01*
G37*
G36*
X328445Y-370853D02*
X324445Y-370853D01*
X324445Y-368520D01*
X328445Y-368520D01*
X328445Y-370853D01*
G37*
G54D34*
G36*
X186453Y-223986D02*
X186453Y-219986D01*
X188787Y-219986D01*
X188787Y-223986D01*
X186453Y-223986D01*
G37*
G36*
X187620Y-222820D02*
X191620Y-222820D01*
X191620Y-225153D01*
X187620Y-225153D01*
X187620Y-222820D01*
G37*
G36*
X188787Y-223986D02*
X188787Y-227986D01*
X186453Y-227986D01*
X186453Y-223986D01*
X188787Y-223986D01*
G37*
G36*
X187620Y-225153D02*
X183620Y-225153D01*
X183620Y-222820D01*
X187620Y-222820D01*
X187620Y-225153D01*
G37*
G54D34*
G36*
X202041Y-223986D02*
X202041Y-219986D01*
X204374Y-219986D01*
X204374Y-223986D01*
X202041Y-223986D01*
G37*
G36*
X203208Y-222820D02*
X207208Y-222820D01*
X207208Y-225153D01*
X203208Y-225153D01*
X203208Y-222820D01*
G37*
G36*
X204374Y-223986D02*
X204374Y-227986D01*
X202041Y-227986D01*
X202041Y-223986D01*
X204374Y-223986D01*
G37*
G36*
X203208Y-225153D02*
X199208Y-225153D01*
X199208Y-222820D01*
X203208Y-222820D01*
X203208Y-225153D01*
G37*
G54D33*
G36*
X130122Y-97378D02*
X155122Y-97378D01*
X155122Y-112378D01*
X130122Y-112378D01*
X130122Y-97378D01*
G37*
G36*
X137622Y-104878D02*
X137622Y-129878D01*
X122622Y-129878D01*
X122622Y-104878D01*
X137622Y-104878D01*
G37*
G36*
X122622Y-104878D02*
X122622Y-79878D01*
X137622Y-79878D01*
X137622Y-104878D01*
X122622Y-104878D01*
G37*
G54D35*
G36*
X476992Y-132301D02*
X476992Y-121301D01*
X482658Y-121301D01*
X482658Y-132301D01*
X476992Y-132301D01*
G37*
G36*
X479825Y-129468D02*
X490825Y-129468D01*
X490825Y-135135D01*
X479825Y-135135D01*
X479825Y-129468D01*
G37*
G36*
X482658Y-132301D02*
X482658Y-143301D01*
X476992Y-143301D01*
X476992Y-132301D01*
X482658Y-132301D01*
G37*
G36*
X479825Y-135135D02*
X468825Y-135135D01*
X468825Y-129468D01*
X479825Y-129468D01*
X479825Y-135135D01*
G37*
G54D34*
G36*
X103816Y-299436D02*
X103816Y-295436D01*
X106149Y-295436D01*
X106149Y-299436D01*
X103816Y-299436D01*
G37*
G36*
X104983Y-298270D02*
X108983Y-298270D01*
X108983Y-300603D01*
X104983Y-300603D01*
X104983Y-298270D01*
G37*
G36*
X106149Y-299436D02*
X106149Y-303436D01*
X103816Y-303436D01*
X103816Y-299436D01*
X106149Y-299436D01*
G37*
G36*
X104983Y-300603D02*
X100983Y-300603D01*
X100983Y-298270D01*
X104983Y-298270D01*
X104983Y-300603D01*
G37*
G54D34*
G36*
X116516Y-299436D02*
X116516Y-295436D01*
X118849Y-295436D01*
X118849Y-299436D01*
X116516Y-299436D01*
G37*
G36*
X117683Y-298270D02*
X121683Y-298270D01*
X121683Y-300603D01*
X117683Y-300603D01*
X117683Y-298270D01*
G37*
G36*
X118849Y-299436D02*
X118849Y-303436D01*
X116516Y-303436D01*
X116516Y-299436D01*
X118849Y-299436D01*
G37*
G36*
X117683Y-300603D02*
X113683Y-300603D01*
X113683Y-298270D01*
X117683Y-298270D01*
X117683Y-300603D01*
G37*
G54D34*
G36*
X116516Y-324836D02*
X116516Y-320836D01*
X118849Y-320836D01*
X118849Y-324836D01*
X116516Y-324836D01*
G37*
G36*
X117683Y-323670D02*
X121683Y-323670D01*
X121683Y-326003D01*
X117683Y-326003D01*
X117683Y-323670D01*
G37*
G36*
X118849Y-324836D02*
X118849Y-328836D01*
X116516Y-328836D01*
X116516Y-324836D01*
X118849Y-324836D01*
G37*
G36*
X117683Y-326003D02*
X113683Y-326003D01*
X113683Y-323670D01*
X117683Y-323670D01*
X117683Y-326003D01*
G37*
G54D34*
G36*
X133978Y-324836D02*
X133978Y-320836D01*
X136312Y-320836D01*
X136312Y-324836D01*
X133978Y-324836D01*
G37*
G36*
X135145Y-323670D02*
X139145Y-323670D01*
X139145Y-326003D01*
X135145Y-326003D01*
X135145Y-323670D01*
G37*
G36*
X136312Y-324836D02*
X136312Y-328836D01*
X133978Y-328836D01*
X133978Y-324836D01*
X136312Y-324836D01*
G37*
G36*
X135145Y-326003D02*
X131145Y-326003D01*
X131145Y-323670D01*
X135145Y-323670D01*
X135145Y-326003D01*
G37*
G54D34*
G36*
X151441Y-324836D02*
X151441Y-320836D01*
X153774Y-320836D01*
X153774Y-324836D01*
X151441Y-324836D01*
G37*
G36*
X152608Y-323670D02*
X156608Y-323670D01*
X156608Y-326003D01*
X152608Y-326003D01*
X152608Y-323670D01*
G37*
G36*
X153774Y-324836D02*
X153774Y-328836D01*
X151441Y-328836D01*
X151441Y-324836D01*
X153774Y-324836D01*
G37*
G36*
X152608Y-326003D02*
X148608Y-326003D01*
X148608Y-323670D01*
X152608Y-323670D01*
X152608Y-326003D01*
G37*
G54D34*
G36*
X129216Y-369286D02*
X129216Y-365286D01*
X131549Y-365286D01*
X131549Y-369286D01*
X129216Y-369286D01*
G37*
G36*
X130383Y-368120D02*
X134383Y-368120D01*
X134383Y-370453D01*
X130383Y-370453D01*
X130383Y-368120D01*
G37*
G36*
X131549Y-369286D02*
X131549Y-373286D01*
X129216Y-373286D01*
X129216Y-369286D01*
X131549Y-369286D01*
G37*
G36*
X130383Y-370453D02*
X126383Y-370453D01*
X126383Y-368120D01*
X130383Y-368120D01*
X130383Y-370453D01*
G37*
G54D34*
G36*
X141916Y-356586D02*
X141916Y-352586D01*
X144249Y-352586D01*
X144249Y-356586D01*
X141916Y-356586D01*
G37*
G36*
X143083Y-355420D02*
X147083Y-355420D01*
X147083Y-357753D01*
X143083Y-357753D01*
X143083Y-355420D01*
G37*
G36*
X144249Y-356586D02*
X144249Y-360586D01*
X141916Y-360586D01*
X141916Y-356586D01*
X144249Y-356586D01*
G37*
G36*
X143083Y-357753D02*
X139083Y-357753D01*
X139083Y-355420D01*
X143083Y-355420D01*
X143083Y-357753D01*
G37*
G54D34*
G36*
X129216Y-386749D02*
X129216Y-382749D01*
X131549Y-382749D01*
X131549Y-386749D01*
X129216Y-386749D01*
G37*
G36*
X130383Y-385582D02*
X134383Y-385582D01*
X134383Y-387916D01*
X130383Y-387916D01*
X130383Y-385582D01*
G37*
G36*
X131549Y-386749D02*
X131549Y-390749D01*
X129216Y-390749D01*
X129216Y-386749D01*
X131549Y-386749D01*
G37*
G36*
X130383Y-387916D02*
X126383Y-387916D01*
X126383Y-385582D01*
X130383Y-385582D01*
X130383Y-387916D01*
G37*
G54D34*
G36*
X129216Y-404211D02*
X129216Y-400211D01*
X131549Y-400211D01*
X131549Y-404211D01*
X129216Y-404211D01*
G37*
G36*
X130383Y-403045D02*
X134383Y-403045D01*
X134383Y-405378D01*
X130383Y-405378D01*
X130383Y-403045D01*
G37*
G36*
X131549Y-404211D02*
X131549Y-408211D01*
X129216Y-408211D01*
X129216Y-404211D01*
X131549Y-404211D01*
G37*
G36*
X130383Y-405378D02*
X126383Y-405378D01*
X126383Y-403045D01*
X130383Y-403045D01*
X130383Y-405378D01*
G37*
G54D34*
G36*
X65353Y-232461D02*
X65353Y-228461D01*
X67687Y-228461D01*
X67687Y-232461D01*
X65353Y-232461D01*
G37*
G36*
X66520Y-231295D02*
X70520Y-231295D01*
X70520Y-233628D01*
X66520Y-233628D01*
X66520Y-231295D01*
G37*
G36*
X67687Y-232461D02*
X67687Y-236461D01*
X65353Y-236461D01*
X65353Y-232461D01*
X67687Y-232461D01*
G37*
G36*
X66520Y-233628D02*
X62520Y-233628D01*
X62520Y-231295D01*
X66520Y-231295D01*
X66520Y-233628D01*
G37*
G54D34*
G36*
X16141Y-302311D02*
X16141Y-298311D01*
X18474Y-298311D01*
X18474Y-302311D01*
X16141Y-302311D01*
G37*
G36*
X17308Y-301145D02*
X21308Y-301145D01*
X21308Y-303478D01*
X17308Y-303478D01*
X17308Y-301145D01*
G37*
G36*
X18474Y-302311D02*
X18474Y-306311D01*
X16141Y-306311D01*
X16141Y-302311D01*
X18474Y-302311D01*
G37*
G36*
X17308Y-303478D02*
X13308Y-303478D01*
X13308Y-301145D01*
X17308Y-301145D01*
X17308Y-303478D01*
G37*
G54D34*
G36*
X41541Y-316599D02*
X41541Y-312599D01*
X43874Y-312599D01*
X43874Y-316599D01*
X41541Y-316599D01*
G37*
G36*
X42708Y-315432D02*
X46708Y-315432D01*
X46708Y-317766D01*
X42708Y-317766D01*
X42708Y-315432D01*
G37*
G36*
X43874Y-316599D02*
X43874Y-320599D01*
X41541Y-320599D01*
X41541Y-316599D01*
X43874Y-316599D01*
G37*
G36*
X42708Y-317766D02*
X38708Y-317766D01*
X38708Y-315432D01*
X42708Y-315432D01*
X42708Y-317766D01*
G37*
G54D34*
G36*
X25666Y-316599D02*
X25666Y-312599D01*
X27999Y-312599D01*
X27999Y-316599D01*
X25666Y-316599D01*
G37*
G36*
X26833Y-315432D02*
X30833Y-315432D01*
X30833Y-317766D01*
X26833Y-317766D01*
X26833Y-315432D01*
G37*
G36*
X27999Y-316599D02*
X27999Y-320599D01*
X25666Y-320599D01*
X25666Y-316599D01*
X27999Y-316599D01*
G37*
G36*
X26833Y-317766D02*
X22833Y-317766D01*
X22833Y-315432D01*
X26833Y-315432D01*
X26833Y-317766D01*
G37*
G54D34*
G36*
X153028Y-199424D02*
X153028Y-195424D01*
X155362Y-195424D01*
X155362Y-199424D01*
X153028Y-199424D01*
G37*
G36*
X154195Y-198257D02*
X158195Y-198257D01*
X158195Y-200590D01*
X154195Y-200590D01*
X154195Y-198257D01*
G37*
G36*
X155362Y-199424D02*
X155362Y-203424D01*
X153028Y-203424D01*
X153028Y-199424D01*
X155362Y-199424D01*
G37*
G36*
X154195Y-200590D02*
X150195Y-200590D01*
X150195Y-198257D01*
X154195Y-198257D01*
X154195Y-200590D01*
G37*
G54D34*
G36*
X170491Y-181961D02*
X170491Y-177961D01*
X172824Y-177961D01*
X172824Y-181961D01*
X170491Y-181961D01*
G37*
G36*
X171658Y-180795D02*
X175658Y-180795D01*
X175658Y-183128D01*
X171658Y-183128D01*
X171658Y-180795D01*
G37*
G36*
X172824Y-181961D02*
X172824Y-185961D01*
X170491Y-185961D01*
X170491Y-181961D01*
X172824Y-181961D01*
G37*
G36*
X171658Y-183128D02*
X167658Y-183128D01*
X167658Y-180795D01*
X171658Y-180795D01*
X171658Y-183128D01*
G37*
G54D34*
G36*
X79641Y-249924D02*
X79641Y-245924D01*
X81974Y-245924D01*
X81974Y-249924D01*
X79641Y-249924D01*
G37*
G36*
X80808Y-248757D02*
X84808Y-248757D01*
X84808Y-251090D01*
X80808Y-251090D01*
X80808Y-248757D01*
G37*
G36*
X81974Y-249924D02*
X81974Y-253924D01*
X79641Y-253924D01*
X79641Y-249924D01*
X81974Y-249924D01*
G37*
G36*
X80808Y-251090D02*
X76808Y-251090D01*
X76808Y-248757D01*
X80808Y-248757D01*
X80808Y-251090D01*
G37*
X39119Y-164850D02*
G54D36*
D03*
X62019Y-164850D02*
G54D36*
D03*
X84919Y-164850D02*
G54D36*
D03*
X431033Y-397986D02*
G54D36*
D03*
G36*
X441033Y-322986D02*
X441033Y-342986D01*
X421033Y-342986D01*
X421033Y-322986D01*
X441033Y-322986D01*
G37*
G54D37*
X456402Y-260837D02*
X427402Y-260837D01*
G54D37*
X456402Y-165837D02*
X427402Y-165837D01*
X366902Y-213337D02*
G54D38*
D03*
X366902Y-238337D02*
G54D38*
D03*
X366902Y-188337D02*
G54D38*
D03*
X212453Y-348099D02*
G54D39*
D03*
X237853Y-348099D02*
G54D39*
D03*
X263254Y-348099D02*
G54D39*
D03*
G36*
X280653Y-356099D02*
X280653Y-340099D01*
X296653Y-340099D01*
X296653Y-356099D01*
X280653Y-356099D01*
G37*
X212441Y-379931D02*
G54D39*
D03*
X237842Y-379931D02*
G54D39*
D03*
X263242Y-379931D02*
G54D39*
D03*
G36*
X280642Y-387931D02*
X280642Y-371931D01*
X296642Y-371931D01*
X296642Y-387931D01*
X280642Y-387931D01*
G37*
X105033Y-221986D02*
G54D40*
D03*
X135989Y-221986D02*
G54D40*
D03*
X120907Y-201349D02*
G54D40*
D03*
X137080Y-157287D02*
G54D40*
D03*
G36*
X145079Y-169287D02*
X145079Y-185287D01*
X129079Y-185287D01*
X129079Y-169287D01*
X145079Y-169287D01*
G37*
X378122Y-46878D02*
G54D41*
D03*
X378122Y-106878D02*
G54D41*
D03*
X328322Y-81978D02*
G54D42*
D03*
G36*
X87698Y-270031D02*
X87698Y-254031D01*
X103698Y-254031D01*
X103698Y-270031D01*
X87698Y-270031D01*
G37*
X121098Y-262031D02*
G54D39*
D03*
X146499Y-262031D02*
G54D39*
D03*
X171898Y-262031D02*
G54D39*
D03*
X197298Y-262031D02*
G54D39*
D03*
X85491Y-193135D02*
G54D40*
D03*
X34691Y-193135D02*
G54D40*
D03*
X36522Y-136374D02*
G54D36*
D03*
X61922Y-136374D02*
G54D36*
D03*
X87322Y-136374D02*
G54D36*
D03*
X344033Y-141986D02*
G54D40*
D03*
G36*
X332033Y-149986D02*
X316033Y-149986D01*
X316033Y-133986D01*
X332033Y-133986D01*
X332033Y-149986D01*
G37*
X187533Y-199424D02*
G54D43*
D03*
X241208Y-246749D02*
G54D43*
D03*
G36*
X321196Y-447843D02*
X321196Y-463843D01*
X305196Y-463843D01*
X305196Y-447843D01*
X321196Y-447843D01*
G37*
X287796Y-455843D02*
G54D39*
D03*
X262396Y-455844D02*
G54D39*
D03*
X236996Y-455843D02*
G54D39*
D03*
X211596Y-455843D02*
G54D39*
D03*
X186196Y-455843D02*
G54D39*
D03*
X160796Y-455844D02*
G54D39*
D03*
X135396Y-455844D02*
G54D39*
D03*
X153033Y-290986D02*
G54D43*
D03*
X36033Y-264986D02*
G54D43*
D03*
X212453Y-411099D02*
G54D39*
D03*
X237853Y-411099D02*
G54D39*
D03*
X263254Y-411099D02*
G54D39*
D03*
G36*
X280653Y-419099D02*
X280653Y-403099D01*
X296653Y-403099D01*
X296653Y-419099D01*
X280653Y-419099D01*
G37*
X44033Y-213986D02*
G54D43*
D03*
X110033Y-455986D02*
G54D39*
D03*
X212454Y-295099D02*
G54D39*
D03*
X237853Y-295099D02*
G54D39*
D03*
X263253Y-295099D02*
G54D39*
D03*
G54D44*
X95698Y-262031D02*
X95698Y-283652D01*
X103033Y-290986D01*
X153033Y-290986D01*
G54D45*
X44033Y-213986D02*
X44033Y-256986D01*
X36033Y-264986D01*
X343033Y-469986D02*
G54D43*
D03*
G54D45*
X135396Y-455844D02*
X135396Y-478350D01*
X142033Y-484986D01*
X337033Y-484986D01*
X343033Y-478986D01*
X343033Y-469986D01*
X226033Y-279986D02*
G54D43*
D03*
X238033Y-219986D02*
G54D43*
D03*
G54D23*
X124033Y-306986D02*
X219666Y-306986D01*
X225153Y-301499D01*
X225153Y-280866D01*
X226033Y-279986D01*
X106033Y-375986D02*
G54D43*
D03*
X119239Y-388510D02*
G54D43*
D03*
X275033Y-258486D02*
G54D43*
D03*
X266033Y-255986D02*
G54D43*
D03*
G54D23*
X273258Y-258161D02*
X281195Y-264511D01*
X281195Y-312136D01*
X271670Y-321661D01*
X252620Y-321661D01*
X238333Y-334361D01*
X238333Y-356586D01*
X231983Y-362936D01*
X204995Y-362936D01*
X190708Y-348649D01*
X135145Y-348649D01*
X119270Y-364524D01*
X119270Y-388336D01*
G54D23*
X106570Y-375636D02*
X111333Y-369286D01*
X111333Y-361349D01*
X130383Y-342299D01*
X192295Y-342299D01*
X198645Y-348649D01*
X211345Y-348649D01*
X212933Y-348649D01*
X246270Y-315311D01*
X270083Y-315311D01*
X274845Y-310549D01*
X274845Y-269274D01*
X265320Y-261336D01*
X265320Y-256574D01*
X101445Y-237224D02*
G54D43*
D03*
X312445Y-385024D02*
G54D43*
D03*
X328445Y-369686D02*
G54D43*
D03*
X171552Y-160726D02*
G54D39*
D03*
X171552Y-236926D02*
G54D39*
D03*
X187620Y-223986D02*
G54D43*
D03*
X203208Y-223986D02*
G54D43*
D03*
X130122Y-44878D02*
G54D41*
D03*
X130122Y-104878D02*
G54D41*
D03*
X80322Y-79978D02*
G54D42*
D03*
X403625Y-132301D02*
G54D46*
D03*
X479825Y-132301D02*
G54D46*
D03*
X253033Y-257986D02*
G54D43*
D03*
X242033Y-257986D02*
G54D43*
D03*
G54D28*
X130122Y-44878D02*
X130122Y-55897D01*
X109033Y-76986D01*
X96624Y-102092D01*
G54D28*
X85033Y-110986D02*
X73033Y-110986D01*
X62033Y-121986D01*
X62033Y-136264D01*
X61922Y-136374D01*
G54D28*
G75*
G01X85033Y-110986D02*
G03X96624Y-102092I0J12000D01*
G01*
X104983Y-299436D02*
G54D43*
D03*
X117683Y-299436D02*
G54D43*
D03*
G54D23*
X124033Y-306986D02*
X122033Y-306986D01*
X108033Y-320986D01*
X108033Y-353286D01*
X108158Y-353411D01*
X108033Y-353286D02*
G54D43*
D03*
X117683Y-324836D02*
G54D43*
D03*
X135145Y-324836D02*
G54D43*
D03*
X152608Y-324836D02*
G54D43*
D03*
X130383Y-369286D02*
G54D43*
D03*
X143083Y-356586D02*
G54D43*
D03*
X130383Y-386749D02*
G54D43*
D03*
X130383Y-404211D02*
G54D43*
D03*
X199483Y-420436D02*
G54D43*
D03*
X186783Y-420436D02*
G54D43*
D03*
G54D23*
X186783Y-420436D02*
X189133Y-420436D01*
X211596Y-442900D01*
X211596Y-455843D01*
G54D23*
X199483Y-420436D02*
X199483Y-420924D01*
X219283Y-440724D01*
X231983Y-440724D01*
X236745Y-445486D01*
X236745Y-455593D01*
X236996Y-455843D01*
X66520Y-232461D02*
G54D43*
D03*
X17308Y-302311D02*
G54D43*
D03*
X42708Y-316599D02*
G54D43*
D03*
X26833Y-316599D02*
G54D43*
D03*
G54D29*
X227220Y-259749D02*
X227220Y-248636D01*
X239920Y-235936D01*
X278020Y-235936D01*
X293895Y-251811D01*
X293895Y-289911D01*
X293895Y-289911D02*
G54D43*
D03*
X227220Y-259749D02*
G54D43*
D03*
X154195Y-199424D02*
G54D43*
D03*
X171658Y-181961D02*
G54D43*
D03*
X80808Y-249924D02*
G54D43*
D03*
X125620Y-283561D02*
G54D43*
D03*
X111333Y-283561D02*
G54D43*
D03*
M02*
