; Drill file
; Format: 3.3 (000.000)
M48
METRIC
T01C0.3
T02C0.8
T03C0.9
T04C1.0
T05C1.1
T06C2.0
T07C2.6
%
G05
G90
T01
X010.900Y-037.500
X012.300Y-038.800
X015.800Y-037.500
X015.750Y-036.250
X012.700Y-030.600
X015.600Y-029.000
X010.600Y-024.100
X004.700Y-021.300
X003.900Y-026.400
X018.900Y-022.300
X018.900Y-021.000
X020.300Y-022.300
X024.100Y-021.900
X024.100Y-024.100
X024.500Y-025.700
X025.600Y-025.700
X026.900Y-025.500
X027.800Y-025.750
X022.900Y-027.900
X031.700Y-033.800
X033.300Y-035.600
X034.600Y-046.900
T02
X010.800Y-022.100
X012.390Y-020.040
X013.900Y-022.100
X014.000Y-017.630
X014.000Y-015.630
X008.850Y-019.210
X003.770Y-019.210
X032.700Y-014.100
X034.700Y-014.100
T03
X011.300Y-045.500
X013.840Y-045.490
X016.380Y-045.490
X018.920Y-045.490
X021.460Y-045.490
X024.000Y-045.490
X026.540Y-045.490
X029.080Y-045.490
X031.620Y-045.490
X029.160Y-041.010
X026.620Y-041.010
X024.080Y-041.010
X021.540Y-041.010
X021.540Y-037.890
X024.080Y-037.890
X026.620Y-037.890
X029.160Y-037.890
X029.160Y-034.710
X026.620Y-034.710
X024.080Y-034.710
X021.540Y-034.710
X021.540Y-029.410
X024.080Y-029.410
X026.620Y-029.410
X020.030Y-026.100
X017.490Y-026.100
X017.450Y-023.590
X014.950Y-026.100
X012.410Y-026.100
X009.870Y-026.100
X017.450Y-015.970
T04
X004.210Y-016.390
X006.500Y-016.390
X008.790Y-016.390
X009.030Y-013.540
X006.490Y-013.540
X003.950Y-013.540
X040.660Y-013.130
X048.280Y-013.130
X043.400Y-033.200
X043.400Y-039.700
T05
X036.990Y-023.740
X036.990Y-021.240
X036.990Y-018.740
T06
X044.490Y-025.990
X044.490Y-016.490
T07
X013.310Y-010.390
X008.330Y-007.900
X013.310Y-004.390
X033.130Y-008.100
X038.110Y-010.590
X038.110Y-004.590
M30
