; Drill file
; Format: 3.3 (000.000)
M48
METRIC
T01C0.3
T02C0.8
T03C0.9
T04C1.0
T05C1.1
T06C2.0
T07C2.6
%
G05
G90
T01
X013.040Y-040.420
X013.040Y-038.670
X011.920Y-038.850
X010.600Y-037.600
X010.800Y-035.330
X013.040Y-036.930
X014.310Y-035.660
X013.510Y-032.480
X011.770Y-032.480
X011.770Y-029.940
X010.500Y-029.940
X011.130Y-028.360
X012.560Y-028.360
X015.300Y-029.100
X015.260Y-032.480
X022.600Y-028.000
X022.720Y-025.970
X024.200Y-025.800
X025.300Y-025.800
X026.600Y-025.600
X027.500Y-025.850
X024.120Y-024.670
X023.800Y-022.000
X020.320Y-022.400
X018.760Y-022.400
X018.750Y-019.940
X017.170Y-018.200
X015.420Y-019.940
X010.140Y-023.720
X008.080Y-024.990
X006.650Y-023.250
X004.400Y-021.400
X003.600Y-026.500
X001.730Y-030.230
X002.680Y-031.660
X004.270Y-031.660
X018.680Y-042.040
X019.950Y-042.040
X031.240Y-038.500
X032.840Y-036.970
X029.390Y-028.990
X034.300Y-047.000
T02
X010.500Y-022.200
X012.090Y-020.130
X013.600Y-022.200
X013.710Y-017.730
X013.710Y-015.730
X008.550Y-019.310
X003.470Y-019.310
X032.400Y-014.200
X034.400Y-014.200
T03
X011.000Y-045.600
X013.540Y-045.580
X016.080Y-045.580
X018.620Y-045.580
X021.160Y-045.580
X023.700Y-045.580
X026.240Y-045.580
X028.780Y-045.580
X031.320Y-045.580
X028.870Y-041.110
X026.330Y-041.110
X023.790Y-041.110
X021.250Y-041.110
X021.240Y-037.990
X023.780Y-037.990
X026.320Y-037.990
X028.860Y-037.990
X028.870Y-034.810
X026.330Y-034.810
X023.790Y-034.810
X021.250Y-034.810
X021.250Y-029.510
X023.790Y-029.510
X026.330Y-029.510
X019.730Y-026.200
X017.190Y-026.200
X017.160Y-023.690
X014.650Y-026.200
X012.110Y-026.200
X009.570Y-026.200
X017.160Y-016.070
T04
X003.910Y-016.480
X006.200Y-016.480
X008.490Y-016.480
X008.730Y-013.640
X006.190Y-013.640
X003.650Y-013.640
X040.360Y-013.230
X047.980Y-013.230
X043.100Y-033.300
X043.100Y-039.800
T05
X036.690Y-023.830
X036.690Y-021.330
X036.690Y-018.830
T06
X044.190Y-026.080
X044.190Y-016.580
T07
X013.010Y-010.490
X008.030Y-008.000
X013.010Y-004.490
X032.830Y-008.200
X037.810Y-010.690
X037.810Y-004.690
M30
