%FSLAX34Y34*%
%MOMM*%
%LNSILK_TOP*%
G71*
G01*
%ADD10C, 0.200*%
%ADD11C, 0.206*%
%ADD12C, 0.600*%
%ADD13C, 0.191*%
%ADD14C, 0.413*%
%ADD15C, 0.500*%
%ADD16C, 0.381*%
%ADD17C, 0.150*%
%ADD18C, 0.254*%
%LPD*%
G54D10*
X30087Y-149864D02*
X100087Y-149864D01*
X100087Y-175864D01*
X30087Y-175864D01*
X30087Y-149864D01*
G36*
X30087Y-147864D02*
X100087Y-147864D01*
X100087Y-151864D01*
X30087Y-151864D01*
X30087Y-147864D01*
G37*
G54D10*
X30087Y-147864D02*
X100087Y-147864D01*
X100087Y-151864D01*
X30087Y-151864D01*
X30087Y-147864D01*
G54D11*
X23420Y-164975D02*
X26886Y-164975D01*
X26886Y-168586D01*
X26020Y-170030D01*
X24286Y-170753D01*
X22553Y-170753D01*
X20820Y-170030D01*
X19953Y-168586D01*
X19953Y-161364D01*
X20820Y-159919D01*
X22553Y-159197D01*
X24286Y-159197D01*
X26020Y-159919D01*
X26886Y-161364D01*
G54D11*
X61953Y-110753D02*
X61953Y-99197D01*
X66286Y-99197D01*
X68020Y-99919D01*
X68886Y-101364D01*
X68886Y-108586D01*
X68020Y-110030D01*
X66286Y-110753D01*
X61953Y-110753D01*
G54D11*
X103953Y-166586D02*
X104820Y-168030D01*
X106553Y-168752D01*
X108286Y-168752D01*
X110020Y-168030D01*
X110886Y-166586D01*
X110886Y-165141D01*
X110020Y-163697D01*
X108286Y-162974D01*
X106553Y-162974D01*
X104820Y-162252D01*
X103953Y-160808D01*
X103953Y-159363D01*
X104820Y-157919D01*
X106553Y-157197D01*
X108286Y-157197D01*
X110020Y-157919D01*
X110886Y-159363D01*
G54D11*
X32886Y-107444D02*
X35775Y-109610D01*
G54D11*
X35197Y-100222D02*
X35197Y-107444D01*
X34619Y-108888D01*
X33464Y-109610D01*
X32308Y-109610D01*
X31153Y-108888D01*
X30575Y-107444D01*
X30575Y-100222D01*
X31153Y-98777D01*
X32308Y-98055D01*
X33464Y-98055D01*
X34619Y-98777D01*
X35197Y-100222D01*
G54D11*
X39819Y-102388D02*
X42708Y-98055D01*
X42708Y-109610D01*
G54D10*
G75*
G01X492950Y-39000D02*
G03X492950Y-39000I-30000J0D01*
G01*
G54D10*
G75*
G01X492950Y-459000D02*
G03X492950Y-459000I-30000J0D01*
G01*
G54D10*
G75*
G01X72950Y-459000D02*
G03X72950Y-459000I-30000J0D01*
G01*
G54D10*
G75*
G01X494100Y-364500D02*
G03X494100Y-364500I-60000J0D01*
G01*
G54D10*
X470625Y-323900D02*
X454750Y-323900D01*
G54D10*
X462688Y-315962D02*
X462688Y-331838D01*
G54D10*
X449369Y-212351D02*
X440369Y-212351D01*
G54D10*
X493369Y-158851D02*
X493369Y-265851D01*
G54D10*
X493369Y-158851D02*
X475869Y-158851D01*
G54D10*
X413869Y-158851D02*
X379869Y-158851D01*
X379869Y-175851D01*
G54D10*
X493369Y-265851D02*
X475869Y-265851D01*
G54D10*
X413869Y-265851D02*
X379869Y-265851D01*
X379869Y-248351D01*
G54D10*
G75*
G01X471319Y-248757D02*
G03X471951Y-176412I-26450J36406D01*
G01*
G54D10*
G75*
G01X418419Y-175945D02*
G03X417787Y-248290I26450J-36406D01*
G01*
G54D10*
G75*
G01X474869Y-212351D02*
G03X474869Y-212351I-30000J0D01*
G01*
G54D10*
X444869Y-208351D02*
X444869Y-216351D01*
G54D10*
X459726Y-186851D02*
X429869Y-237851D01*
X444869Y-212351D02*
G54D12*
D03*
G54D11*
X362061Y-263755D02*
X362061Y-252200D01*
X364950Y-252200D01*
X366106Y-252922D01*
X366683Y-254366D01*
X366683Y-255811D01*
X366106Y-257255D01*
X364950Y-257978D01*
X362061Y-257978D01*
G54D11*
X370727Y-256533D02*
X373616Y-252200D01*
X373616Y-263755D01*
G54D10*
X202721Y-353513D02*
X209021Y-359813D01*
X221821Y-359813D01*
X228121Y-353513D01*
X228121Y-340713D01*
X221821Y-334413D01*
X209021Y-334413D01*
X202721Y-340713D01*
X202721Y-353513D01*
G54D10*
X228121Y-353513D02*
X234421Y-359813D01*
X247221Y-359813D01*
X253521Y-353513D01*
X253521Y-340713D01*
X247221Y-334413D01*
X234421Y-334413D01*
X228121Y-340713D01*
X228121Y-353513D01*
G54D10*
X253521Y-353513D02*
X259821Y-359813D01*
X272621Y-359813D01*
X278921Y-353513D01*
X278921Y-340713D01*
X272621Y-334413D01*
X259821Y-334413D01*
X253521Y-340713D01*
X253521Y-353513D01*
G54D10*
X278921Y-353513D02*
X285221Y-359813D01*
X298021Y-359813D01*
X304321Y-353513D01*
X304321Y-340713D01*
X298021Y-334413D01*
X285221Y-334413D01*
X278921Y-340713D01*
X278921Y-353513D01*
G54D11*
X309757Y-354083D02*
X309757Y-342528D01*
G54D11*
X318424Y-354083D02*
X313801Y-354083D01*
X313801Y-353361D01*
X314379Y-351916D01*
X317846Y-347583D01*
X318424Y-346139D01*
X318424Y-344694D01*
X317846Y-343250D01*
X316690Y-342528D01*
X315535Y-342528D01*
X314379Y-343250D01*
X313801Y-344694D01*
G54D11*
X327090Y-351916D02*
X326512Y-353361D01*
X325356Y-354083D01*
X324201Y-354083D01*
X323045Y-353361D01*
X322467Y-351916D01*
X322467Y-344694D01*
X323045Y-343250D01*
X324201Y-342528D01*
X325356Y-342528D01*
X326512Y-343250D01*
X327090Y-344694D01*
G54D10*
X202709Y-385345D02*
X209009Y-391645D01*
X221809Y-391645D01*
X228109Y-385345D01*
X228109Y-372545D01*
X221809Y-366245D01*
X209009Y-366245D01*
X202709Y-372545D01*
X202709Y-385345D01*
G54D10*
X228109Y-385345D02*
X234409Y-391645D01*
X247209Y-391645D01*
X253509Y-385345D01*
X253509Y-372545D01*
X247209Y-366245D01*
X234409Y-366245D01*
X228109Y-372545D01*
X228109Y-385345D01*
G54D10*
X253509Y-385345D02*
X259809Y-391645D01*
X272609Y-391645D01*
X278909Y-385345D01*
X278909Y-372545D01*
X272609Y-366245D01*
X259809Y-366245D01*
X253509Y-372545D01*
X253509Y-385345D01*
G54D10*
X278909Y-385345D02*
X285209Y-391645D01*
X298009Y-391645D01*
X304309Y-385345D01*
X304309Y-372545D01*
X298009Y-366245D01*
X285209Y-366245D01*
X278909Y-372545D01*
X278909Y-385345D01*
G54D11*
X315514Y-375720D02*
X315514Y-382942D01*
X314936Y-384386D01*
X313780Y-385109D01*
X312625Y-385109D01*
X311469Y-384386D01*
X310891Y-382942D01*
X310891Y-375720D01*
X311469Y-374275D01*
X312625Y-373553D01*
X313780Y-373553D01*
X314936Y-374275D01*
X315514Y-375720D01*
G54D11*
X319557Y-373553D02*
X319557Y-385109D01*
X323602Y-385109D01*
G54D11*
X331690Y-385109D02*
X327645Y-385109D01*
X327645Y-373553D01*
X331690Y-373553D01*
G54D11*
X327645Y-379331D02*
X331690Y-379331D01*
G54D11*
X335733Y-385109D02*
X335733Y-373553D01*
X338622Y-373553D01*
X339778Y-374275D01*
X340356Y-375720D01*
X340356Y-382942D01*
X339778Y-384386D01*
X338622Y-385109D01*
X335733Y-385109D01*
G54D11*
X344399Y-385109D02*
X350177Y-385109D01*
G54D11*
X354221Y-385109D02*
X354221Y-373553D01*
G54D11*
X362888Y-385109D02*
X358265Y-385109D01*
X358265Y-384386D01*
X358843Y-382942D01*
X362310Y-378609D01*
X362888Y-377164D01*
X362888Y-375720D01*
X362310Y-374275D01*
X361154Y-373553D01*
X359999Y-373553D01*
X358843Y-374275D01*
X358265Y-375720D01*
G54D11*
X371554Y-382942D02*
X370976Y-384386D01*
X369820Y-385109D01*
X368665Y-385109D01*
X367509Y-384386D01*
X366931Y-382942D01*
X366931Y-375720D01*
X367509Y-374275D01*
X368665Y-373553D01*
X369820Y-373553D01*
X370976Y-374275D01*
X371554Y-375720D01*
G54D10*
X114344Y-229731D02*
X131825Y-229731D01*
G54D10*
G75*
G01X111688Y-197448D02*
G03X100739Y-211718I11750J-20352D01*
G01*
G54D11*
X79000Y-226863D02*
X79000Y-215307D01*
G54D11*
X87666Y-224696D02*
X87088Y-226140D01*
X85932Y-226863D01*
X84777Y-226863D01*
X83621Y-226140D01*
X83044Y-224696D01*
X83044Y-217474D01*
X83621Y-216029D01*
X84777Y-215307D01*
X85932Y-215307D01*
X87088Y-216029D01*
X87666Y-217474D01*
G54D11*
X91710Y-219641D02*
X94599Y-215307D01*
X94599Y-226863D01*
G54D11*
X124147Y-173784D02*
X124147Y-180717D01*
G54D11*
X127036Y-177251D02*
X121258Y-177251D01*
G54D10*
G75*
G01X165046Y-166301D02*
G03X165046Y-166301I-25000J0D01*
G01*
G54D11*
X161887Y-142180D02*
X161310Y-143624D01*
X160154Y-144346D01*
X158998Y-144346D01*
X157843Y-143624D01*
X157265Y-142180D01*
X157265Y-134957D01*
X157843Y-133513D01*
X158998Y-132791D01*
X160154Y-132791D01*
X161310Y-133513D01*
X161887Y-134957D01*
G54D11*
X165931Y-137124D02*
X168820Y-132791D01*
X168820Y-144346D01*
G54D10*
X407889Y-100692D02*
X425889Y-100692D01*
G54D10*
X355889Y-100692D02*
X345889Y-100692D01*
G54D10*
X425889Y-100692D02*
X425889Y-3692D01*
G54D10*
X415889Y-100692D02*
X415889Y-3692D01*
G54D10*
X345889Y-63692D02*
X345889Y-4692D01*
G54D10*
X85966Y-267445D02*
X92266Y-273745D01*
X105066Y-273745D01*
X111366Y-267445D01*
X111366Y-254645D01*
X105066Y-248345D01*
X92266Y-248345D01*
X85966Y-254645D01*
X85966Y-267445D01*
G54D10*
X111366Y-267445D02*
X117666Y-273745D01*
X130466Y-273745D01*
X136766Y-267445D01*
X136766Y-254645D01*
X130466Y-248345D01*
X117666Y-248345D01*
X111366Y-254645D01*
X111366Y-267445D01*
G54D10*
X136766Y-267445D02*
X143066Y-273745D01*
X155866Y-273745D01*
X162166Y-267445D01*
X162166Y-254645D01*
X155866Y-248345D01*
X143066Y-248345D01*
X136766Y-254645D01*
X136766Y-267445D01*
G54D10*
X162166Y-267445D02*
X168466Y-273745D01*
X181266Y-273745D01*
X187566Y-267445D01*
X187566Y-254645D01*
X181266Y-248345D01*
X168466Y-248345D01*
X162166Y-254645D01*
X162166Y-267445D01*
G54D10*
X187566Y-267445D02*
X193866Y-273745D01*
X206666Y-273745D01*
X212966Y-267445D01*
X212966Y-254645D01*
X206666Y-248345D01*
X193866Y-248345D01*
X187566Y-254645D01*
X187566Y-267445D01*
G54D13*
X93231Y-277566D02*
X103898Y-277566D01*
X97231Y-280233D01*
X103898Y-282900D01*
X93231Y-282900D01*
G54D13*
X95231Y-290899D02*
X93898Y-290366D01*
X93231Y-289299D01*
X93231Y-288232D01*
X93898Y-287166D01*
X95231Y-286632D01*
X101898Y-286632D01*
X103231Y-287166D01*
X103898Y-288232D01*
X103898Y-289299D01*
X103231Y-290366D01*
X101898Y-290899D01*
G54D13*
X103898Y-294632D02*
X93231Y-294632D01*
X93231Y-298366D01*
G54D13*
X98564Y-304232D02*
X97231Y-305832D01*
X95898Y-306365D01*
X93231Y-306365D01*
G54D13*
X93231Y-302098D02*
X103898Y-302098D01*
X103898Y-304765D01*
X103231Y-305832D01*
X101898Y-306365D01*
X100564Y-306365D01*
X99231Y-305832D01*
X98564Y-304765D01*
X98564Y-302098D01*
G54D13*
X128012Y-276735D02*
X129345Y-277269D01*
X130012Y-278335D01*
X130012Y-279402D01*
X129345Y-280469D01*
X128012Y-281002D01*
X126678Y-281002D01*
X125345Y-280469D01*
X124678Y-279402D01*
X124012Y-280469D01*
X122678Y-281002D01*
X121345Y-281002D01*
X120012Y-280469D01*
X119345Y-279402D01*
X119345Y-278335D01*
X120012Y-277269D01*
X121345Y-276735D01*
G54D13*
X130012Y-284735D02*
X119345Y-287402D01*
X130012Y-290069D01*
G54D13*
X128012Y-293801D02*
X129345Y-294335D01*
X130012Y-295401D01*
X130012Y-296468D01*
X129345Y-297535D01*
X128012Y-298068D01*
X126678Y-298068D01*
X125345Y-297535D01*
X124678Y-296468D01*
X124012Y-297535D01*
X122678Y-298068D01*
X121345Y-298068D01*
X120012Y-297535D01*
X119345Y-296468D01*
X119345Y-295401D01*
X120012Y-294335D01*
X121345Y-293801D01*
G54D13*
X144334Y-278900D02*
X144334Y-281033D01*
X141000Y-281034D01*
X139667Y-280500D01*
X139000Y-279434D01*
X139000Y-278367D01*
X139667Y-277300D01*
X141000Y-276767D01*
X147667Y-276767D01*
X149000Y-277300D01*
X149667Y-278367D01*
X149667Y-279433D01*
X149000Y-280500D01*
X147667Y-281033D01*
G54D13*
X139000Y-284767D02*
X149667Y-284767D01*
X139000Y-289033D01*
X149667Y-289033D01*
G54D13*
X139000Y-292767D02*
X149667Y-292767D01*
X149667Y-295433D01*
X149000Y-296500D01*
X147667Y-297033D01*
X141000Y-297033D01*
X139667Y-296500D01*
X139000Y-295433D01*
X139000Y-292767D01*
G54D13*
X169720Y-276905D02*
X180387Y-276905D01*
X180387Y-279572D01*
X179720Y-280638D01*
X178387Y-281172D01*
X177054Y-281172D01*
X175720Y-280638D01*
X175054Y-279572D01*
X175054Y-276905D01*
G54D13*
X175054Y-287038D02*
X175054Y-289172D01*
X171720Y-289172D01*
X170387Y-288638D01*
X169720Y-287572D01*
X169720Y-286505D01*
X170387Y-285438D01*
X171720Y-284905D01*
X178387Y-284905D01*
X179720Y-285438D01*
X180387Y-286505D01*
X180387Y-287572D01*
X179720Y-288638D01*
X178387Y-289172D01*
G54D13*
X169720Y-292905D02*
X180387Y-292905D01*
X180387Y-295572D01*
X179720Y-296639D01*
X178387Y-297172D01*
X171720Y-297172D01*
X170387Y-296638D01*
X169720Y-295572D01*
X169720Y-292905D01*
G54D13*
X188920Y-277268D02*
X199586Y-277268D01*
X199586Y-279935D01*
X198920Y-281002D01*
X197586Y-281535D01*
X196253Y-281535D01*
X194920Y-281002D01*
X194253Y-279935D01*
X194253Y-277269D01*
G54D13*
X194253Y-287402D02*
X194253Y-289535D01*
X190920Y-289535D01*
X189586Y-289002D01*
X188920Y-287935D01*
X188920Y-286869D01*
X189586Y-285802D01*
X190920Y-285268D01*
X197586Y-285269D01*
X198920Y-285802D01*
X199586Y-286869D01*
X199586Y-287935D01*
X198920Y-289002D01*
X197586Y-289535D01*
G54D13*
X190920Y-297535D02*
X189586Y-297002D01*
X188920Y-295935D01*
X188920Y-294869D01*
X189586Y-293802D01*
X190920Y-293269D01*
X197586Y-293268D01*
X198920Y-293802D01*
X199586Y-294868D01*
X199586Y-295935D01*
X198920Y-297002D01*
X197586Y-297535D01*
G54D13*
X59327Y-267802D02*
X59327Y-257135D01*
G54D13*
X67327Y-265802D02*
X66793Y-267135D01*
X65727Y-267802D01*
X64660Y-267802D01*
X63593Y-267135D01*
X63060Y-265802D01*
X63060Y-259135D01*
X63593Y-257802D01*
X64660Y-257135D01*
X65727Y-257135D01*
X66793Y-257802D01*
X67327Y-259135D01*
G54D13*
X71060Y-265802D02*
X71593Y-267135D01*
X72660Y-267802D01*
X73727Y-267802D01*
X74793Y-267135D01*
X75327Y-265802D01*
X75327Y-264468D01*
X74793Y-263135D01*
X73727Y-262468D01*
X72660Y-262468D01*
X71593Y-261802D01*
X71060Y-260468D01*
X71060Y-259135D01*
X71593Y-257802D01*
X72660Y-257135D01*
X73727Y-257135D01*
X74793Y-257802D01*
X75327Y-259135D01*
G54D13*
X79060Y-267802D02*
X79060Y-257135D01*
X81727Y-257135D01*
X82793Y-257802D01*
X83327Y-259135D01*
X83327Y-260468D01*
X82793Y-261802D01*
X81727Y-262468D01*
X79060Y-262468D01*
G54D10*
X78258Y-200849D02*
X78258Y-183449D01*
X47858Y-183449D01*
X47858Y-200849D01*
X78258Y-200849D01*
G36*
X78158Y-200749D02*
X78158Y-184049D01*
X70958Y-184049D01*
X70958Y-200749D01*
X78158Y-200749D01*
G37*
G54D10*
X78158Y-200749D02*
X78158Y-184049D01*
X70958Y-184049D01*
X70958Y-200749D01*
X78158Y-200749D01*
G54D11*
X55904Y-216905D02*
X55904Y-205349D01*
X58792Y-205349D01*
X59948Y-206071D01*
X60526Y-207516D01*
X60526Y-214738D01*
X59948Y-216182D01*
X58792Y-216905D01*
X55904Y-216905D01*
G54D11*
X64570Y-205349D02*
X69192Y-205349D01*
X64570Y-216905D01*
X69192Y-216905D01*
G54D11*
X73236Y-209682D02*
X76124Y-205349D01*
X76124Y-216905D01*
G36*
X20390Y-119488D02*
X109190Y-119488D01*
X109190Y-113088D01*
X20390Y-113088D01*
X20390Y-119488D01*
G37*
G54D10*
X20390Y-119488D02*
X109190Y-119488D01*
X109190Y-113088D01*
X20390Y-113088D01*
X20390Y-119488D01*
G54D10*
X20390Y-113088D02*
X20390Y-151088D01*
X109390Y-151088D01*
X109390Y-113088D01*
X20390Y-113088D01*
G54D11*
X329517Y-125100D02*
X322584Y-125100D01*
G54D11*
X326050Y-127988D02*
X326050Y-122211D01*
G54D10*
G75*
G01X362000Y-141000D02*
G03X362000Y-141000I-25000J0D01*
G01*
G54D10*
X328863Y-448457D02*
X322563Y-442157D01*
X309763Y-442157D01*
X303463Y-448457D01*
X303463Y-461257D01*
X309763Y-467557D01*
X322563Y-467557D01*
X328863Y-461257D01*
X328863Y-448457D01*
G54D10*
X303463Y-448457D02*
X297163Y-442157D01*
X284363Y-442157D01*
X278063Y-448457D01*
X278063Y-461257D01*
X284363Y-467557D01*
X297163Y-467557D01*
X303463Y-461257D01*
X303463Y-448457D01*
G54D10*
X278063Y-448457D02*
X271763Y-442157D01*
X258963Y-442157D01*
X252663Y-448457D01*
X252663Y-461257D01*
X258963Y-467557D01*
X271763Y-467557D01*
X278063Y-461257D01*
X278063Y-448457D01*
G54D10*
X252663Y-448457D02*
X246363Y-442157D01*
X233563Y-442157D01*
X227263Y-448457D01*
X227263Y-461257D01*
X233563Y-467557D01*
X246363Y-467557D01*
X252663Y-461257D01*
X252663Y-448457D01*
G54D10*
X227263Y-448457D02*
X220963Y-442157D01*
X208163Y-442157D01*
X201863Y-448457D01*
X201863Y-461257D01*
X208163Y-467557D01*
X220963Y-467557D01*
X227263Y-461257D01*
X227263Y-448457D01*
G54D10*
X201863Y-448457D02*
X195563Y-442157D01*
X182763Y-442157D01*
X176463Y-448457D01*
X176463Y-461257D01*
X182763Y-467557D01*
X195563Y-467557D01*
X201863Y-461257D01*
X201863Y-448457D01*
G54D10*
X176463Y-448457D02*
X170163Y-442157D01*
X157363Y-442157D01*
X151063Y-448457D01*
X151063Y-461257D01*
X157363Y-467557D01*
X170163Y-467557D01*
X176463Y-461257D01*
X176463Y-448457D01*
G54D10*
X151063Y-448457D02*
X144763Y-442157D01*
X131963Y-442157D01*
X125663Y-448457D01*
X125663Y-461257D01*
X131963Y-467557D01*
X144763Y-467557D01*
X151063Y-461257D01*
X151063Y-448457D01*
G54D11*
X336253Y-460557D02*
X336831Y-462001D01*
X337986Y-462724D01*
X339142Y-462724D01*
X340298Y-462001D01*
X340875Y-460557D01*
X340875Y-459112D01*
X340298Y-457668D01*
X339142Y-456946D01*
X337986Y-456946D01*
X336831Y-456224D01*
X336253Y-454779D01*
X336253Y-453335D01*
X336831Y-451890D01*
X337986Y-451168D01*
X339142Y-451168D01*
X340297Y-451890D01*
X340875Y-453335D01*
G54D11*
X344919Y-462724D02*
X344919Y-451168D01*
X347808Y-451168D01*
X348964Y-451890D01*
X349541Y-453335D01*
X349541Y-454779D01*
X348964Y-456224D01*
X347808Y-456946D01*
X344919Y-456946D01*
G54D11*
X353585Y-462724D02*
X353585Y-451168D01*
G54D11*
X357629Y-462724D02*
X362251Y-451168D01*
G54D11*
X370917Y-451168D02*
X366295Y-451168D01*
X366295Y-456224D01*
X366873Y-456224D01*
X368028Y-455501D01*
X369184Y-455501D01*
X370339Y-456224D01*
X370917Y-457668D01*
X370917Y-460557D01*
X370339Y-462001D01*
X369184Y-462724D01*
X368028Y-462724D01*
X366873Y-462001D01*
X366295Y-460557D01*
G54D11*
X374961Y-455501D02*
X377850Y-451168D01*
X377850Y-462724D01*
G54D11*
X381894Y-455501D02*
X384783Y-451168D01*
X384783Y-462724D01*
G54D11*
X393449Y-453335D02*
X393449Y-460557D01*
X392872Y-462001D01*
X391716Y-462724D01*
X390560Y-462724D01*
X389405Y-462001D01*
X388827Y-460557D01*
X388827Y-453335D01*
X389405Y-451890D01*
X390560Y-451168D01*
X391716Y-451168D01*
X392871Y-451890D01*
X393449Y-453335D01*
G54D11*
X401653Y-451168D02*
X401653Y-462724D01*
X405698Y-462724D01*
G54D11*
X414363Y-460557D02*
X413786Y-462001D01*
X412630Y-462724D01*
X411474Y-462724D01*
X410319Y-462001D01*
X409741Y-460557D01*
X409741Y-453335D01*
X410319Y-451890D01*
X411474Y-451168D01*
X412630Y-451168D01*
X413786Y-451890D01*
X414363Y-453335D01*
G54D11*
X418407Y-462724D02*
X418407Y-451168D01*
X421296Y-451168D01*
X422452Y-451890D01*
X423029Y-453335D01*
X423029Y-460557D01*
X422451Y-462001D01*
X421296Y-462724D01*
X418407Y-462724D01*
G54D13*
X294948Y-309299D02*
X296282Y-309832D01*
X296948Y-310899D01*
X296948Y-311966D01*
X296282Y-313032D01*
X294948Y-313566D01*
X293615Y-313566D01*
X292282Y-313032D01*
X291615Y-311966D01*
X290948Y-313032D01*
X289615Y-313566D01*
X288282Y-313566D01*
X286948Y-313032D01*
X286282Y-311966D01*
X286282Y-310899D01*
X286948Y-309832D01*
X288282Y-309299D01*
G54D13*
X296948Y-317299D02*
X286282Y-319966D01*
X296948Y-322632D01*
G54D13*
X294948Y-326365D02*
X296282Y-326898D01*
X296948Y-327965D01*
X296948Y-329032D01*
X296282Y-330098D01*
X294948Y-330632D01*
X293615Y-330632D01*
X292282Y-330098D01*
X291615Y-329032D01*
X290948Y-330098D01*
X289615Y-330632D01*
X288282Y-330632D01*
X286948Y-330098D01*
X286282Y-329032D01*
X286282Y-327965D01*
X286948Y-326898D01*
X288282Y-326365D01*
G54D13*
X265923Y-312817D02*
X265923Y-314950D01*
X262589Y-314950D01*
X261256Y-314417D01*
X260589Y-313350D01*
X260589Y-312283D01*
X261256Y-311217D01*
X262589Y-310684D01*
X269256Y-310684D01*
X270589Y-311217D01*
X271256Y-312284D01*
X271256Y-313350D01*
X270589Y-314417D01*
X269256Y-314950D01*
G54D13*
X260589Y-318684D02*
X271256Y-318684D01*
X260589Y-322950D01*
X271256Y-322950D01*
G54D13*
X260589Y-326683D02*
X271256Y-326684D01*
X271256Y-329350D01*
X270589Y-330417D01*
X269256Y-330950D01*
X262589Y-330950D01*
X261256Y-330417D01*
X260590Y-329350D01*
X260589Y-326683D01*
G54D13*
X237743Y-311068D02*
X236410Y-311601D01*
X235743Y-312668D01*
X235743Y-313735D01*
X236410Y-314801D01*
X237743Y-315335D01*
X239076Y-315335D01*
X240410Y-314801D01*
X241076Y-313735D01*
X241077Y-312668D01*
X241743Y-311601D01*
X243077Y-311068D01*
X244410Y-311068D01*
X245743Y-311601D01*
X246410Y-312668D01*
X246410Y-313735D01*
X245743Y-314801D01*
X244410Y-315335D01*
G54D13*
X237743Y-323335D02*
X236410Y-322801D01*
X235743Y-321735D01*
X235743Y-320668D01*
X236410Y-319601D01*
X237743Y-319068D01*
X244410Y-319068D01*
X245743Y-319601D01*
X246410Y-320668D01*
X246410Y-321735D01*
X245743Y-322801D01*
X244410Y-323335D01*
G54D13*
X246410Y-327068D02*
X235743Y-327068D01*
X235743Y-330801D01*
G54D13*
X212128Y-310068D02*
X210795Y-310601D01*
X210128Y-311668D01*
X210128Y-312735D01*
X210795Y-313801D01*
X212128Y-314335D01*
X213461Y-314335D01*
X214795Y-313801D01*
X215461Y-312735D01*
X215461Y-311668D01*
X216128Y-310601D01*
X217461Y-310068D01*
X218794Y-310068D01*
X220128Y-310601D01*
X220794Y-311668D01*
X220794Y-312735D01*
X220128Y-313801D01*
X218794Y-314335D01*
G54D13*
X210128Y-318068D02*
X220794Y-318068D01*
X220794Y-320735D01*
X220128Y-321802D01*
X218794Y-322335D01*
X212128Y-322335D01*
X210794Y-321801D01*
X210128Y-320735D01*
X210128Y-318068D01*
G54D13*
X210128Y-326068D02*
X220794Y-328735D01*
X210128Y-331401D01*
G54D13*
X214128Y-327135D02*
X214128Y-330335D01*
G54D13*
X321223Y-470821D02*
X322556Y-471354D01*
X323223Y-472421D01*
X323223Y-473488D01*
X322556Y-474554D01*
X321223Y-475088D01*
X319889Y-475088D01*
X318556Y-474554D01*
X317889Y-473488D01*
X317223Y-474554D01*
X315889Y-475088D01*
X314556Y-475088D01*
X313223Y-474554D01*
X312556Y-473488D01*
X312556Y-472421D01*
X313223Y-471354D01*
X314556Y-470821D01*
G54D13*
X323223Y-478821D02*
X312556Y-481488D01*
X323223Y-484154D01*
G54D13*
X321223Y-487887D02*
X322556Y-488420D01*
X323223Y-489487D01*
X323223Y-490554D01*
X322556Y-491620D01*
X321223Y-492154D01*
X319889Y-492154D01*
X318556Y-491620D01*
X317889Y-490554D01*
X317223Y-491620D01*
X315889Y-492154D01*
X314556Y-492154D01*
X313223Y-491620D01*
X312556Y-490554D01*
X312556Y-489487D01*
X313223Y-488420D01*
X314556Y-487887D01*
G54D13*
X290732Y-473204D02*
X290732Y-475337D01*
X287398Y-475337D01*
X286065Y-474804D01*
X285399Y-473737D01*
X285398Y-472670D01*
X286065Y-471604D01*
X287399Y-471070D01*
X294065Y-471070D01*
X295398Y-471604D01*
X296065Y-472670D01*
X296065Y-473737D01*
X295398Y-474804D01*
X294065Y-475337D01*
G54D13*
X285398Y-479070D02*
X296065Y-479070D01*
X285398Y-483337D01*
X296065Y-483337D01*
G54D13*
X285398Y-487070D02*
X296065Y-487070D01*
X296065Y-489737D01*
X295398Y-490804D01*
X294065Y-491337D01*
X287399Y-491337D01*
X286065Y-490804D01*
X285398Y-489737D01*
X285398Y-487070D01*
G54D10*
X202721Y-416513D02*
X209021Y-422813D01*
X221821Y-422813D01*
X228121Y-416513D01*
X228121Y-403713D01*
X221821Y-397413D01*
X209021Y-397413D01*
X202721Y-403713D01*
X202721Y-416513D01*
G54D10*
X228121Y-416513D02*
X234421Y-422813D01*
X247221Y-422813D01*
X253521Y-416513D01*
X253521Y-403713D01*
X247221Y-397413D01*
X234421Y-397413D01*
X228121Y-403713D01*
X228121Y-416513D01*
G54D10*
X253521Y-416513D02*
X259821Y-422813D01*
X272621Y-422813D01*
X278921Y-416513D01*
X278921Y-403713D01*
X272621Y-397413D01*
X259821Y-397413D01*
X253521Y-403713D01*
X253521Y-416513D01*
G54D10*
X278921Y-416513D02*
X285221Y-422813D01*
X298021Y-422813D01*
X304321Y-416513D01*
X304321Y-403713D01*
X298021Y-397413D01*
X285221Y-397413D01*
X278921Y-403713D01*
X278921Y-416513D01*
G54D11*
X310817Y-404195D02*
X310817Y-413584D01*
X311395Y-415028D01*
X312551Y-415750D01*
X313706Y-415750D01*
X314862Y-415028D01*
X315440Y-413584D01*
X315440Y-404195D01*
G54D11*
X319483Y-415750D02*
X322372Y-404195D01*
X325261Y-415750D01*
G54D11*
X320639Y-411417D02*
X324106Y-411417D01*
G54D11*
X331616Y-409972D02*
X333350Y-411417D01*
X333928Y-412861D01*
X333928Y-415750D01*
G54D11*
X329305Y-415750D02*
X329305Y-404195D01*
X332194Y-404195D01*
X333350Y-404917D01*
X333928Y-406361D01*
X333928Y-407806D01*
X333350Y-409250D01*
X332194Y-409972D01*
X329305Y-409972D01*
G54D11*
X340282Y-415750D02*
X340282Y-404195D01*
G54D11*
X337971Y-404195D02*
X342594Y-404195D01*
G54D13*
X240076Y-428202D02*
X238743Y-429801D01*
X237410Y-430335D01*
X234743Y-430335D01*
G54D13*
X234743Y-426068D02*
X245410Y-426068D01*
X245410Y-428735D01*
X244743Y-429801D01*
X243410Y-430335D01*
X242076Y-430335D01*
X240743Y-429801D01*
X240076Y-428735D01*
X240076Y-426068D01*
G54D13*
X245410Y-434068D02*
X234743Y-439401D01*
G54D13*
X234743Y-434068D02*
X245410Y-439401D01*
G54D13*
X210128Y-428202D02*
X220794Y-428201D01*
G54D13*
X220794Y-426068D02*
X220794Y-430335D01*
G54D13*
X220794Y-434068D02*
X210128Y-439401D01*
G54D13*
X210128Y-434068D02*
X220794Y-439401D01*
G54D13*
X262152Y-472108D02*
X260819Y-472642D01*
X260152Y-473708D01*
X260152Y-474775D01*
X260819Y-475842D01*
X262152Y-476375D01*
X263486Y-476375D01*
X264819Y-475842D01*
X265486Y-474775D01*
X265486Y-473708D01*
X266152Y-472642D01*
X267486Y-472108D01*
X268819Y-472108D01*
X270152Y-472642D01*
X270819Y-473708D01*
X270819Y-474775D01*
X270152Y-475842D01*
X268819Y-476375D01*
G54D13*
X262152Y-484375D02*
X260819Y-483842D01*
X260152Y-482775D01*
X260152Y-481708D01*
X260819Y-480642D01*
X262152Y-480108D01*
X268819Y-480108D01*
X270152Y-480642D01*
X270819Y-481708D01*
X270819Y-482775D01*
X270152Y-483842D01*
X268819Y-484375D01*
G54D13*
X260152Y-491842D02*
X260152Y-488108D01*
X270819Y-488108D01*
X270819Y-491842D01*
G54D13*
X265486Y-488108D02*
X265486Y-491842D01*
G54D10*
X274236Y-472680D02*
X274236Y-491680D01*
G54D13*
X238680Y-474103D02*
X237347Y-475703D01*
X236014Y-476237D01*
X233347Y-476237D01*
G54D13*
X233347Y-471970D02*
X244014Y-471970D01*
X244014Y-474637D01*
X243347Y-475703D01*
X242014Y-476237D01*
X240681Y-476237D01*
X239347Y-475703D01*
X238680Y-474637D01*
X238680Y-471970D01*
G54D13*
X235347Y-479970D02*
X234014Y-480503D01*
X233347Y-481570D01*
X233347Y-482637D01*
X234014Y-483703D01*
X235347Y-484237D01*
X236680Y-484237D01*
X238014Y-483703D01*
X238680Y-482637D01*
X238680Y-481570D01*
X239347Y-480503D01*
X240681Y-479970D01*
X242014Y-479970D01*
X243347Y-480503D01*
X244014Y-481570D01*
X244014Y-482637D01*
X243347Y-483703D01*
X242014Y-484237D01*
G54D13*
X233347Y-490103D02*
X244014Y-490103D01*
G54D13*
X244014Y-487970D02*
X244014Y-492237D01*
G54D10*
X247431Y-472542D02*
X247431Y-491542D01*
G54D13*
X208152Y-470416D02*
X218819Y-470416D01*
X218819Y-473083D01*
X218152Y-474149D01*
X216819Y-474683D01*
X210152Y-474683D01*
X208819Y-474149D01*
X208152Y-473083D01*
X208152Y-470416D01*
G54D13*
X208152Y-478416D02*
X218819Y-482683D01*
G54D13*
X210152Y-490683D02*
X208819Y-490149D01*
X208152Y-489083D01*
X208152Y-488016D01*
X208819Y-486949D01*
X210152Y-486416D01*
X216819Y-486416D01*
X218152Y-486950D01*
X218819Y-488016D01*
X218819Y-489083D01*
X218152Y-490149D01*
X216819Y-490683D01*
G54D10*
X222236Y-483988D02*
X222236Y-491988D01*
G54D13*
X184236Y-377681D02*
X194902Y-377681D01*
X188236Y-380348D01*
X194902Y-383014D01*
X184236Y-383014D01*
G54D13*
X192902Y-391014D02*
X186236Y-391014D01*
X184902Y-390480D01*
X184236Y-389414D01*
X184236Y-388347D01*
X184902Y-387280D01*
X186236Y-386747D01*
X192902Y-386747D01*
X194236Y-387280D01*
X194902Y-388347D01*
X194902Y-389414D01*
X194236Y-390480D01*
X192902Y-391014D01*
G54D13*
X186236Y-394747D02*
X184902Y-395280D01*
X184236Y-396347D01*
X184236Y-397414D01*
X184902Y-398480D01*
X186236Y-399014D01*
X187569Y-399013D01*
X188902Y-398480D01*
X189569Y-397414D01*
X189569Y-396347D01*
X190236Y-395280D01*
X191569Y-394747D01*
X192902Y-394747D01*
X194236Y-395280D01*
X194902Y-396347D01*
X194902Y-397413D01*
X194236Y-398480D01*
X192902Y-399014D01*
G54D13*
X184236Y-402747D02*
X194902Y-402747D01*
G54D13*
X184236Y-406480D02*
X194902Y-410746D01*
G54D13*
X186236Y-414480D02*
X184902Y-415013D01*
X184236Y-416080D01*
X184236Y-417146D01*
X184902Y-418213D01*
X186236Y-418746D01*
X187569Y-418746D01*
X188902Y-418213D01*
X189569Y-417146D01*
X189569Y-416080D01*
X190236Y-415013D01*
X191569Y-414480D01*
X192902Y-414480D01*
X194236Y-415013D01*
X194902Y-416080D01*
X194902Y-417146D01*
X194236Y-418213D01*
X192902Y-418746D01*
G54D13*
X184236Y-422480D02*
X194902Y-422480D01*
X194902Y-425146D01*
X194236Y-426213D01*
X192902Y-426746D01*
X186236Y-426746D01*
X184902Y-426213D01*
X184236Y-425146D01*
X184236Y-422480D01*
G54D13*
X184236Y-430480D02*
X194902Y-430480D01*
G54D13*
X184236Y-434213D02*
X194902Y-434213D01*
X184236Y-438480D01*
X194902Y-438480D01*
G54D13*
X161322Y-418224D02*
X159988Y-418758D01*
X159322Y-419824D01*
X159322Y-420891D01*
X159988Y-421958D01*
X161322Y-422491D01*
X162655Y-422491D01*
X163988Y-421958D01*
X164655Y-420891D01*
X164655Y-419824D01*
X165322Y-418758D01*
X166655Y-418224D01*
X167988Y-418224D01*
X169322Y-418758D01*
X169988Y-419824D01*
X169988Y-420891D01*
X169322Y-421958D01*
X167988Y-422491D01*
G54D13*
X161322Y-430491D02*
X159988Y-429958D01*
X159322Y-428891D01*
X159322Y-427824D01*
X159988Y-426758D01*
X161322Y-426224D01*
X167988Y-426224D01*
X169322Y-426758D01*
X169988Y-427824D01*
X169988Y-428891D01*
X169322Y-429958D01*
X167988Y-430491D01*
G54D13*
X159322Y-434224D02*
X169988Y-434224D01*
G54D13*
X162655Y-434224D02*
X169988Y-438491D01*
G54D13*
X164655Y-435824D02*
X159322Y-438491D01*
G54D13*
X144219Y-409609D02*
X133552Y-412276D01*
X144219Y-414942D01*
G54D13*
X144219Y-418675D02*
X133552Y-418675D01*
X133552Y-422408D01*
G54D13*
X133552Y-429874D02*
X133552Y-426141D01*
X144219Y-426141D01*
X144219Y-429874D01*
G54D13*
X138886Y-426141D02*
X138886Y-429874D01*
G54D13*
X133552Y-433607D02*
X144219Y-433607D01*
X144219Y-436274D01*
X143552Y-437340D01*
X142219Y-437874D01*
X135552Y-437874D01*
X134219Y-437340D01*
X133552Y-436274D01*
X133552Y-433607D01*
G54D10*
X106600Y-442300D02*
X100300Y-448600D01*
X100300Y-461400D01*
X106600Y-467700D01*
X119400Y-467700D01*
X125700Y-461400D01*
X125700Y-448600D01*
X119400Y-442300D01*
X106600Y-442300D01*
G54D13*
X109552Y-385609D02*
X108219Y-386142D01*
X107552Y-387209D01*
X107552Y-388276D01*
X108219Y-389342D01*
X109552Y-389876D01*
X110886Y-389876D01*
X112219Y-389342D01*
X112886Y-388276D01*
X112886Y-387209D01*
X113552Y-386142D01*
X114886Y-385609D01*
X116219Y-385609D01*
X117552Y-386142D01*
X118219Y-387209D01*
X118219Y-388276D01*
X117552Y-389342D01*
X116219Y-389876D01*
G54D13*
X107552Y-393609D02*
X118219Y-393609D01*
X118219Y-396276D01*
X117552Y-397342D01*
X116219Y-397876D01*
X114886Y-397876D01*
X113552Y-397342D01*
X112886Y-396276D01*
X112886Y-393609D01*
G54D13*
X107552Y-401609D02*
X118219Y-401609D01*
G54D13*
X112219Y-405342D02*
X112219Y-409609D01*
G54D13*
X107552Y-413342D02*
X118219Y-413342D01*
X111552Y-416009D01*
X118219Y-418675D01*
X107552Y-418675D01*
G54D13*
X107552Y-422408D02*
X118219Y-422408D01*
G54D13*
X109552Y-426141D02*
X108219Y-426674D01*
X107552Y-427741D01*
X107552Y-428808D01*
X108219Y-429874D01*
X109552Y-430408D01*
X110886Y-430408D01*
X112219Y-429874D01*
X112886Y-428808D01*
X112886Y-427741D01*
X113552Y-426674D01*
X114886Y-426141D01*
X116219Y-426141D01*
X117552Y-426674D01*
X118219Y-427741D01*
X118219Y-428808D01*
X117552Y-429874D01*
X116219Y-430408D01*
G54D13*
X116219Y-438408D02*
X109552Y-438408D01*
X108219Y-437874D01*
X107552Y-436808D01*
X107552Y-435741D01*
X108219Y-434674D01*
X109552Y-434141D01*
X116219Y-434141D01*
X117552Y-434674D01*
X118219Y-435741D01*
X118219Y-436808D01*
X117552Y-437874D01*
X116219Y-438408D01*
G54D10*
X291000Y-360000D02*
X291000Y-366000D01*
G54D10*
X292000Y-392000D02*
X292000Y-397000D01*
G54D10*
X266000Y-360000D02*
X266000Y-366000D01*
G54D10*
X266000Y-392000D02*
X266000Y-397000D01*
G54D10*
X292000Y-423000D02*
X292000Y-426000D01*
X296000Y-430000D01*
X310000Y-430000D01*
X317000Y-437000D01*
X317000Y-442000D01*
G54D10*
X266000Y-423000D02*
X266000Y-431000D01*
X270000Y-435000D01*
X287000Y-435000D01*
X291000Y-439000D01*
X291000Y-442000D01*
G54D10*
X202721Y-300513D02*
X209021Y-306813D01*
X221821Y-306813D01*
X228121Y-300513D01*
X228121Y-287713D01*
X221821Y-281413D01*
X209021Y-281413D01*
X202721Y-287713D01*
X202721Y-300513D01*
G54D10*
X228121Y-300513D02*
X234421Y-306813D01*
X247221Y-306813D01*
X253521Y-300513D01*
X253521Y-287713D01*
X247221Y-281413D01*
X234421Y-281413D01*
X228121Y-287713D01*
X228121Y-300513D01*
G54D10*
X253521Y-300513D02*
X259821Y-306813D01*
X272621Y-306813D01*
X278921Y-300513D01*
X278921Y-287713D01*
X272621Y-281413D01*
X259821Y-281413D01*
X253521Y-287713D01*
X253521Y-300513D01*
G54D11*
X285068Y-293306D02*
X286802Y-294750D01*
X287380Y-296194D01*
X287380Y-299083D01*
G54D11*
X282757Y-299083D02*
X282757Y-287528D01*
X285646Y-287528D01*
X286802Y-288250D01*
X287380Y-289694D01*
X287380Y-291139D01*
X286802Y-292583D01*
X285646Y-293306D01*
X282757Y-293306D01*
G54D11*
X291423Y-299083D02*
X291423Y-287528D01*
X294312Y-287528D01*
X295468Y-288250D01*
X296046Y-289694D01*
X296046Y-291139D01*
X295468Y-292583D01*
X294312Y-293306D01*
X295468Y-294028D01*
X296046Y-295472D01*
X296046Y-296917D01*
X295468Y-298361D01*
X294312Y-299083D01*
X291423Y-299083D01*
G54D11*
X291423Y-293306D02*
X294312Y-293306D01*
G54D11*
X300089Y-291861D02*
X302978Y-287528D01*
X302978Y-299083D01*
G54D10*
X107000Y-278000D02*
X107000Y-306000D01*
G54D11*
X249830Y-275268D02*
X249830Y-263712D01*
G54D11*
X254453Y-275268D02*
X254453Y-263712D01*
G54D11*
X249830Y-269490D02*
X254453Y-269490D01*
G54D11*
X258496Y-275268D02*
X258496Y-263712D01*
G54D11*
X222757Y-261528D02*
X222757Y-273083D01*
X226802Y-273083D01*
G54D11*
X235468Y-263694D02*
X235468Y-270917D01*
X234890Y-272361D01*
X233734Y-273083D01*
X232579Y-273083D01*
X231423Y-272361D01*
X230845Y-270917D01*
X230845Y-263694D01*
X231423Y-262250D01*
X232579Y-261528D01*
X233734Y-261528D01*
X234890Y-262250D01*
X235468Y-263694D01*
G54D10*
X183220Y-182640D02*
X165820Y-182640D01*
X165820Y-213040D01*
X183220Y-213040D01*
X183220Y-182640D01*
G36*
X183120Y-182740D02*
X166420Y-182740D01*
X166420Y-189940D01*
X183120Y-189940D01*
X183120Y-182740D01*
G37*
G54D10*
X183120Y-182740D02*
X166420Y-182740D01*
X166420Y-189940D01*
X183120Y-189940D01*
X183120Y-182740D01*
G54D10*
X174520Y-171640D02*
X174520Y-182740D01*
G54D10*
X174520Y-212940D02*
X174520Y-224040D01*
G54D11*
X149165Y-206240D02*
X149165Y-194684D01*
X152054Y-194684D01*
X153209Y-195407D01*
X153787Y-196851D01*
X153787Y-204073D01*
X153209Y-205518D01*
X152054Y-206240D01*
X149165Y-206240D01*
G54D11*
X157831Y-199018D02*
X160720Y-194684D01*
X160720Y-206240D01*
G54D14*
X184000Y-39778D02*
X184000Y-16667D01*
X189778Y-16667D01*
X192089Y-18111D01*
X193244Y-21000D01*
X193244Y-35445D01*
X192089Y-38334D01*
X189778Y-39778D01*
X184000Y-39778D01*
G54D14*
X210578Y-35445D02*
X209422Y-38334D01*
X207111Y-39778D01*
X204800Y-39778D01*
X202488Y-38334D01*
X201333Y-35445D01*
X201333Y-21000D01*
X202488Y-18111D01*
X204800Y-16667D01*
X207111Y-16667D01*
X209422Y-18111D01*
X210578Y-21000D01*
G54D14*
X218666Y-39778D02*
X218666Y-16667D01*
G54D14*
X226755Y-39778D02*
X226755Y-16667D01*
X236000Y-39778D01*
X236000Y-16667D01*
G54D15*
X206000Y-49000D02*
X206000Y-94000D01*
G36*
X201000Y-79000D02*
X211000Y-79000D01*
X206000Y-94000D01*
X201000Y-79000D01*
G37*
G54D15*
X201000Y-79000D02*
X211000Y-79000D01*
X206000Y-94000D01*
X201000Y-79000D01*
G54D14*
X256044Y-39778D02*
X256044Y-16667D01*
X261822Y-16667D01*
X264133Y-18111D01*
X265288Y-21000D01*
X265288Y-35445D01*
X264133Y-38334D01*
X261822Y-39778D01*
X256044Y-39778D01*
G54D14*
X282621Y-35445D02*
X281466Y-38334D01*
X279155Y-39778D01*
X276844Y-39778D01*
X274533Y-38334D01*
X273377Y-35445D01*
X273377Y-21000D01*
X274533Y-18111D01*
X276844Y-16667D01*
X279155Y-16667D01*
X281466Y-18111D01*
X282621Y-21000D01*
G54D14*
X299954Y-21000D02*
X299954Y-35445D01*
X298799Y-38334D01*
X296488Y-39778D01*
X294177Y-39778D01*
X291866Y-38334D01*
X290710Y-35445D01*
X290710Y-21000D01*
X291866Y-18111D01*
X294177Y-16667D01*
X296488Y-16667D01*
X298799Y-18111D01*
X299954Y-21000D01*
G54D14*
X308043Y-16667D02*
X308043Y-35445D01*
X309199Y-38334D01*
X311510Y-39778D01*
X313821Y-39778D01*
X316132Y-38334D01*
X317287Y-35445D01*
X317287Y-16667D01*
G54D14*
X329998Y-39778D02*
X329998Y-16667D01*
G54D14*
X325376Y-16667D02*
X334620Y-16667D01*
G54D15*
X295000Y-94000D02*
X295000Y-49000D01*
G36*
X290000Y-64000D02*
X300000Y-64000D01*
X295000Y-49000D01*
X290000Y-64000D01*
G37*
G54D15*
X290000Y-64000D02*
X300000Y-64000D01*
X295000Y-49000D01*
X290000Y-64000D01*
G54D16*
X399968Y-300039D02*
X405301Y-278705D01*
X410634Y-300039D01*
G54D16*
X402101Y-292039D02*
X408501Y-292039D01*
G54D16*
X418102Y-278705D02*
X418102Y-300039D01*
X425568Y-300039D01*
G54D16*
X433036Y-300039D02*
X438369Y-278705D01*
X443702Y-300039D01*
G54D16*
X435169Y-292039D02*
X441569Y-292039D01*
G54D16*
X455436Y-289372D02*
X458636Y-292039D01*
X459703Y-294705D01*
X459703Y-300039D01*
G54D16*
X451170Y-300039D02*
X451170Y-278705D01*
X456503Y-278705D01*
X458636Y-280039D01*
X459703Y-282705D01*
X459703Y-285372D01*
X458636Y-288039D01*
X456503Y-289372D01*
X451170Y-289372D01*
G54D16*
X467170Y-300039D02*
X467170Y-278705D01*
X472503Y-292039D01*
X477836Y-278705D01*
X477836Y-300039D01*
G54D11*
X408635Y-359646D02*
X408635Y-348090D01*
X411524Y-348090D01*
X412679Y-348813D01*
X413257Y-350257D01*
X413257Y-351702D01*
X412679Y-353146D01*
X411524Y-353868D01*
X412679Y-354590D01*
X413257Y-356035D01*
X413257Y-357479D01*
X412679Y-358924D01*
X411524Y-359646D01*
X408635Y-359646D01*
G54D11*
X408635Y-353868D02*
X411524Y-353868D01*
G54D11*
X417301Y-348090D02*
X417301Y-357479D01*
X417878Y-358924D01*
X419034Y-359646D01*
X420190Y-359646D01*
X421345Y-358924D01*
X421923Y-357479D01*
X421923Y-348090D01*
G54D11*
X425967Y-348090D02*
X430589Y-348090D01*
X425967Y-359646D01*
X430589Y-359646D01*
G54D11*
X434633Y-348090D02*
X439255Y-348090D01*
X434633Y-359646D01*
X439255Y-359646D01*
G54D11*
X447343Y-359646D02*
X443299Y-359646D01*
X443299Y-348090D01*
X447343Y-348090D01*
G54D11*
X443299Y-353868D02*
X447343Y-353868D01*
G54D11*
X453698Y-353868D02*
X455431Y-355313D01*
X456009Y-356757D01*
X456009Y-359646D01*
G54D11*
X451387Y-359646D02*
X451387Y-348090D01*
X454276Y-348090D01*
X455431Y-348813D01*
X456009Y-350257D01*
X456009Y-351702D01*
X455431Y-353146D01*
X454276Y-353868D01*
X451387Y-353868D01*
G54D11*
X418126Y-375528D02*
X413504Y-375528D01*
X413504Y-374806D01*
X414081Y-373361D01*
X417548Y-369028D01*
X418126Y-367584D01*
X418126Y-366139D01*
X417548Y-364695D01*
X416392Y-363972D01*
X415237Y-363972D01*
X414081Y-364695D01*
X413504Y-366139D01*
G54D11*
X422170Y-375528D02*
X422170Y-375528D01*
G54D11*
X429680Y-375528D02*
X429680Y-363972D01*
X426214Y-371195D01*
X426214Y-372639D01*
X430836Y-372639D01*
G54D11*
X434880Y-375528D02*
X434880Y-363972D01*
G54D11*
X436613Y-371195D02*
X438346Y-375528D01*
G54D11*
X434880Y-372639D02*
X438346Y-369028D01*
G54D11*
X442391Y-375528D02*
X442391Y-363972D01*
G54D11*
X447013Y-375528D02*
X447013Y-363972D01*
G54D11*
X442391Y-369750D02*
X447013Y-369750D01*
G54D11*
X451057Y-369028D02*
X454523Y-369028D01*
X451057Y-375528D01*
X454523Y-375528D01*
G54D10*
G75*
G01X146137Y-211718D02*
G03X135188Y-197448I-22699J-6082D01*
G01*
G36*
X342500Y-309500D02*
X335000Y-327000D01*
X331500Y-325000D01*
X323000Y-330500D01*
X315000Y-323000D01*
X321000Y-314500D01*
X318000Y-306000D01*
X307500Y-304000D01*
X307500Y-293500D01*
X317500Y-291500D01*
X321500Y-283000D01*
X315500Y-274500D01*
X323000Y-267500D01*
X331500Y-273000D01*
X339500Y-270000D01*
X341500Y-259000D01*
X352000Y-259000D01*
X354500Y-270000D01*
X362500Y-273000D01*
X371000Y-267000D01*
X378500Y-274500D01*
X372500Y-283500D01*
X376500Y-291500D01*
X386500Y-293500D01*
X386500Y-304000D01*
X376500Y-306000D01*
X373000Y-314500D01*
X378500Y-323000D01*
X371000Y-330500D01*
X363000Y-324500D01*
X359000Y-327000D01*
X351500Y-309500D01*
X354000Y-307500D01*
X356000Y-305500D01*
X357500Y-303000D01*
X358000Y-300500D01*
X358000Y-297500D01*
X357500Y-295000D01*
X356000Y-292000D01*
X354000Y-290000D01*
X351500Y-288500D01*
X349000Y-287500D01*
X346500Y-287500D01*
X344000Y-288000D01*
X340500Y-289500D01*
X338000Y-292000D01*
X336500Y-294500D01*
X336000Y-296500D01*
X336000Y-299500D01*
X336500Y-303000D01*
X338000Y-305500D01*
X340000Y-307500D01*
X342500Y-309500D01*
G37*
G54D17*
X342500Y-309500D02*
X335000Y-327000D01*
X331500Y-325000D01*
X323000Y-330500D01*
X315000Y-323000D01*
X321000Y-314500D01*
X318000Y-306000D01*
X307500Y-304000D01*
X307500Y-293500D01*
X317500Y-291500D01*
X321500Y-283000D01*
X315500Y-274500D01*
X323000Y-267500D01*
X331500Y-273000D01*
X339500Y-270000D01*
X341500Y-259000D01*
X352000Y-259000D01*
X354500Y-270000D01*
X362500Y-273000D01*
X371000Y-267000D01*
X378500Y-274500D01*
X372500Y-283500D01*
X376500Y-291500D01*
X386500Y-293500D01*
X386500Y-304000D01*
X376500Y-306000D01*
X373000Y-314500D01*
X378500Y-323000D01*
X371000Y-330500D01*
X363000Y-324500D01*
X359000Y-327000D01*
X351500Y-309500D01*
X354000Y-307500D01*
X356000Y-305500D01*
X357500Y-303000D01*
X358000Y-300500D01*
X358000Y-297500D01*
X357500Y-295000D01*
X356000Y-292000D01*
X354000Y-290000D01*
X351500Y-288500D01*
X349000Y-287500D01*
X346500Y-287500D01*
X344000Y-288000D01*
X340500Y-289500D01*
X338000Y-292000D01*
X336500Y-294500D01*
X336000Y-296500D01*
X336000Y-299500D01*
X336500Y-303000D01*
X338000Y-305500D01*
X340000Y-307500D01*
X342500Y-309500D01*
G54D14*
X194721Y-128928D02*
X194721Y-105816D01*
X200499Y-105816D01*
X202810Y-107261D01*
X203966Y-110150D01*
X203966Y-113039D01*
X202810Y-115928D01*
X200499Y-117372D01*
X194721Y-117372D01*
G54D14*
X221299Y-110150D02*
X221299Y-124594D01*
X220143Y-127483D01*
X217832Y-128928D01*
X215521Y-128928D01*
X213210Y-127483D01*
X212054Y-124594D01*
X212054Y-110150D01*
X213210Y-107261D01*
X215521Y-105816D01*
X217832Y-105816D01*
X220143Y-107261D01*
X221299Y-110150D01*
G54D14*
X229387Y-105816D02*
X229387Y-128928D01*
X235165Y-114483D01*
X240943Y-128928D01*
X240943Y-105816D01*
G54D14*
X257121Y-128928D02*
X249032Y-128928D01*
X249032Y-105816D01*
X257121Y-105816D01*
G54D14*
X249032Y-117372D02*
X257121Y-117372D01*
G54D14*
X269832Y-117372D02*
X273299Y-120261D01*
X274455Y-123150D01*
X274455Y-128928D01*
G54D14*
X265210Y-128928D02*
X265210Y-105816D01*
X270988Y-105816D01*
X273299Y-107261D01*
X274455Y-110150D01*
X274455Y-113039D01*
X273299Y-115928D01*
X270988Y-117372D01*
X265210Y-117372D01*
G54D14*
X194721Y-159428D02*
X194721Y-136316D01*
X200499Y-150761D01*
X206277Y-136316D01*
X206277Y-159428D01*
G54D14*
X223611Y-140650D02*
X223611Y-155094D01*
X222455Y-157983D01*
X220144Y-159428D01*
X217833Y-159428D01*
X215522Y-157983D01*
X214366Y-155094D01*
X214366Y-140650D01*
X215522Y-137761D01*
X217833Y-136316D01*
X220144Y-136316D01*
X222455Y-137761D01*
X223611Y-140650D01*
G54D14*
X231699Y-159428D02*
X231699Y-136316D01*
X240944Y-159428D01*
X240944Y-136316D01*
G54D14*
X249032Y-159428D02*
X249032Y-136316D01*
G54D14*
X261743Y-159428D02*
X261743Y-136316D01*
G54D14*
X257121Y-136316D02*
X266366Y-136316D01*
G54D14*
X283699Y-140650D02*
X283699Y-155094D01*
X282543Y-157983D01*
X280232Y-159428D01*
X277921Y-159428D01*
X275610Y-157983D01*
X274454Y-155094D01*
X274454Y-140650D01*
X275610Y-137761D01*
X277921Y-136316D01*
X280232Y-136316D01*
X282543Y-137761D01*
X283699Y-140650D01*
G54D14*
X296409Y-147872D02*
X299876Y-150761D01*
X301032Y-153650D01*
X301032Y-159428D01*
G54D14*
X291787Y-159428D02*
X291787Y-136316D01*
X297565Y-136316D01*
X299876Y-137761D01*
X301032Y-140650D01*
X301032Y-143539D01*
X299876Y-146428D01*
X297565Y-147872D01*
X291787Y-147872D01*
G54D18*
X193721Y-180928D02*
X193721Y-166705D01*
X197277Y-166705D01*
X198699Y-167594D01*
X199410Y-169372D01*
X199410Y-178261D01*
X198699Y-180039D01*
X197277Y-180928D01*
X193721Y-180928D01*
G54D18*
X208655Y-180039D02*
X207517Y-180928D01*
X206095Y-180928D01*
X204673Y-180039D01*
X204388Y-178261D01*
X204388Y-175239D01*
X205099Y-173461D01*
X206522Y-172928D01*
X207944Y-173461D01*
X208655Y-174705D01*
X208655Y-176483D01*
X204388Y-176483D01*
G54D18*
X213633Y-180039D02*
X215056Y-180928D01*
X216478Y-180928D01*
X217900Y-180039D01*
X217900Y-178261D01*
X217189Y-177372D01*
X214344Y-176483D01*
X213633Y-175594D01*
X213633Y-173816D01*
X215056Y-172928D01*
X216478Y-172928D01*
X217900Y-173816D01*
G54D18*
X222878Y-180928D02*
X222878Y-172928D01*
G54D18*
X222878Y-170261D02*
X222878Y-170261D01*
G54D18*
X227856Y-183594D02*
X229278Y-184483D01*
X230274Y-184483D01*
X231696Y-183594D01*
X232123Y-181816D01*
X232123Y-172928D01*
G54D18*
X232123Y-175239D02*
X231412Y-173461D01*
X229990Y-172928D01*
X228567Y-173461D01*
X227856Y-175239D01*
X227856Y-178794D01*
X228567Y-180572D01*
X229990Y-180928D01*
X231412Y-180572D01*
X232123Y-178794D01*
G54D18*
X237101Y-180928D02*
X237101Y-172928D01*
G54D18*
X237101Y-174705D02*
X237812Y-173461D01*
X239235Y-172928D01*
X240657Y-173461D01*
X241368Y-174705D01*
X241368Y-180928D01*
G54D18*
X246346Y-180928D02*
X246346Y-180928D01*
G54D18*
X246346Y-172928D02*
X246346Y-172928D01*
G54D18*
X256444Y-180928D02*
X256444Y-166705D01*
X260000Y-166705D01*
X261422Y-167594D01*
X262133Y-169372D01*
X262133Y-171150D01*
X261422Y-172928D01*
X260000Y-173816D01*
X256444Y-173816D01*
G54D18*
X267111Y-180928D02*
X267111Y-172928D01*
G54D18*
X267111Y-170261D02*
X267111Y-170261D01*
G54D18*
X276356Y-178794D02*
X276356Y-175239D01*
X275645Y-173461D01*
X274223Y-172928D01*
X272800Y-173461D01*
X272089Y-175239D01*
X272089Y-178794D01*
X272800Y-180572D01*
X274223Y-180928D01*
X275645Y-180572D01*
X276356Y-178794D01*
G54D18*
X282756Y-166705D02*
X282756Y-180039D01*
X283468Y-180928D01*
X284179Y-180572D01*
G54D18*
X281334Y-172928D02*
X284179Y-172928D01*
G54D18*
X289156Y-180928D02*
X289156Y-172928D01*
G54D18*
X289156Y-174705D02*
X290578Y-172928D01*
X292001Y-172928D01*
G54D18*
X302098Y-166705D02*
X307787Y-166705D01*
X302098Y-180928D01*
X307787Y-180928D01*
G54D18*
X312765Y-173816D02*
X314188Y-172928D01*
X315894Y-172928D01*
X317032Y-174705D01*
X317032Y-180928D01*
G54D18*
X317032Y-178261D02*
X316321Y-176483D01*
X314899Y-176128D01*
X313476Y-176483D01*
X312765Y-178261D01*
X313050Y-180039D01*
X314188Y-180928D01*
X314899Y-180928D01*
X315183Y-180928D01*
X316321Y-180039D01*
X317032Y-178261D01*
G54D18*
X322010Y-172928D02*
X322010Y-184483D01*
G54D18*
X322010Y-178261D02*
X322721Y-180572D01*
X324144Y-180928D01*
X325566Y-180572D01*
X326277Y-178794D01*
X326277Y-175239D01*
X325566Y-173461D01*
X324144Y-172928D01*
X322721Y-173461D01*
X322010Y-175594D01*
G54D18*
X331255Y-173816D02*
X332678Y-172928D01*
X334384Y-172928D01*
X335522Y-174705D01*
X335522Y-180928D01*
G54D18*
X335522Y-178261D02*
X334811Y-176483D01*
X333389Y-176128D01*
X331966Y-176483D01*
X331255Y-178261D01*
X331540Y-180039D01*
X332678Y-180928D01*
X333389Y-180928D01*
X333673Y-180928D01*
X334811Y-180039D01*
X335522Y-178261D01*
G54D18*
X340500Y-180928D02*
X340500Y-172928D01*
G54D18*
X340500Y-174705D02*
X341922Y-172928D01*
X343345Y-172928D01*
G54D18*
X349744Y-166705D02*
X349744Y-180039D01*
X350456Y-180928D01*
X351167Y-180572D01*
G54D18*
X348322Y-172928D02*
X351167Y-172928D01*
G54D18*
X193721Y-191928D02*
X195855Y-199928D01*
X197988Y-191928D01*
X200121Y-199928D01*
X201544Y-191928D01*
G54D18*
X206521Y-191928D02*
X208655Y-199928D01*
X210788Y-191928D01*
X212921Y-199928D01*
X214344Y-191928D01*
G54D18*
X219321Y-191928D02*
X221455Y-199928D01*
X223588Y-191928D01*
X225721Y-199928D01*
X227144Y-191928D01*
G54D18*
X232121Y-199928D02*
X232121Y-199928D01*
G54D18*
X237099Y-199928D02*
X237099Y-185705D01*
G54D18*
X237099Y-194239D02*
X237810Y-192461D01*
X239233Y-191928D01*
X240655Y-192461D01*
X241366Y-194239D01*
X241366Y-199928D01*
G54D18*
X250611Y-199039D02*
X249473Y-199928D01*
X248051Y-199928D01*
X246629Y-199039D01*
X246344Y-197261D01*
X246344Y-194239D01*
X247055Y-192461D01*
X248478Y-191928D01*
X249900Y-192461D01*
X250611Y-193705D01*
X250611Y-195483D01*
X246344Y-195483D01*
G54D18*
X255589Y-191928D02*
X261278Y-199928D01*
G54D18*
X255589Y-199928D02*
X261278Y-191928D01*
G54D18*
X270523Y-199039D02*
X269385Y-199928D01*
X267963Y-199928D01*
X266541Y-199039D01*
X266256Y-197261D01*
X266256Y-194239D01*
X266967Y-192461D01*
X268390Y-191928D01*
X269812Y-192461D01*
X270523Y-193705D01*
X270523Y-195483D01*
X266256Y-195483D01*
G54D18*
X275501Y-202594D02*
X276924Y-203483D01*
X277919Y-203483D01*
X279341Y-202594D01*
X279768Y-200816D01*
X279768Y-191928D01*
G54D18*
X279768Y-194239D02*
X279057Y-192461D01*
X277635Y-191928D01*
X276212Y-192461D01*
X275501Y-194239D01*
X275501Y-197794D01*
X276212Y-199572D01*
X277635Y-199928D01*
X279057Y-199572D01*
X279768Y-197794D01*
G54D18*
X289013Y-191928D02*
X289013Y-199928D01*
G54D18*
X289013Y-198150D02*
X288302Y-199572D01*
X286880Y-199928D01*
X285457Y-199572D01*
X284746Y-198150D01*
X284746Y-191928D01*
G54D18*
X293991Y-199928D02*
X293991Y-191928D01*
G54D18*
X293991Y-189261D02*
X293991Y-189261D01*
G54D18*
X300392Y-185705D02*
X300392Y-199039D01*
X301103Y-199928D01*
X301814Y-199572D01*
G54D18*
X298969Y-191928D02*
X301814Y-191928D01*
G54D18*
X306791Y-192816D02*
X308214Y-191928D01*
X309920Y-191928D01*
X311058Y-193705D01*
X311058Y-199928D01*
G54D18*
X311058Y-197261D02*
X310347Y-195483D01*
X308925Y-195128D01*
X307502Y-195483D01*
X306791Y-197261D01*
X307076Y-199039D01*
X308214Y-199928D01*
X308925Y-199928D01*
X309209Y-199928D01*
X310347Y-199039D01*
X311058Y-197261D01*
G54D18*
X316036Y-199928D02*
X316036Y-191928D01*
G54D18*
X316036Y-193705D02*
X317458Y-191928D01*
X318881Y-191928D01*
G54D18*
X323858Y-199928D02*
X323858Y-199928D01*
G54D18*
X332392Y-192461D02*
X330970Y-191928D01*
X329547Y-192461D01*
X328836Y-194239D01*
X328836Y-197794D01*
X329547Y-199572D01*
X330970Y-199928D01*
X332392Y-199572D01*
G54D18*
X341637Y-197794D02*
X341637Y-194239D01*
X340926Y-192461D01*
X339504Y-191928D01*
X338081Y-192461D01*
X337370Y-194239D01*
X337370Y-197794D01*
X338081Y-199572D01*
X339504Y-199928D01*
X340926Y-199572D01*
X341637Y-197794D01*
G54D18*
X346615Y-199928D02*
X346615Y-191928D01*
G54D18*
X346615Y-193350D02*
X348038Y-191928D01*
X349460Y-192461D01*
X350171Y-193705D01*
X350171Y-199928D01*
G54D18*
X350171Y-193350D02*
X351593Y-191928D01*
X353015Y-192461D01*
X353726Y-193705D01*
X353726Y-199928D01*
G54D10*
X241000Y-360000D02*
X241000Y-366000D01*
G54D10*
X216000Y-360000D02*
X216000Y-366000D01*
G54D10*
X337889Y-54692D02*
X337889Y-4692D01*
G54D10*
X159889Y-98692D02*
X177889Y-98692D01*
G54D10*
X107889Y-98692D02*
X97889Y-98692D01*
G54D10*
X177889Y-98692D02*
X177889Y-1692D01*
G54D10*
X167889Y-98692D02*
X167889Y-1692D01*
G54D10*
X97889Y-61692D02*
X97889Y-2692D01*
G54D10*
X429492Y-122614D02*
X429492Y-140014D01*
X459892Y-140014D01*
X459892Y-122614D01*
X429492Y-122614D01*
G36*
X429592Y-122715D02*
X429592Y-139414D01*
X436792Y-139414D01*
X436792Y-122715D01*
X429592Y-122715D01*
G37*
G54D10*
X429592Y-122715D02*
X429592Y-139414D01*
X436792Y-139414D01*
X436792Y-122715D01*
X429592Y-122715D01*
G54D10*
X418492Y-131314D02*
X429592Y-131314D01*
G54D10*
X459792Y-131314D02*
X470892Y-131314D01*
G54D11*
X464093Y-117669D02*
X452537Y-117669D01*
X452537Y-114780D01*
X453260Y-113625D01*
X454704Y-113047D01*
X461926Y-113047D01*
X463371Y-113625D01*
X464093Y-114780D01*
X464093Y-117669D01*
G54D11*
X464093Y-104381D02*
X464093Y-109003D01*
X463371Y-109003D01*
X461926Y-108426D01*
X457593Y-104959D01*
X456148Y-104381D01*
X454704Y-104381D01*
X453260Y-104959D01*
X452537Y-106114D01*
X452537Y-107270D01*
X453260Y-108426D01*
X454704Y-109003D01*
G54D10*
G75*
G01X73000Y-39000D02*
G03X73000Y-39000I-30000J0D01*
G01*
G36*
X33500Y-388000D02*
X17000Y-363000D01*
X46000Y-375000D01*
X48000Y-373000D01*
X41000Y-366500D01*
X40500Y-364000D01*
X43000Y-363000D01*
X43500Y-364500D01*
X48000Y-363000D01*
X48000Y-361000D01*
X50000Y-361000D01*
X52000Y-364500D01*
X55000Y-360500D01*
X57500Y-352500D01*
X62000Y-348000D01*
X64500Y-346500D01*
X69000Y-338000D01*
X75000Y-328500D01*
X76000Y-325000D01*
X75000Y-323000D01*
X70000Y-323000D01*
X67500Y-325000D01*
X65500Y-326000D01*
X63500Y-321000D01*
X64500Y-317500D01*
X67500Y-315000D01*
X73500Y-313500D01*
X79000Y-313000D01*
X84500Y-315500D01*
X90000Y-319500D01*
X93000Y-321000D01*
X97000Y-322000D01*
X104500Y-320500D01*
X110500Y-319000D01*
X115500Y-319500D01*
X121000Y-322500D01*
X123500Y-326500D01*
X120500Y-328500D01*
X114000Y-330500D01*
X103500Y-329000D01*
X103500Y-333000D01*
X104500Y-336500D01*
X102000Y-338500D01*
X105500Y-340000D01*
X110500Y-342000D01*
X114000Y-344500D01*
X112000Y-346500D01*
X104000Y-349500D01*
X96500Y-349500D01*
X93000Y-347500D01*
X90000Y-349000D01*
X93500Y-352000D01*
X96000Y-360500D01*
X99000Y-364500D01*
X102500Y-367000D01*
X91000Y-373000D01*
X88500Y-367500D01*
X85500Y-363500D01*
X80000Y-365000D01*
X80000Y-369500D01*
X80500Y-375000D01*
X34500Y-388500D01*
X33500Y-388000D01*
G37*
G54D10*
X33500Y-388000D02*
X17000Y-363000D01*
X46000Y-375000D01*
X48000Y-373000D01*
X41000Y-366500D01*
X40500Y-364000D01*
X43000Y-363000D01*
X43500Y-364500D01*
X48000Y-363000D01*
X48000Y-361000D01*
X50000Y-361000D01*
X52000Y-364500D01*
X55000Y-360500D01*
X57500Y-352500D01*
X62000Y-348000D01*
X64500Y-346500D01*
X69000Y-338000D01*
X75000Y-328500D01*
X76000Y-325000D01*
X75000Y-323000D01*
X70000Y-323000D01*
X67500Y-325000D01*
X65500Y-326000D01*
X63500Y-321000D01*
X64500Y-317500D01*
X67500Y-315000D01*
X73500Y-313500D01*
X79000Y-313000D01*
X84500Y-315500D01*
X90000Y-319500D01*
X93000Y-321000D01*
X97000Y-322000D01*
X104500Y-320500D01*
X110500Y-319000D01*
X115500Y-319500D01*
X121000Y-322500D01*
X123500Y-326500D01*
X120500Y-328500D01*
X114000Y-330500D01*
X103500Y-329000D01*
X103500Y-333000D01*
X104500Y-336500D01*
X102000Y-338500D01*
X105500Y-340000D01*
X110500Y-342000D01*
X114000Y-344500D01*
X112000Y-346500D01*
X104000Y-349500D01*
X96500Y-349500D01*
X93000Y-347500D01*
X90000Y-349000D01*
X93500Y-352000D01*
X96000Y-360500D01*
X99000Y-364500D01*
X102500Y-367000D01*
X91000Y-373000D01*
X88500Y-367500D01*
X85500Y-363500D01*
X80000Y-365000D01*
X80000Y-369500D01*
X80500Y-375000D01*
X34500Y-388500D01*
X33500Y-388000D01*
G36*
X102500Y-367000D02*
X106500Y-367500D01*
X113500Y-366000D01*
X117500Y-364000D01*
X117000Y-360500D01*
X121000Y-359500D01*
X133500Y-364500D01*
X138000Y-367000D01*
X141500Y-371500D01*
X141000Y-376500D01*
X138500Y-379000D01*
X131500Y-377500D01*
X127000Y-378500D01*
X123500Y-377500D01*
X121500Y-374500D01*
X112500Y-377500D01*
X110500Y-379500D01*
X103500Y-381000D01*
X101500Y-379500D01*
X98500Y-382500D01*
X99500Y-387000D01*
X96500Y-389000D01*
X94000Y-383000D01*
X91000Y-382500D01*
X86000Y-383500D01*
X83000Y-383000D01*
X79939Y-386894D01*
X74000Y-387000D01*
X71500Y-386000D01*
X69500Y-388000D01*
X61500Y-391000D01*
X56000Y-394500D01*
X47500Y-404000D01*
X39500Y-412500D01*
X34500Y-417000D01*
X30500Y-417500D01*
X34000Y-403500D01*
X34500Y-388500D01*
X80500Y-375000D01*
X91000Y-373000D01*
X102500Y-367000D01*
G37*
G54D10*
X102500Y-367000D02*
X106500Y-367500D01*
X113500Y-366000D01*
X117500Y-364000D01*
X117000Y-360500D01*
X121000Y-359500D01*
X133500Y-364500D01*
X138000Y-367000D01*
X141500Y-371500D01*
X141000Y-376500D01*
X138500Y-379000D01*
X131500Y-377500D01*
X127000Y-378500D01*
X123500Y-377500D01*
X121500Y-374500D01*
X112500Y-377500D01*
X110500Y-379500D01*
X103500Y-381000D01*
X101500Y-379500D01*
X98500Y-382500D01*
X99500Y-387000D01*
X96500Y-389000D01*
X94000Y-383000D01*
X91000Y-382500D01*
X86000Y-383500D01*
X83000Y-383000D01*
X79939Y-386894D01*
X74000Y-387000D01*
X71500Y-386000D01*
X69500Y-388000D01*
X61500Y-391000D01*
X56000Y-394500D01*
X47500Y-404000D01*
X39500Y-412500D01*
X34500Y-417000D01*
X30500Y-417500D01*
X34000Y-403500D01*
X34500Y-388500D01*
X80500Y-375000D01*
X91000Y-373000D01*
X102500Y-367000D01*
G54D11*
X260476Y-218462D02*
X262209Y-219907D01*
X262787Y-221351D01*
X262787Y-224240D01*
G54D11*
X258165Y-224240D02*
X258165Y-212684D01*
X261054Y-212684D01*
X262209Y-213407D01*
X262787Y-214851D01*
X262787Y-216296D01*
X262209Y-217740D01*
X261054Y-218462D01*
X258165Y-218462D01*
G54D11*
X270297Y-223518D02*
X269373Y-224240D01*
X268217Y-224240D01*
X267062Y-223518D01*
X266831Y-222073D01*
X266831Y-219618D01*
X267408Y-218173D01*
X268564Y-217740D01*
X269720Y-218173D01*
X270297Y-219184D01*
X270297Y-220629D01*
X266831Y-220629D01*
G54D11*
X274342Y-217740D02*
X276653Y-224240D01*
X278964Y-217740D01*
G54D11*
X283008Y-224240D02*
X283008Y-224240D01*
G54D11*
X295834Y-224240D02*
X291212Y-224240D01*
X291212Y-223518D01*
X291789Y-222073D01*
X295256Y-217740D01*
X295834Y-216296D01*
X295834Y-214851D01*
X295256Y-213407D01*
X294100Y-212684D01*
X292945Y-212684D01*
X291789Y-213407D01*
X291212Y-214851D01*
G54D11*
X299878Y-224240D02*
X299878Y-224240D01*
G54D11*
X308544Y-214851D02*
X308544Y-222073D01*
X307966Y-223518D01*
X306810Y-224240D01*
X305655Y-224240D01*
X304499Y-223518D01*
X303922Y-222073D01*
X303922Y-214851D01*
X304499Y-213407D01*
X305655Y-212684D01*
X306810Y-212684D01*
X307966Y-213407D01*
X308544Y-214851D01*
M02*
