%FSLAX34Y34*%
%MOMM*%
%LNSOLDERMASK_TOP*%
G71*
G01*
%ADD10C, 2.400*%
%ADD11C, 3.300*%
%ADD12C, 2.400*%
%ADD13C, 2.000*%
%ADD14C, 2.000*%
%ADD15C, 4.900*%
%ADD16C, 3.700*%
%ADD17C, 2.100*%
%ADD18C, 1.100*%
%LPD*%
X39119Y-164850D02*
G54D10*
D03*
X62019Y-164850D02*
G54D10*
D03*
X84919Y-164850D02*
G54D10*
D03*
X431033Y-397986D02*
G54D10*
D03*
G36*
X443033Y-320986D02*
X443033Y-344986D01*
X419033Y-344986D01*
X419033Y-320986D01*
X443033Y-320986D01*
G37*
G54D11*
X456402Y-260837D02*
X427402Y-260837D01*
G54D11*
X456402Y-165837D02*
X427402Y-165837D01*
X366902Y-213337D02*
G54D12*
D03*
X366902Y-238337D02*
G54D12*
D03*
X366902Y-188337D02*
G54D12*
D03*
X212453Y-348099D02*
G54D13*
D03*
X237853Y-348099D02*
G54D13*
D03*
X263254Y-348099D02*
G54D13*
D03*
G36*
X278653Y-358099D02*
X278653Y-338099D01*
X298653Y-338099D01*
X298653Y-358099D01*
X278653Y-358099D01*
G37*
X212441Y-379931D02*
G54D13*
D03*
X237842Y-379931D02*
G54D13*
D03*
X263242Y-379931D02*
G54D13*
D03*
G36*
X278642Y-389931D02*
X278642Y-369931D01*
X298642Y-369931D01*
X298642Y-389931D01*
X278642Y-389931D01*
G37*
X105033Y-221986D02*
G54D14*
D03*
X135989Y-221986D02*
G54D14*
D03*
X120907Y-201349D02*
G54D14*
D03*
X137080Y-157287D02*
G54D14*
D03*
G36*
X147079Y-167287D02*
X147079Y-187287D01*
X127079Y-187287D01*
X127079Y-167287D01*
X147079Y-167287D01*
G37*
X378122Y-46878D02*
G54D15*
D03*
X378122Y-106878D02*
G54D15*
D03*
X328322Y-81978D02*
G54D16*
D03*
G36*
X85698Y-272031D02*
X85698Y-252031D01*
X105698Y-252031D01*
X105698Y-272031D01*
X85698Y-272031D01*
G37*
X121098Y-262031D02*
G54D13*
D03*
X146499Y-262031D02*
G54D13*
D03*
X171898Y-262031D02*
G54D13*
D03*
X197298Y-262031D02*
G54D13*
D03*
X85491Y-193135D02*
G54D14*
D03*
X34691Y-193135D02*
G54D14*
D03*
X36522Y-136374D02*
G54D10*
D03*
X61922Y-136374D02*
G54D10*
D03*
X87322Y-136374D02*
G54D10*
D03*
X344033Y-141986D02*
G54D14*
D03*
G36*
X334033Y-151986D02*
X314033Y-151986D01*
X314033Y-131986D01*
X334033Y-131986D01*
X334033Y-151986D01*
G37*
G36*
X323196Y-445843D02*
X323196Y-465843D01*
X303196Y-465843D01*
X303196Y-445843D01*
X323196Y-445843D01*
G37*
X287796Y-455843D02*
G54D13*
D03*
X262396Y-455844D02*
G54D13*
D03*
X236996Y-455843D02*
G54D13*
D03*
X211596Y-455843D02*
G54D13*
D03*
X186196Y-455843D02*
G54D13*
D03*
X160796Y-455844D02*
G54D13*
D03*
X135396Y-455844D02*
G54D13*
D03*
X212453Y-411099D02*
G54D13*
D03*
X237853Y-411099D02*
G54D13*
D03*
X263254Y-411099D02*
G54D13*
D03*
G36*
X278653Y-421099D02*
X278653Y-401099D01*
X298653Y-401099D01*
X298653Y-421099D01*
X278653Y-421099D01*
G37*
X110033Y-455986D02*
G54D13*
D03*
X212454Y-295099D02*
G54D13*
D03*
X237853Y-295099D02*
G54D13*
D03*
X263253Y-295099D02*
G54D13*
D03*
X171552Y-160726D02*
G54D13*
D03*
X171552Y-236926D02*
G54D13*
D03*
X130122Y-44878D02*
G54D15*
D03*
X130122Y-104878D02*
G54D15*
D03*
X80322Y-79978D02*
G54D16*
D03*
X403625Y-132301D02*
G54D17*
D03*
X479825Y-132301D02*
G54D17*
D03*
X253033Y-257986D02*
G54D18*
D03*
X242033Y-257986D02*
G54D18*
D03*
M02*
