%FSLAX34Y34*%
%MOMM*%
%LNSILK_BOTTOM*%
G71*
G01*
%ADD10C, 0.200*%
%ADD11C, 0.222*%
%ADD12C, 0.206*%
%ADD13C, 0.500*%
%LPD*%
G54D10*
X102967Y-279314D02*
X162967Y-279314D01*
X162967Y-407614D01*
X102967Y-407614D01*
X102967Y-279314D01*
G54D11*
X123981Y-423261D02*
X123981Y-410817D01*
G54D11*
X114647Y-420928D02*
X115269Y-422483D01*
X116514Y-423261D01*
X117758Y-423261D01*
X119003Y-422483D01*
X119625Y-420928D01*
X119625Y-413150D01*
X119003Y-411594D01*
X117758Y-410817D01*
X116514Y-410817D01*
X115269Y-411594D01*
X114647Y-413150D01*
G54D11*
X105313Y-423261D02*
X110291Y-423261D01*
X110291Y-422483D01*
X109669Y-420928D01*
X105935Y-416261D01*
X105313Y-414705D01*
X105313Y-413150D01*
X105935Y-411594D01*
X107180Y-410817D01*
X108424Y-410817D01*
X109669Y-411594D01*
X110291Y-413150D01*
G54D10*
X249000Y-236489D02*
X277000Y-236489D01*
X277000Y-222489D01*
X249000Y-222489D01*
X249000Y-236489D01*
G36*
X249000Y-226489D02*
X253000Y-222489D01*
X249000Y-222489D01*
X249000Y-226489D01*
G37*
G54D10*
X249000Y-226489D02*
X253000Y-222489D01*
X249000Y-222489D01*
X249000Y-226489D01*
G54D12*
X281600Y-274154D02*
X281600Y-262598D01*
G54D12*
X272934Y-271987D02*
X273511Y-273431D01*
X274667Y-274154D01*
X275822Y-274154D01*
X276978Y-273431D01*
X277556Y-271987D01*
X277556Y-264765D01*
X276978Y-263320D01*
X275822Y-262598D01*
X274667Y-262598D01*
X273511Y-263320D01*
X272934Y-264765D01*
G54D12*
X268890Y-264765D02*
X268312Y-263320D01*
X267156Y-262598D01*
X266001Y-262598D01*
X264845Y-263320D01*
X264268Y-264765D01*
X264268Y-266209D01*
X264845Y-267654D01*
X266001Y-268376D01*
X264845Y-269098D01*
X264268Y-270542D01*
X264268Y-271987D01*
X264845Y-273431D01*
X266001Y-274154D01*
X267156Y-274154D01*
X268312Y-273431D01*
X268890Y-271987D01*
G54D10*
X49819Y-84888D02*
X29819Y-84888D01*
X29819Y-122888D01*
X49819Y-122888D01*
X49819Y-84888D01*
G54D12*
X62857Y-106484D02*
X61123Y-107929D01*
X60546Y-109373D01*
X60546Y-112262D01*
G54D12*
X65168Y-112262D02*
X65168Y-100707D01*
X62279Y-100707D01*
X61123Y-101429D01*
X60546Y-102873D01*
X60546Y-104318D01*
X61123Y-105762D01*
X62279Y-106484D01*
X65168Y-106484D01*
G54D12*
X56502Y-105040D02*
X53613Y-100707D01*
X53613Y-112262D01*
G54D10*
X127932Y-130896D02*
X107932Y-130896D01*
X107932Y-168896D01*
X127932Y-168896D01*
X127932Y-130896D01*
G54D12*
X119059Y-182460D02*
X119637Y-183904D01*
X120793Y-184627D01*
X121948Y-184627D01*
X123104Y-183904D01*
X123682Y-182460D01*
X123682Y-175238D01*
X123104Y-173793D01*
X121948Y-173071D01*
X120793Y-173071D01*
X119637Y-173793D01*
X119059Y-175238D01*
G54D12*
X110393Y-184627D02*
X115016Y-184627D01*
X115016Y-183904D01*
X114438Y-182460D01*
X110971Y-178126D01*
X110393Y-176682D01*
X110393Y-175238D01*
X110971Y-173793D01*
X112127Y-173071D01*
X113282Y-173071D01*
X114438Y-173793D01*
X115016Y-175238D01*
G54D10*
X241274Y-60940D02*
X293112Y-60940D01*
X293112Y-37403D01*
X241274Y-37403D01*
X241274Y-60940D01*
G54D10*
X241274Y-86940D02*
X293112Y-86940D01*
X293112Y-63403D01*
X241274Y-63403D01*
X241274Y-86940D01*
G54D10*
X241274Y-112940D02*
X293112Y-112940D01*
X293112Y-89403D01*
X241274Y-89403D01*
X241274Y-112940D01*
G54D10*
X241274Y-138940D02*
X293112Y-138940D01*
X293112Y-115403D01*
X241274Y-115403D01*
X241274Y-138940D01*
G54D10*
X241274Y-164940D02*
X293112Y-164940D01*
X293112Y-141403D01*
X241274Y-141403D01*
X241274Y-164940D01*
G54D10*
X185274Y-60940D02*
X237112Y-60940D01*
X237112Y-37403D01*
X185274Y-37403D01*
X185274Y-60940D01*
G54D12*
X282982Y-27493D02*
X281248Y-28938D01*
X280671Y-30382D01*
X280671Y-33271D01*
G54D12*
X285293Y-33271D02*
X285293Y-21716D01*
X282404Y-21716D01*
X281248Y-22438D01*
X280671Y-23882D01*
X280671Y-25327D01*
X281248Y-26771D01*
X282404Y-27493D01*
X285293Y-27493D01*
G54D12*
X272005Y-21716D02*
X276627Y-21716D01*
X276627Y-26771D01*
X276049Y-26771D01*
X274894Y-26049D01*
X273738Y-26049D01*
X272582Y-26771D01*
X272005Y-28216D01*
X272005Y-31104D01*
X272582Y-32549D01*
X273738Y-33271D01*
X274894Y-33271D01*
X276049Y-32549D01*
X276627Y-31104D01*
G54D12*
X267961Y-28216D02*
X263339Y-28216D01*
G54D12*
X256984Y-27493D02*
X255250Y-28938D01*
X254673Y-30382D01*
X254673Y-33271D01*
G54D12*
X259295Y-33271D02*
X259295Y-21716D01*
X256406Y-21716D01*
X255250Y-22438D01*
X254673Y-23882D01*
X254673Y-25327D01*
X255250Y-26771D01*
X256406Y-27493D01*
X259295Y-27493D01*
G54D12*
X250629Y-26049D02*
X247740Y-21716D01*
X247740Y-33271D01*
G54D12*
X239074Y-21716D02*
X243696Y-21716D01*
X243696Y-26771D01*
X243118Y-26771D01*
X241962Y-26049D01*
X240807Y-26049D01*
X239652Y-26771D01*
X239074Y-28216D01*
X239074Y-31104D01*
X239652Y-32549D01*
X240807Y-33271D01*
X241962Y-33271D01*
X243118Y-32549D01*
X243696Y-31104D01*
G54D12*
X230870Y-33271D02*
X226248Y-21716D01*
G54D12*
X215733Y-27493D02*
X214000Y-28938D01*
X213422Y-30382D01*
X213422Y-33271D01*
G54D12*
X218044Y-33271D02*
X218044Y-21716D01*
X215155Y-21716D01*
X214000Y-22438D01*
X213422Y-23882D01*
X213422Y-25327D01*
X214000Y-26771D01*
X215155Y-27493D01*
X218044Y-27493D01*
G54D12*
X209378Y-26049D02*
X206489Y-21716D01*
X206489Y-33271D01*
G54D12*
X198978Y-33271D02*
X198978Y-21716D01*
X202445Y-28938D01*
X202445Y-30382D01*
X197823Y-30382D01*
G54D10*
X185274Y-86940D02*
X237112Y-86940D01*
X237112Y-63403D01*
X185274Y-63403D01*
X185274Y-86940D01*
G54D10*
X185274Y-112940D02*
X237112Y-112940D01*
X237112Y-89403D01*
X185274Y-89403D01*
X185274Y-112940D01*
G54D10*
X185274Y-138940D02*
X237112Y-138940D01*
X237112Y-115403D01*
X185274Y-115403D01*
X185274Y-138940D01*
G54D10*
X185274Y-164940D02*
X237112Y-164940D01*
X237112Y-141403D01*
X185274Y-141403D01*
X185274Y-164940D01*
G54D10*
X318267Y-105114D02*
X318267Y-125114D01*
X356267Y-125114D01*
X356267Y-105114D01*
X318267Y-105114D01*
G54D12*
X310061Y-118657D02*
X310638Y-120102D01*
X311794Y-120824D01*
X312950Y-120824D01*
X314105Y-120102D01*
X314683Y-118657D01*
X314683Y-111435D01*
X314105Y-109991D01*
X312950Y-109268D01*
X311794Y-109268D01*
X310638Y-109991D01*
X310061Y-111435D01*
G54D12*
X306017Y-118657D02*
X305439Y-120102D01*
X304284Y-120824D01*
X303128Y-120824D01*
X301972Y-120102D01*
X301395Y-118657D01*
X301395Y-115046D01*
X301395Y-114324D01*
X303128Y-115768D01*
X304284Y-115768D01*
X305439Y-115046D01*
X306017Y-113602D01*
X306017Y-111435D01*
X305439Y-109991D01*
X304284Y-109268D01*
X303128Y-109268D01*
X301972Y-109991D01*
X301395Y-111435D01*
X301395Y-115046D01*
G54D10*
X235000Y-169500D02*
X215000Y-169500D01*
X215000Y-207500D01*
X235000Y-207500D01*
X235000Y-169500D01*
G54D12*
X209628Y-177096D02*
X207895Y-178540D01*
X207317Y-179984D01*
X207317Y-182873D01*
G54D12*
X211940Y-182873D02*
X211940Y-171318D01*
X209051Y-171318D01*
X207895Y-172040D01*
X207317Y-173484D01*
X207317Y-174929D01*
X207895Y-176373D01*
X209051Y-177096D01*
X211940Y-177096D01*
G54D12*
X198651Y-182873D02*
X203274Y-182873D01*
X203274Y-182151D01*
X202696Y-180707D01*
X199229Y-176373D01*
X198651Y-174929D01*
X198651Y-173484D01*
X199229Y-172040D01*
X200385Y-171318D01*
X201540Y-171318D01*
X202696Y-172040D01*
X203274Y-173484D01*
G54D10*
X300000Y-169500D02*
X280000Y-169500D01*
X280000Y-207500D01*
X300000Y-207500D01*
X300000Y-169500D01*
G54D12*
X320426Y-176025D02*
X318693Y-177470D01*
X318115Y-178914D01*
X318115Y-181803D01*
G54D12*
X322737Y-181803D02*
X322737Y-170248D01*
X319848Y-170248D01*
X318693Y-170970D01*
X318115Y-172414D01*
X318115Y-173859D01*
X318693Y-175303D01*
X319848Y-176025D01*
X322737Y-176025D01*
G54D12*
X314071Y-174581D02*
X311182Y-170248D01*
X311182Y-181803D01*
G54D12*
X302516Y-172414D02*
X303094Y-170970D01*
X304249Y-170248D01*
X305405Y-170248D01*
X306560Y-170970D01*
X307138Y-172414D01*
X307138Y-176025D01*
X307138Y-176748D01*
X305405Y-175303D01*
X304249Y-175303D01*
X303094Y-176025D01*
X302516Y-177470D01*
X302516Y-179636D01*
X303094Y-181081D01*
X304249Y-181803D01*
X305405Y-181803D01*
X306560Y-181081D01*
X307138Y-179636D01*
X307138Y-176025D01*
G54D10*
X276100Y-207483D02*
X276100Y-187483D01*
X238100Y-187483D01*
X238100Y-207483D01*
X276100Y-207483D01*
G54D12*
X257372Y-182978D02*
X257949Y-184423D01*
X259105Y-185145D01*
X260260Y-185145D01*
X261416Y-184423D01*
X261994Y-182978D01*
X261994Y-175756D01*
X261416Y-174312D01*
X260260Y-173589D01*
X259105Y-173589D01*
X257949Y-174312D01*
X257372Y-175756D01*
G54D12*
X253328Y-177923D02*
X250439Y-173589D01*
X250439Y-185145D01*
G54D12*
X246395Y-177923D02*
X243506Y-173589D01*
X243506Y-185145D01*
G54D10*
X97000Y-203500D02*
X77000Y-203500D01*
X77000Y-241500D01*
X97000Y-241500D01*
X97000Y-203500D01*
G54D12*
X81327Y-253821D02*
X81904Y-255266D01*
X83060Y-255988D01*
X84216Y-255988D01*
X85371Y-255266D01*
X85949Y-253821D01*
X85949Y-246599D01*
X85371Y-245155D01*
X84216Y-244432D01*
X83060Y-244432D01*
X81904Y-245155D01*
X81327Y-246599D01*
G54D12*
X77283Y-246599D02*
X76705Y-245155D01*
X75550Y-244432D01*
X74394Y-244432D01*
X73238Y-245155D01*
X72661Y-246599D01*
X72661Y-248044D01*
X73238Y-249488D01*
X74394Y-250210D01*
X73238Y-250932D01*
X72661Y-252377D01*
X72661Y-253821D01*
X73238Y-255266D01*
X74394Y-255988D01*
X75550Y-255988D01*
X76705Y-255266D01*
X77283Y-253821D01*
G36*
X162967Y-279314D02*
X162895Y-288180D01*
X154079Y-279480D01*
X162967Y-279314D01*
G37*
G54D10*
X162967Y-279314D02*
X162895Y-288180D01*
X154079Y-279480D01*
X162967Y-279314D01*
G54D10*
X300000Y-209500D02*
X280000Y-209500D01*
X280000Y-247500D01*
X300000Y-247500D01*
X300000Y-209500D01*
G54D12*
X328817Y-199371D02*
X327084Y-200816D01*
X326506Y-202260D01*
X326506Y-205149D01*
G54D12*
X331128Y-205149D02*
X331128Y-193594D01*
X328240Y-193594D01*
X327084Y-194316D01*
X326506Y-195760D01*
X326506Y-197205D01*
X327084Y-198649D01*
X328240Y-199371D01*
X331128Y-199371D01*
G54D12*
X322462Y-197927D02*
X319574Y-193594D01*
X319574Y-205149D01*
G54D12*
X312641Y-199371D02*
X313796Y-199371D01*
X314952Y-198649D01*
X315530Y-197205D01*
X315530Y-195760D01*
X314952Y-194316D01*
X313796Y-193594D01*
X312641Y-193594D01*
X311485Y-194316D01*
X310907Y-195760D01*
X310907Y-197205D01*
X311485Y-198649D01*
X312641Y-199371D01*
X311485Y-200094D01*
X310907Y-201538D01*
X310907Y-202982D01*
X311485Y-204427D01*
X312641Y-205149D01*
X313796Y-205149D01*
X314952Y-204427D01*
X315530Y-202982D01*
X315530Y-201538D01*
X314952Y-200094D01*
X313796Y-199371D01*
G54D10*
X322000Y-209500D02*
X302000Y-209500D01*
X302000Y-247500D01*
X322000Y-247500D01*
X322000Y-209500D01*
G54D12*
X343229Y-239095D02*
X341495Y-240539D01*
X340918Y-241984D01*
X340918Y-244872D01*
G54D12*
X345540Y-244872D02*
X345540Y-233317D01*
X342651Y-233317D01*
X341495Y-234039D01*
X340918Y-235484D01*
X340918Y-236928D01*
X341495Y-238372D01*
X342651Y-239095D01*
X345540Y-239095D01*
G54D12*
X336874Y-237650D02*
X333985Y-233317D01*
X333985Y-244872D01*
G54D12*
X329941Y-233317D02*
X325319Y-233317D01*
X325896Y-234761D01*
X327052Y-236928D01*
X328208Y-239817D01*
X328785Y-241984D01*
X328785Y-244872D01*
G54D10*
X20000Y-241500D02*
X40000Y-241500D01*
X40000Y-203500D01*
X20000Y-203500D01*
X20000Y-241500D01*
G54D12*
X33672Y-250428D02*
X31938Y-251873D01*
X31360Y-253317D01*
X31360Y-256206D01*
G54D12*
X35983Y-256206D02*
X35983Y-244650D01*
X33094Y-244650D01*
X31938Y-245373D01*
X31360Y-246817D01*
X31360Y-248262D01*
X31938Y-249706D01*
X33094Y-250428D01*
X35983Y-250428D01*
G54D12*
X27317Y-246817D02*
X26739Y-245373D01*
X25583Y-244650D01*
X24428Y-244650D01*
X23272Y-245373D01*
X22694Y-246817D01*
X22694Y-248262D01*
X23272Y-249706D01*
X24428Y-250428D01*
X23272Y-251150D01*
X22694Y-252595D01*
X22694Y-254039D01*
X23272Y-255484D01*
X24428Y-256206D01*
X25583Y-256206D01*
X26739Y-255484D01*
X27317Y-254039D01*
G54D10*
X51190Y-309455D02*
X71190Y-309455D01*
X71190Y-271455D01*
X51190Y-271455D01*
X51190Y-309455D01*
G54D12*
X58694Y-328726D02*
X57250Y-329304D01*
X56528Y-330460D01*
X56528Y-331615D01*
X57250Y-332771D01*
X58694Y-333349D01*
X65917Y-333349D01*
X67361Y-332771D01*
X68084Y-331615D01*
X68084Y-330460D01*
X67361Y-329304D01*
X65917Y-328726D01*
G54D12*
X63750Y-324683D02*
X68084Y-321794D01*
X56528Y-321794D01*
G54D12*
X56528Y-313127D02*
X56528Y-317750D01*
X57250Y-317750D01*
X58694Y-317172D01*
X63028Y-313705D01*
X64472Y-313127D01*
X65917Y-313127D01*
X67361Y-313705D01*
X68084Y-314861D01*
X68084Y-316016D01*
X67361Y-317172D01*
X65917Y-317750D01*
G54D10*
X28190Y-309455D02*
X48190Y-309455D01*
X48190Y-271455D01*
X28190Y-271455D01*
X28190Y-309455D01*
G54D12*
X34694Y-328726D02*
X33250Y-329304D01*
X32528Y-330460D01*
X32528Y-331615D01*
X33250Y-332771D01*
X34694Y-333349D01*
X41917Y-333349D01*
X43361Y-332771D01*
X44083Y-331615D01*
X44083Y-330460D01*
X43361Y-329304D01*
X41917Y-328726D01*
G54D12*
X39750Y-324683D02*
X44083Y-321794D01*
X32528Y-321794D01*
G54D12*
X41917Y-317750D02*
X43361Y-317172D01*
X44083Y-316016D01*
X44083Y-314861D01*
X43361Y-313705D01*
X41917Y-313127D01*
X40472Y-313127D01*
X39028Y-313705D01*
X38306Y-314861D01*
X37583Y-313705D01*
X36139Y-313127D01*
X34694Y-313127D01*
X33250Y-313705D01*
X32528Y-314861D01*
X32528Y-316016D01*
X33250Y-317172D01*
X34694Y-317750D01*
G54D10*
X325974Y-267437D02*
X305974Y-267437D01*
X305974Y-305437D01*
X325974Y-305437D01*
X325974Y-267437D01*
G54D12*
X324400Y-258462D02*
X322666Y-259907D01*
X322089Y-261351D01*
X322089Y-264240D01*
G54D12*
X326711Y-264240D02*
X326711Y-252684D01*
X323822Y-252684D01*
X322666Y-253407D01*
X322089Y-254851D01*
X322089Y-256296D01*
X322666Y-257740D01*
X323822Y-258462D01*
X326711Y-258462D01*
G54D12*
X314578Y-264240D02*
X314578Y-252684D01*
X318045Y-259907D01*
X318045Y-261351D01*
X313423Y-261351D01*
G54D10*
X74000Y-203500D02*
X54000Y-203500D01*
X54000Y-241500D01*
X74000Y-241500D01*
X74000Y-203500D01*
G54D12*
X62327Y-254321D02*
X62904Y-255766D01*
X64060Y-256488D01*
X65216Y-256488D01*
X66371Y-255766D01*
X66949Y-254321D01*
X66949Y-247099D01*
X66371Y-245655D01*
X65216Y-244932D01*
X64060Y-244932D01*
X62904Y-245655D01*
X62327Y-247099D01*
G54D12*
X54816Y-256488D02*
X54816Y-244932D01*
X58283Y-252155D01*
X58283Y-253599D01*
X53661Y-253599D01*
G54D10*
X235000Y-209500D02*
X215000Y-209500D01*
X215000Y-247500D01*
X235000Y-247500D01*
X235000Y-209500D01*
G54D12*
X207050Y-239716D02*
X207628Y-241161D01*
X208784Y-241883D01*
X209939Y-241883D01*
X211095Y-241161D01*
X211672Y-239716D01*
X211672Y-232494D01*
X211095Y-231050D01*
X209939Y-230328D01*
X208784Y-230328D01*
X207628Y-231050D01*
X207050Y-232494D01*
G54D12*
X198384Y-230328D02*
X203006Y-230328D01*
X203006Y-235383D01*
X202429Y-235383D01*
X201273Y-234661D01*
X200118Y-234661D01*
X198962Y-235383D01*
X198384Y-236828D01*
X198384Y-239716D01*
X198962Y-241161D01*
X200118Y-241883D01*
X201273Y-241883D01*
X202429Y-241161D01*
X203006Y-239716D01*
G54D10*
X238374Y-308865D02*
X238374Y-328865D01*
X276374Y-328865D01*
X276374Y-308865D01*
X238374Y-308865D01*
G54D12*
X324813Y-318338D02*
X323080Y-319782D01*
X322502Y-321227D01*
X322502Y-324116D01*
G54D12*
X327124Y-324116D02*
X327124Y-312560D01*
X324236Y-312560D01*
X323080Y-313282D01*
X322502Y-314727D01*
X322502Y-316171D01*
X323080Y-317616D01*
X324236Y-318338D01*
X327124Y-318338D01*
G54D12*
X313836Y-324116D02*
X318458Y-324116D01*
X318458Y-323393D01*
X317881Y-321949D01*
X314414Y-317616D01*
X313836Y-316171D01*
X313836Y-314727D01*
X314414Y-313282D01*
X315570Y-312560D01*
X316725Y-312560D01*
X317881Y-313282D01*
X318458Y-314727D01*
G54D12*
X305170Y-314727D02*
X305170Y-321949D01*
X305748Y-323393D01*
X306904Y-324116D01*
X308059Y-324116D01*
X309215Y-323393D01*
X309792Y-321949D01*
X309792Y-314727D01*
X309215Y-313282D01*
X308059Y-312560D01*
X306904Y-312560D01*
X305748Y-313282D01*
X305170Y-314727D01*
G54D10*
X307000Y-201000D02*
X302000Y-206000D01*
G54D10*
X302000Y-206000D02*
X302000Y-203000D01*
X305000Y-206000D01*
X302000Y-206000D01*
G54D10*
X197374Y-308865D02*
X197374Y-328865D01*
X235374Y-328865D01*
X235374Y-308865D01*
X197374Y-308865D01*
G54D12*
X291502Y-321949D02*
X292080Y-323393D01*
X293236Y-324116D01*
X294391Y-324116D01*
X295547Y-323393D01*
X296124Y-321949D01*
X296124Y-314727D01*
X295547Y-313282D01*
X294391Y-312560D01*
X293236Y-312560D01*
X292080Y-313282D01*
X291502Y-314727D01*
G54D12*
X282836Y-314727D02*
X283414Y-313282D01*
X284570Y-312560D01*
X285725Y-312560D01*
X286881Y-313282D01*
X287458Y-314727D01*
X287458Y-318338D01*
X287458Y-319060D01*
X285725Y-317616D01*
X284570Y-317616D01*
X283414Y-318338D01*
X282836Y-319782D01*
X282836Y-321949D01*
X283414Y-323393D01*
X284570Y-324116D01*
X285725Y-324116D01*
X286881Y-323393D01*
X287458Y-321949D01*
X287458Y-318338D01*
G54D10*
X352932Y-192896D02*
X332932Y-192896D01*
X332932Y-230896D01*
X352932Y-230896D01*
X352932Y-192896D01*
G54D12*
X344559Y-187960D02*
X345137Y-189404D01*
X346292Y-190126D01*
X347448Y-190126D01*
X348603Y-189404D01*
X349181Y-187960D01*
X349181Y-180737D01*
X348603Y-179293D01*
X347448Y-178571D01*
X346292Y-178571D01*
X345137Y-179293D01*
X344559Y-180737D01*
G54D12*
X340515Y-178571D02*
X335893Y-178571D01*
X336471Y-180015D01*
X337626Y-182182D01*
X338782Y-185071D01*
X339360Y-187237D01*
X339360Y-190126D01*
G54D10*
X335424Y-411253D02*
X335424Y-463090D01*
X358962Y-463090D01*
X358962Y-411253D01*
X335424Y-411253D01*
G54D12*
X354571Y-401616D02*
X352838Y-403060D01*
X352260Y-404505D01*
X352260Y-407393D01*
G54D12*
X356882Y-407393D02*
X356882Y-395838D01*
X353993Y-395838D01*
X352838Y-396560D01*
X352260Y-398004D01*
X352260Y-399449D01*
X352838Y-400893D01*
X353993Y-401616D01*
X356882Y-401616D01*
G54D12*
X348216Y-400171D02*
X345327Y-395838D01*
X345327Y-407393D01*
G54D12*
X341283Y-405227D02*
X340706Y-406671D01*
X339550Y-407393D01*
X338394Y-407393D01*
X337239Y-406671D01*
X336661Y-405227D01*
X336661Y-401616D01*
X336661Y-400893D01*
X338394Y-402338D01*
X339550Y-402338D01*
X340706Y-401616D01*
X341283Y-400171D01*
X341283Y-398005D01*
X340706Y-396560D01*
X339550Y-395838D01*
X338394Y-395838D01*
X337239Y-396560D01*
X336661Y-398004D01*
X336661Y-401616D01*
G54D10*
X326974Y-347437D02*
X306974Y-347437D01*
X306974Y-385437D01*
X326974Y-385437D01*
X326974Y-347437D01*
G54D12*
X346716Y-381998D02*
X347294Y-383442D01*
X348449Y-384164D01*
X349605Y-384164D01*
X350760Y-383442D01*
X351338Y-381998D01*
X351338Y-374776D01*
X350760Y-373331D01*
X349605Y-372609D01*
X348449Y-372609D01*
X347294Y-373331D01*
X346716Y-374776D01*
G54D12*
X342672Y-376942D02*
X339783Y-372609D01*
X339783Y-384164D01*
G54D12*
X331117Y-374776D02*
X331117Y-381998D01*
X331695Y-383442D01*
X332850Y-384164D01*
X334006Y-384164D01*
X335161Y-383442D01*
X335739Y-381998D01*
X335739Y-374776D01*
X335161Y-373331D01*
X334006Y-372609D01*
X332850Y-372609D01*
X331695Y-373331D01*
X331117Y-374776D01*
G54D12*
X361293Y-275771D02*
X361293Y-285160D01*
G54D12*
X361293Y-280104D02*
X360715Y-281982D01*
X359560Y-282271D01*
X358404Y-281982D01*
X357826Y-280538D01*
X357826Y-277649D01*
X358404Y-276204D01*
X359560Y-275771D01*
X360715Y-276204D01*
X361293Y-277938D01*
G54D12*
X353782Y-282271D02*
X353782Y-275771D01*
G54D12*
X353782Y-273604D02*
X353782Y-273604D01*
G54D12*
X346271Y-281549D02*
X347196Y-282271D01*
X348351Y-282271D01*
X349507Y-281549D01*
X349738Y-280104D01*
X349738Y-277649D01*
X349160Y-276204D01*
X348005Y-275771D01*
X346849Y-276204D01*
X346271Y-277216D01*
X346271Y-278660D01*
X349738Y-278660D01*
G54D12*
X342227Y-275771D02*
X338760Y-275771D01*
X342227Y-282271D01*
X338760Y-282271D01*
G54D12*
X331249Y-280538D02*
X331249Y-277649D01*
X331827Y-276204D01*
X332983Y-275771D01*
X334138Y-276204D01*
X334716Y-277649D01*
X334716Y-280538D01*
X334138Y-281982D01*
X332983Y-282271D01*
X331827Y-281982D01*
X331249Y-280538D01*
G54D12*
X372293Y-291771D02*
X369982Y-298271D01*
X367671Y-291771D01*
G54D12*
X360160Y-296538D02*
X360160Y-293649D01*
X360738Y-292204D01*
X361894Y-291771D01*
X363049Y-292204D01*
X363627Y-293649D01*
X363627Y-296538D01*
X363049Y-297982D01*
X361894Y-298271D01*
X360738Y-297982D01*
X360160Y-296538D01*
G54D12*
X356116Y-298271D02*
X356116Y-286716D01*
G54D12*
X348605Y-291771D02*
X348605Y-298271D01*
G54D12*
X348605Y-296827D02*
X349183Y-297982D01*
X350339Y-298271D01*
X351494Y-297982D01*
X352072Y-296827D01*
X352072Y-291771D01*
G54D12*
X344561Y-298271D02*
X344561Y-291771D01*
G54D12*
X344561Y-292927D02*
X343405Y-291771D01*
X342250Y-292204D01*
X341672Y-293216D01*
X341672Y-298271D01*
G54D12*
X341672Y-292927D02*
X340516Y-291771D01*
X339361Y-292204D01*
X338783Y-293216D01*
X338783Y-298271D01*
G54D12*
X331272Y-297549D02*
X332197Y-298271D01*
X333352Y-298271D01*
X334508Y-297549D01*
X334739Y-296104D01*
X334739Y-293649D01*
X334161Y-292204D01*
X333006Y-291771D01*
X331850Y-292204D01*
X331272Y-293216D01*
X331272Y-294660D01*
X334739Y-294660D01*
G54D12*
X441293Y-430271D02*
X441293Y-418716D01*
G54D12*
X434360Y-424204D02*
X435516Y-423771D01*
X436671Y-424204D01*
X437249Y-425649D01*
X437249Y-428538D01*
X436671Y-429982D01*
X435516Y-430271D01*
X434360Y-429982D01*
G54D12*
X426849Y-430271D02*
X426849Y-418716D01*
G54D12*
X426849Y-425649D02*
X427427Y-424204D01*
X428583Y-423771D01*
X429738Y-424204D01*
X430316Y-425649D01*
X430316Y-428538D01*
X429738Y-429982D01*
X428583Y-430271D01*
X427427Y-429982D01*
X426849Y-428538D01*
G54D12*
X418645Y-430271D02*
X418645Y-418716D01*
G54D12*
X418645Y-425649D02*
X418067Y-424204D01*
X416912Y-423771D01*
X415756Y-424204D01*
X415178Y-425649D01*
X415178Y-428538D01*
X415756Y-429982D01*
X416912Y-430271D01*
X418067Y-429982D01*
X418645Y-428538D01*
G54D12*
X411134Y-424493D02*
X409978Y-423771D01*
X408592Y-423771D01*
X407667Y-425216D01*
X407667Y-430271D01*
G54D12*
X407667Y-428104D02*
X408245Y-426660D01*
X409401Y-426371D01*
X410556Y-426660D01*
X411134Y-428104D01*
X410903Y-429549D01*
X409978Y-430271D01*
X409401Y-430271D01*
X409169Y-430271D01*
X408245Y-429549D01*
X407667Y-428104D01*
G54D12*
X400734Y-424204D02*
X401890Y-423771D01*
X403045Y-424204D01*
X403623Y-425649D01*
X403623Y-428538D01*
X403045Y-429982D01*
X401890Y-430271D01*
X400734Y-429982D01*
G54D12*
X396690Y-430271D02*
X396690Y-418716D01*
G54D12*
X394957Y-425938D02*
X393223Y-430271D01*
G54D12*
X396690Y-427382D02*
X393223Y-423771D01*
G54D12*
X389179Y-430271D02*
X389179Y-418716D01*
G54D12*
X385135Y-430271D02*
X385135Y-423771D01*
G54D12*
X385135Y-421604D02*
X385135Y-421604D01*
G54D12*
X381091Y-432438D02*
X379935Y-433160D01*
X379126Y-433160D01*
X377971Y-432438D01*
X377624Y-430993D01*
X377624Y-423771D01*
G54D12*
X377624Y-425649D02*
X378202Y-424204D01*
X379358Y-423771D01*
X380513Y-424204D01*
X381091Y-425649D01*
X381091Y-428538D01*
X380513Y-429982D01*
X379358Y-430271D01*
X378202Y-429982D01*
X377624Y-428538D01*
G54D12*
X373580Y-430271D02*
X373580Y-418716D01*
G54D12*
X373580Y-425649D02*
X373002Y-424204D01*
X371847Y-423771D01*
X370691Y-424204D01*
X370113Y-425649D01*
X370113Y-430271D01*
G54D12*
X364913Y-418716D02*
X364913Y-429549D01*
X364336Y-430271D01*
X363758Y-429982D01*
G54D12*
X366069Y-423771D02*
X363758Y-423771D01*
G54D12*
X429293Y-446271D02*
X429293Y-434716D01*
G54D12*
X429293Y-441649D02*
X428715Y-440204D01*
X427560Y-439771D01*
X426404Y-440204D01*
X425826Y-441649D01*
X425826Y-444538D01*
X426404Y-445982D01*
X427560Y-446271D01*
X428715Y-445982D01*
X429293Y-444538D01*
G54D12*
X421782Y-446271D02*
X421782Y-439771D01*
G54D12*
X421782Y-441216D02*
X420626Y-439771D01*
X419471Y-439771D01*
G54D12*
X415427Y-446271D02*
X415427Y-439771D01*
G54D12*
X415427Y-437604D02*
X415427Y-437604D01*
G54D12*
X411383Y-448438D02*
X410227Y-449160D01*
X409418Y-449160D01*
X408263Y-448438D01*
X407916Y-446993D01*
X407916Y-439771D01*
G54D12*
X407916Y-441649D02*
X408494Y-440204D01*
X409650Y-439771D01*
X410805Y-440204D01*
X411383Y-441649D01*
X411383Y-444538D01*
X410805Y-445982D01*
X409650Y-446271D01*
X408494Y-445982D01*
X407916Y-444538D01*
G54D12*
X403872Y-446271D02*
X403872Y-434716D01*
G54D12*
X403872Y-441649D02*
X403294Y-440204D01*
X402139Y-439771D01*
X400983Y-440204D01*
X400405Y-441649D01*
X400405Y-446271D01*
G54D12*
X395205Y-434716D02*
X395205Y-445549D01*
X394628Y-446271D01*
X394050Y-445982D01*
G54D12*
X396361Y-439771D02*
X394050Y-439771D01*
G54D12*
X390006Y-446271D02*
X390006Y-439771D01*
G54D12*
X390006Y-441216D02*
X389428Y-440204D01*
X388273Y-439771D01*
X387117Y-440204D01*
X386539Y-441216D01*
X386539Y-446271D01*
G54D12*
X379028Y-445549D02*
X379953Y-446271D01*
X381108Y-446271D01*
X382264Y-445549D01*
X382495Y-444104D01*
X382495Y-441649D01*
X381917Y-440204D01*
X380762Y-439771D01*
X379606Y-440204D01*
X379028Y-441216D01*
X379028Y-442660D01*
X382495Y-442660D01*
G54D12*
X374984Y-445549D02*
X373828Y-446271D01*
X372673Y-446271D01*
X371517Y-445549D01*
X371517Y-444104D01*
X372095Y-443382D01*
X374406Y-442660D01*
X374984Y-441938D01*
X374984Y-440493D01*
X373828Y-439771D01*
X372673Y-439771D01*
X371517Y-440493D01*
G54D12*
X367473Y-445549D02*
X366317Y-446271D01*
X365162Y-446271D01*
X364006Y-445549D01*
X364006Y-444104D01*
X364584Y-443382D01*
X366895Y-442660D01*
X367473Y-441938D01*
X367473Y-440493D01*
X366317Y-439771D01*
X365162Y-439771D01*
X364006Y-440493D01*
G36*
X357000Y-347000D02*
X490000Y-347000D01*
X490000Y-381000D01*
X357000Y-381000D01*
X357000Y-347000D01*
G37*
G54D13*
X357000Y-347000D02*
X490000Y-347000D01*
X490000Y-381000D01*
X357000Y-381000D01*
X357000Y-347000D01*
G54D12*
X486260Y-338227D02*
X486838Y-339671D01*
X487993Y-340393D01*
X489149Y-340393D01*
X490304Y-339671D01*
X490882Y-338227D01*
X490882Y-331004D01*
X490304Y-329560D01*
X489149Y-328838D01*
X487993Y-328838D01*
X486838Y-329560D01*
X486260Y-331004D01*
G54D12*
X482216Y-340393D02*
X479327Y-328838D01*
X476438Y-340393D01*
G54D12*
X481061Y-336060D02*
X477594Y-336060D01*
G54D12*
X472394Y-328838D02*
X472394Y-340393D01*
X468350Y-340393D01*
G54D12*
X464306Y-340393D02*
X464306Y-340393D01*
G54D12*
X464306Y-333893D02*
X464306Y-333893D01*
M02*
