%FSLAX34Y34*%
%MOMM*%
%LNCOPPER_BOTTOM*%
G71*
G01*
%ADD10R, 3.000X1.200*%
%ADD11C, 2.400*%
%ADD12C, 5.600*%
%ADD13C, 3.300*%
%ADD14C, 2.400*%
%ADD15C, 2.000*%
%ADD16R, 0.850X1.200*%
%ADD17C, 2.000*%
%ADD18C, 4.900*%
%ADD19C, 3.700*%
%ADD20C, 1.200*%
%ADD21R, 1.800X1.700*%
%ADD22C, 1.400*%
%ADD23R, 1.700X2.200*%
%ADD24C, 1.600*%
%ADD25R, 1.700X1.800*%
%ADD26C, 0.700*%
%ADD27R, 1.800X1.600*%
%ADD28C, 0.660*%
%ADD29C, 0.900*%
%ADD30C, 1.100*%
%ADD31C, 1.000*%
%ADD32C, 0.600*%
%ADD33R, 2.200X1.700*%
%ADD34C, 0.150*%
%ADD35C, 0.260*%
%ADD36C, 0.206*%
%ADD37C, 2.100*%
%ADD38C, 0.200*%
%ADD39C, 0.170*%
%ADD40C, 0.776*%
%ADD41C, 0.667*%
%ADD42C, 0.967*%
%ADD43C, 0.533*%
%ADD44C, 0.372*%
%ADD45C, 1.500*%
%ADD46C, 0.607*%
%ADD47C, 0.433*%
%ADD48C, 0.233*%
%ADD49C, 0.567*%
%ADD50R, 2.600X0.800*%
%ADD51C, 2.000*%
%ADD52C, 2.900*%
%ADD53C, 2.000*%
%ADD54C, 1.600*%
%ADD55R, 0.450X0.800*%
%ADD56C, 1.600*%
%ADD57C, 4.500*%
%ADD58C, 3.300*%
%ADD59C, 0.800*%
%ADD60R, 1.400X1.300*%
%ADD61R, 1.300X1.800*%
%ADD62R, 1.300X1.400*%
%ADD63C, 0.300*%
%ADD64C, 0.700*%
%ADD65R, 1.400X1.200*%
%ADD66C, 0.500*%
%ADD67R, 1.800X1.300*%
%ADD68C, 1.700*%
%LPD*%
G36*
X0Y0D02*
X505000Y0D01*
X505000Y-500000D01*
X0Y-500000D01*
X0Y0D01*
G37*
%LPC*%
X178967Y-286314D02*
G54D10*
D03*
X178967Y-299014D02*
G54D10*
D03*
X178967Y-311714D02*
G54D10*
D03*
X178967Y-324414D02*
G54D10*
D03*
X178967Y-337114D02*
G54D10*
D03*
X178967Y-349814D02*
G54D10*
D03*
X178967Y-362514D02*
G54D10*
D03*
X178967Y-375214D02*
G54D10*
D03*
X178967Y-387914D02*
G54D10*
D03*
X178967Y-400614D02*
G54D10*
D03*
X86967Y-400614D02*
G54D10*
D03*
X86967Y-387914D02*
G54D10*
D03*
X86967Y-375214D02*
G54D10*
D03*
X86967Y-362514D02*
G54D10*
D03*
X86967Y-349814D02*
G54D10*
D03*
X86967Y-337114D02*
G54D10*
D03*
X86967Y-324414D02*
G54D10*
D03*
X86967Y-311714D02*
G54D10*
D03*
X86967Y-299014D02*
G54D10*
D03*
X86967Y-286314D02*
G54D10*
D03*
X42087Y-163864D02*
G54D11*
D03*
X64987Y-163864D02*
G54D11*
D03*
X87887Y-163864D02*
G54D11*
D03*
X43000Y-39000D02*
G54D12*
D03*
X463000Y-39000D02*
G54D12*
D03*
X463000Y-459000D02*
G54D12*
D03*
X43000Y-459000D02*
G54D12*
D03*
X434000Y-397000D02*
G54D11*
D03*
G36*
X446000Y-320000D02*
X446000Y-344000D01*
X422000Y-344000D01*
X422000Y-320000D01*
X446000Y-320000D01*
G37*
G54D13*
X459369Y-259851D02*
X430369Y-259851D01*
G54D13*
X459369Y-164851D02*
X430369Y-164851D01*
X369869Y-212351D02*
G54D14*
D03*
X369869Y-237351D02*
G54D14*
D03*
X369869Y-187351D02*
G54D14*
D03*
X215421Y-347113D02*
G54D15*
D03*
X240821Y-347113D02*
G54D15*
D03*
X266221Y-347113D02*
G54D15*
D03*
G36*
X281621Y-357113D02*
X281621Y-337113D01*
X301621Y-337113D01*
X301621Y-357113D01*
X281621Y-357113D01*
G37*
X253000Y-215889D02*
G54D16*
D03*
X253000Y-242889D02*
G54D16*
D03*
X259500Y-215889D02*
G54D16*
D03*
X259500Y-242889D02*
G54D16*
D03*
X266000Y-215889D02*
G54D16*
D03*
X266000Y-242889D02*
G54D16*
D03*
X272500Y-215889D02*
G54D16*
D03*
X272500Y-242889D02*
G54D16*
D03*
X215409Y-378945D02*
G54D15*
D03*
X240809Y-378945D02*
G54D15*
D03*
X266209Y-378945D02*
G54D15*
D03*
G36*
X281609Y-388945D02*
X281609Y-368945D01*
X301609Y-368945D01*
X301609Y-388945D01*
X281609Y-388945D01*
G37*
X108000Y-221000D02*
G54D17*
D03*
X138956Y-221000D02*
G54D17*
D03*
X123875Y-200363D02*
G54D17*
D03*
X140047Y-156301D02*
G54D17*
D03*
G36*
X150046Y-166301D02*
X150046Y-186301D01*
X130046Y-186301D01*
X130046Y-166301D01*
X150046Y-166301D01*
G37*
X381089Y-45892D02*
G54D18*
D03*
X381089Y-105892D02*
G54D18*
D03*
X331289Y-80992D02*
G54D19*
D03*
G36*
X88666Y-271045D02*
X88666Y-251045D01*
X108666Y-251045D01*
X108666Y-271045D01*
X88666Y-271045D01*
G37*
X124066Y-261045D02*
G54D15*
D03*
X149466Y-261045D02*
G54D15*
D03*
X174866Y-261045D02*
G54D15*
D03*
X200266Y-261045D02*
G54D15*
D03*
X88458Y-192149D02*
G54D17*
D03*
X37658Y-192149D02*
G54D17*
D03*
X39490Y-135388D02*
G54D11*
D03*
X64890Y-135388D02*
G54D11*
D03*
X90290Y-135388D02*
G54D11*
D03*
G54D20*
X39490Y-135388D02*
X39490Y-161267D01*
X42087Y-163864D01*
X42087Y-173595D01*
X37456Y-178225D01*
X37456Y-193948D01*
X37658Y-194149D01*
G54D20*
X88458Y-194149D02*
X88458Y-164436D01*
X87887Y-163864D01*
X87887Y-137791D01*
X90290Y-135388D01*
X39819Y-94388D02*
G54D21*
D03*
X39819Y-113388D02*
G54D21*
D03*
X117931Y-140397D02*
G54D21*
D03*
X117932Y-159396D02*
G54D21*
D03*
G54D20*
X39490Y-135388D02*
X39490Y-113717D01*
X39819Y-113388D01*
G54D20*
X64890Y-135388D02*
X64890Y-163767D01*
X64987Y-163864D01*
G54D22*
X87887Y-163864D02*
X113464Y-163864D01*
X117932Y-159396D01*
X250793Y-49171D02*
G54D23*
D03*
X283293Y-49271D02*
G54D23*
D03*
X250793Y-75171D02*
G54D23*
D03*
X283293Y-75271D02*
G54D23*
D03*
X250793Y-101171D02*
G54D23*
D03*
X283293Y-101271D02*
G54D23*
D03*
X250793Y-127171D02*
G54D23*
D03*
X283293Y-127271D02*
G54D23*
D03*
X250793Y-153171D02*
G54D23*
D03*
X283293Y-153271D02*
G54D23*
D03*
G36*
X186293Y-38171D02*
X203293Y-38171D01*
X203293Y-60171D01*
X186293Y-60171D01*
X186293Y-38171D01*
G37*
X227293Y-49271D02*
G54D23*
D03*
G36*
X186293Y-64172D02*
X203293Y-64171D01*
X203293Y-86171D01*
X186293Y-86172D01*
X186293Y-64172D01*
G37*
X227293Y-75271D02*
G54D23*
D03*
X194793Y-101171D02*
G54D23*
D03*
X227293Y-101271D02*
G54D23*
D03*
X194793Y-127171D02*
G54D23*
D03*
X227293Y-127271D02*
G54D23*
D03*
G36*
X186293Y-142171D02*
X203293Y-142171D01*
X203293Y-164171D01*
X186293Y-164171D01*
X186293Y-142171D01*
G37*
X227293Y-153271D02*
G54D23*
D03*
G54D22*
X283293Y-49271D02*
X283293Y-153271D01*
G54D22*
X250793Y-49171D02*
X250793Y-153171D01*
G54D22*
X194793Y-49171D02*
X194793Y-153171D01*
G54D22*
X227293Y-49271D02*
X227293Y-153271D01*
G54D24*
X23000Y1000D02*
X483000Y1000D01*
G54D24*
G75*
G01X23000Y1000D02*
G03X3000Y-19000I0J-20000D01*
G01*
G54D24*
G75*
G01X503000Y-19000D02*
G03X483000Y1000I-20000J0D01*
G01*
G54D24*
X3000Y-19000D02*
X3000Y-479000D01*
G54D24*
G75*
G01X3000Y-479000D02*
G03X23000Y-499000I20000J0D01*
G01*
G54D24*
X503000Y-19000D02*
X503000Y-479000D01*
G54D24*
G75*
G01X483000Y-499000D02*
G03X503000Y-479000I0J20000D01*
G01*
G54D24*
X23000Y-499000D02*
X483000Y-499000D01*
G54D22*
X283293Y-49271D02*
X283293Y-35293D01*
X275000Y-27000D01*
X205000Y-27000D01*
X195000Y-37000D01*
X195000Y-48964D01*
X194793Y-49171D01*
G36*
X227293Y-49271D02*
X227293Y-153271D01*
X250693Y-153271D01*
X250793Y-153171D01*
X250793Y-49171D01*
X227293Y-49271D01*
G37*
G54D22*
X227293Y-49271D02*
X227293Y-153271D01*
X250693Y-153271D01*
X250793Y-153171D01*
X250793Y-49171D01*
X227293Y-49271D01*
X347000Y-141000D02*
G54D17*
D03*
G36*
X337000Y-151000D02*
X317000Y-151000D01*
X317000Y-131000D01*
X337000Y-131000D01*
X337000Y-151000D01*
G37*
X327767Y-115114D02*
G54D25*
D03*
X346767Y-115114D02*
G54D25*
D03*
G54D22*
X327426Y-115772D02*
X327426Y-137628D01*
X328084Y-138286D01*
X225000Y-179000D02*
G54D21*
D03*
X225000Y-198000D02*
G54D21*
D03*
X290000Y-179000D02*
G54D21*
D03*
X290000Y-198000D02*
G54D21*
D03*
G54D22*
X251000Y-153000D02*
X251000Y-177000D01*
X252000Y-178000D01*
X309000Y-178000D01*
X327000Y-160000D01*
X327000Y-138000D01*
X266600Y-197482D02*
G54D25*
D03*
X247600Y-197483D02*
G54D25*
D03*
G54D22*
X225000Y-198000D02*
X247083Y-198000D01*
X247600Y-197483D01*
G54D22*
X266600Y-197482D02*
X288483Y-197482D01*
X289000Y-198000D01*
X87000Y-213000D02*
G54D21*
D03*
X87000Y-232000D02*
G54D21*
D03*
G54D26*
X247600Y-197483D02*
X247600Y-210489D01*
X253000Y-215889D01*
G54D26*
X259500Y-215889D02*
X259500Y-204582D01*
X266600Y-197482D01*
X290000Y-218400D02*
G54D27*
D03*
X290000Y-238400D02*
G54D27*
D03*
X312000Y-219000D02*
G54D21*
D03*
X312000Y-238000D02*
G54D21*
D03*
G54D26*
X311000Y-219000D02*
X289000Y-219000D01*
X275611Y-219000D01*
X272500Y-215889D01*
G54D28*
X272500Y-242889D02*
X276111Y-242889D01*
X281000Y-238000D01*
X288600Y-238000D01*
X289000Y-238400D01*
G54D28*
X275611Y-219000D02*
X275611Y-219389D01*
X273000Y-222000D01*
G36*
X326163Y-444857D02*
X326163Y-464857D01*
X306163Y-464857D01*
X306163Y-444857D01*
X326163Y-444857D01*
G37*
X290763Y-454857D02*
G54D15*
D03*
X265363Y-454857D02*
G54D15*
D03*
X239963Y-454857D02*
G54D15*
D03*
X214563Y-454857D02*
G54D15*
D03*
X189163Y-454857D02*
G54D15*
D03*
X163763Y-454857D02*
G54D15*
D03*
X138363Y-454857D02*
G54D15*
D03*
X30000Y-232000D02*
G54D21*
D03*
X30000Y-213000D02*
G54D21*
D03*
X61190Y-299954D02*
G54D21*
D03*
X61190Y-280955D02*
G54D21*
D03*
X38190Y-299954D02*
G54D21*
D03*
X38190Y-280955D02*
G54D21*
D03*
G54D29*
X38190Y-280955D02*
X61190Y-280955D01*
X156000Y-290000D02*
G54D30*
D03*
X39000Y-264000D02*
G54D30*
D03*
X315974Y-276937D02*
G54D21*
D03*
X315974Y-295937D02*
G54D21*
D03*
X215421Y-410113D02*
G54D15*
D03*
X240821Y-410113D02*
G54D15*
D03*
X266221Y-410113D02*
G54D15*
D03*
G36*
X281621Y-420113D02*
X281621Y-400113D01*
X301621Y-400113D01*
X301621Y-420113D01*
X281621Y-420113D01*
G37*
X64000Y-213000D02*
G54D21*
D03*
X64000Y-232000D02*
G54D21*
D03*
X47000Y-213000D02*
G54D30*
D03*
X225000Y-219000D02*
G54D21*
D03*
X225000Y-238000D02*
G54D21*
D03*
G54D29*
X30000Y-232000D02*
X30000Y-240000D01*
X51000Y-261000D01*
X98621Y-261000D01*
X98666Y-261045D01*
X113000Y-455000D02*
G54D15*
D03*
X215421Y-294113D02*
G54D15*
D03*
X240821Y-294113D02*
G54D15*
D03*
X266221Y-294113D02*
G54D15*
D03*
X247874Y-318865D02*
G54D25*
D03*
X266874Y-318865D02*
G54D25*
D03*
X206874Y-318865D02*
G54D25*
D03*
X225874Y-318865D02*
G54D25*
D03*
G54D26*
X178967Y-324414D02*
X191586Y-324414D01*
X197000Y-319000D01*
X206740Y-319000D01*
X206874Y-318865D01*
G54D26*
X240821Y-294113D02*
X240821Y-311812D01*
X247874Y-318865D01*
X342931Y-202397D02*
G54D21*
D03*
X342932Y-221396D02*
G54D21*
D03*
G54D26*
X266874Y-318865D02*
X279865Y-318865D01*
X291000Y-330000D01*
X291000Y-346492D01*
X291621Y-347113D01*
G54D26*
X178967Y-337114D02*
X195886Y-337114D01*
X202000Y-331000D01*
X244000Y-331000D01*
X246000Y-329000D01*
X246000Y-320740D01*
X247874Y-318865D01*
G54D28*
X174866Y-261045D02*
X168955Y-261045D01*
X154500Y-275500D01*
X150500Y-275500D01*
X136000Y-290000D01*
X136000Y-302000D01*
X145714Y-311714D01*
X178967Y-311714D01*
G54D28*
X200266Y-261045D02*
X199955Y-261045D01*
X185000Y-276000D01*
X166000Y-276000D01*
X161000Y-281000D01*
X153000Y-281000D01*
X146000Y-288000D01*
X146000Y-295000D01*
X150000Y-299000D01*
X178954Y-299000D01*
X178967Y-299014D01*
G54D26*
X178967Y-286314D02*
X159686Y-286314D01*
X156000Y-290000D01*
G54D26*
X86967Y-400614D02*
X86967Y-408967D01*
X97000Y-419000D01*
X206534Y-419000D01*
X215421Y-410113D01*
G54D26*
X178967Y-387914D02*
X206440Y-387914D01*
X215409Y-378945D01*
G54D31*
X316163Y-454857D02*
X316163Y-419163D01*
X307000Y-410000D01*
X291734Y-410000D01*
X291621Y-410113D01*
X291621Y-347113D01*
G54D28*
X178967Y-400614D02*
X201386Y-400614D01*
X210000Y-392000D01*
X227754Y-392000D01*
X240809Y-378945D01*
G54D32*
X266000Y-242889D02*
X266000Y-237000D01*
X268000Y-235000D01*
X271300Y-235000D01*
X278000Y-228300D01*
X299300Y-228300D01*
X312000Y-238000D01*
X158000Y-375000D02*
G54D30*
D03*
G54D32*
X159000Y-375000D02*
X178754Y-375000D01*
X178967Y-375214D01*
X157486Y-362514D02*
G54D30*
D03*
G54D28*
X158486Y-362514D02*
X178967Y-362514D01*
G54D28*
X178967Y-349814D02*
X192814Y-349814D01*
X198000Y-355000D01*
X198000Y-364000D01*
X201000Y-367000D01*
X249000Y-367000D01*
X253000Y-371000D01*
X253000Y-384000D01*
X241000Y-396000D01*
X241000Y-409934D01*
X240821Y-410113D01*
G54D29*
X39000Y-264000D02*
X39000Y-280145D01*
X38190Y-280955D01*
G54D29*
X61190Y-280955D02*
X67955Y-280955D01*
X74000Y-287000D01*
X86281Y-287000D01*
X86967Y-286314D01*
G54D28*
X87000Y-311500D02*
X70500Y-311500D01*
X65500Y-316500D01*
X57500Y-316500D01*
X39500Y-334500D01*
X39500Y-401500D01*
X119000Y-481000D01*
X259000Y-481000D01*
X265000Y-475000D01*
X265000Y-455000D01*
X265500Y-455000D01*
G54D28*
X86967Y-324414D02*
X61086Y-324414D01*
X47000Y-338500D01*
X47000Y-401000D01*
X101000Y-455000D01*
X113000Y-455000D01*
X347193Y-420772D02*
G54D33*
D03*
X347093Y-453272D02*
G54D33*
D03*
X346000Y-469000D02*
G54D30*
D03*
G54D29*
X316163Y-419163D02*
X345585Y-419163D01*
X347193Y-420772D01*
G54D29*
X346000Y-469000D02*
X346000Y-454365D01*
X347093Y-453272D01*
G54D28*
X86967Y-337114D02*
X69886Y-337114D01*
X54500Y-352500D01*
X54500Y-400500D01*
X95000Y-441000D01*
X143000Y-441000D01*
X229000Y-279000D02*
G54D30*
D03*
X127000Y-306000D02*
G54D30*
D03*
G54D28*
X369869Y-212351D02*
X386351Y-212351D01*
X392000Y-218000D01*
X392000Y-247000D01*
X382000Y-257000D01*
X297000Y-257000D01*
X282000Y-272000D01*
X210000Y-272000D01*
X197000Y-285000D01*
X197000Y-319000D01*
G54D28*
X229000Y-279000D02*
X291000Y-279000D01*
X294000Y-276000D01*
X316910Y-276000D01*
X318974Y-273937D01*
G54D28*
X127000Y-306000D02*
X125000Y-306000D01*
X111000Y-320000D01*
X111000Y-358000D01*
X106000Y-363000D01*
G54D28*
X189163Y-454857D02*
X189163Y-463837D01*
X182000Y-471000D01*
X157000Y-471000D01*
X150000Y-464000D01*
X150000Y-448000D01*
X143000Y-441000D01*
G54D28*
X106000Y-363000D02*
X87454Y-363000D01*
X86967Y-362514D01*
G54D28*
X163763Y-454857D02*
X163763Y-446763D01*
X151000Y-434000D01*
X96000Y-434000D01*
X62000Y-400000D01*
X62000Y-357000D01*
X69000Y-350000D01*
X86781Y-350000D01*
X86967Y-349814D01*
X109000Y-375000D02*
G54D30*
D03*
G54D28*
X109000Y-375000D02*
X87181Y-375000D01*
X86967Y-375214D01*
X123000Y-388000D02*
G54D30*
D03*
G54D28*
X123486Y-387514D02*
X87367Y-387514D01*
X86967Y-387914D01*
X278000Y-257500D02*
G54D30*
D03*
X269000Y-255000D02*
G54D30*
D03*
G54D28*
X266000Y-242889D02*
X266000Y-252000D01*
X268000Y-254000D01*
G54D28*
X272500Y-242889D02*
X272500Y-248500D01*
X277000Y-253000D01*
X277000Y-257000D01*
X316974Y-356937D02*
G54D21*
D03*
X316974Y-375937D02*
G54D21*
D03*
G54D29*
X291609Y-378945D02*
X313966Y-378945D01*
X316974Y-375937D01*
G54D29*
X342931Y-200897D02*
X342931Y-192569D01*
X349000Y-186500D01*
X373720Y-186500D01*
X374369Y-185851D01*
G54D22*
X194793Y-153171D02*
X194793Y-173793D01*
X200000Y-179000D01*
X225000Y-179000D01*
G54D28*
X259500Y-242889D02*
X259500Y-253500D01*
X256000Y-257000D01*
G54D28*
X253000Y-242889D02*
X253000Y-249000D01*
X245000Y-257000D01*
G36*
X165000Y-313000D02*
X165000Y-336000D01*
X195000Y-336000D01*
X203000Y-328000D01*
X203000Y-319000D01*
X197000Y-313000D01*
X197000Y-293000D01*
X189000Y-285000D01*
X189000Y-280000D01*
X185000Y-276000D01*
X166000Y-276000D01*
X161000Y-281000D01*
X145000Y-281000D01*
X136000Y-290000D01*
X136000Y-302000D01*
X145714Y-311714D01*
X165714Y-311714D01*
X166000Y-312000D01*
X165000Y-313000D01*
G37*
G54D34*
X165000Y-313000D02*
X165000Y-336000D01*
X195000Y-336000D01*
X203000Y-328000D01*
X203000Y-319000D01*
X197000Y-313000D01*
X197000Y-293000D01*
X189000Y-285000D01*
X189000Y-280000D01*
X185000Y-276000D01*
X166000Y-276000D01*
X161000Y-281000D01*
X145000Y-281000D01*
X136000Y-290000D01*
X136000Y-302000D01*
X145714Y-311714D01*
X165714Y-311714D01*
X166000Y-312000D01*
X165000Y-313000D01*
G36*
X101000Y-287000D02*
X101000Y-405000D01*
X72000Y-405000D01*
X72000Y-289000D01*
X101000Y-287000D01*
G37*
G54D34*
X101000Y-287000D02*
X101000Y-405000D01*
X72000Y-405000D01*
X72000Y-289000D01*
X101000Y-287000D01*
G36*
X70000Y-289000D02*
X74000Y-289000D01*
X74000Y-310000D01*
X70000Y-310000D01*
X70000Y-289000D01*
G37*
G54D34*
X70000Y-289000D02*
X74000Y-289000D01*
X74000Y-310000D01*
X70000Y-310000D01*
X70000Y-289000D01*
G54D35*
X363000Y-158000D02*
X503000Y-158000D01*
G54D29*
X108000Y-221000D02*
X124000Y-237000D01*
X224000Y-237000D01*
X225000Y-238000D01*
X174520Y-159740D02*
G54D15*
D03*
X174520Y-235940D02*
G54D15*
D03*
G54D22*
X194793Y-101171D02*
X184829Y-101171D01*
X174000Y-112000D01*
X174000Y-159220D01*
G54D29*
X30000Y-213000D02*
X47000Y-213000D01*
X64000Y-213000D01*
X87000Y-213000D01*
G54D29*
X87000Y-213000D02*
X99677Y-213000D01*
X107677Y-221000D01*
G54D20*
X117932Y-159396D02*
X117932Y-170932D01*
X124000Y-177000D01*
X139347Y-177000D01*
X140046Y-176301D01*
X157958Y-176301D01*
X174520Y-159740D01*
G36*
X272000Y-219000D02*
X290000Y-219000D01*
X290000Y-238400D01*
X272000Y-238400D01*
X272000Y-219000D01*
G37*
G54D34*
X272000Y-219000D02*
X290000Y-219000D01*
X290000Y-238400D01*
X272000Y-238400D01*
X272000Y-219000D01*
G36*
X251500Y-246500D02*
X256000Y-246500D01*
X256000Y-257000D01*
X251500Y-257000D01*
X251500Y-246500D01*
G37*
G54D34*
X251500Y-246500D02*
X256000Y-246500D01*
X256000Y-257000D01*
X251500Y-257000D01*
X251500Y-246500D01*
G36*
X290000Y-218400D02*
X312000Y-218400D01*
X312000Y-238000D01*
X290000Y-238000D01*
X290000Y-218400D01*
G37*
G54D34*
X290000Y-218400D02*
X312000Y-218400D01*
X312000Y-238000D01*
X290000Y-238000D01*
X290000Y-218400D01*
G36*
X247600Y-197483D02*
X260000Y-197483D01*
X260000Y-213500D01*
X247600Y-213500D01*
X247600Y-197483D01*
G37*
G54D34*
X247600Y-197483D02*
X260000Y-197483D01*
X260000Y-213500D01*
X247600Y-213500D01*
X247600Y-197483D01*
G36*
X217000Y-182000D02*
X233000Y-182000D01*
X233000Y-195500D01*
X217000Y-195500D01*
X217000Y-182000D01*
G37*
G54D34*
X217000Y-182000D02*
X233000Y-182000D01*
X233000Y-195500D01*
X217000Y-195500D01*
X217000Y-182000D01*
G36*
X260000Y-178500D02*
X272500Y-178500D01*
X272500Y-191500D01*
X260000Y-191500D01*
X260000Y-178500D01*
G37*
G54D34*
X260000Y-178500D02*
X272500Y-178500D01*
X272500Y-191500D01*
X260000Y-191500D01*
X260000Y-178500D01*
G36*
X193500Y-285500D02*
X193500Y-405500D01*
X164500Y-405500D01*
X164500Y-285500D01*
X193500Y-285500D01*
G37*
G54D34*
X193500Y-285500D02*
X193500Y-405500D01*
X164500Y-405500D01*
X164500Y-285500D01*
X193500Y-285500D01*
G36*
X178967Y-400614D02*
X201386Y-400614D01*
X210000Y-392000D01*
X227754Y-392000D01*
X240809Y-378945D01*
X250945Y-378945D01*
X254500Y-382500D01*
X254500Y-372500D01*
X250000Y-368000D01*
X202000Y-368000D01*
X198000Y-364000D01*
X198000Y-355000D01*
X192814Y-349814D01*
X178967Y-400614D01*
G37*
G54D34*
X178967Y-400614D02*
X201386Y-400614D01*
X210000Y-392000D01*
X227754Y-392000D01*
X240809Y-378945D01*
X250945Y-378945D01*
X254500Y-382500D01*
X254500Y-372500D01*
X250000Y-368000D01*
X202000Y-368000D01*
X198000Y-364000D01*
X198000Y-355000D01*
X192814Y-349814D01*
X178967Y-400614D01*
G36*
X231000Y-272000D02*
X281500Y-272000D01*
X281500Y-279500D01*
X231000Y-279500D01*
X231000Y-272000D01*
G37*
G54D34*
X231000Y-272000D02*
X281500Y-272000D01*
X281500Y-279500D01*
X231000Y-279500D01*
X231000Y-272000D01*
G36*
X90000Y-441000D02*
X143000Y-441000D01*
X150000Y-448000D01*
X150000Y-455000D01*
X163620Y-455000D01*
X163763Y-454857D01*
X163763Y-446763D01*
X151000Y-434000D01*
X92000Y-434000D01*
X90000Y-441000D01*
G37*
G54D34*
X90000Y-441000D02*
X143000Y-441000D01*
X150000Y-448000D01*
X150000Y-455000D01*
X163620Y-455000D01*
X163763Y-454857D01*
X163763Y-446763D01*
X151000Y-434000D01*
X92000Y-434000D01*
X90000Y-441000D01*
G54D22*
X383000Y-46000D02*
X316000Y-46000D01*
X303000Y-59000D01*
X303000Y-106000D01*
X312000Y-115000D01*
X328000Y-115000D01*
G36*
X78000Y-311000D02*
X86967Y-362514D01*
X86967Y-400614D01*
X62500Y-410000D01*
X48000Y-411000D01*
X39500Y-401500D01*
X39500Y-334500D01*
X57500Y-316500D01*
X67000Y-316500D01*
X72000Y-311500D01*
X78000Y-311000D01*
G37*
G54D34*
X78000Y-311000D02*
X86967Y-362514D01*
X86967Y-400614D01*
X62500Y-410000D01*
X48000Y-411000D01*
X39500Y-401500D01*
X39500Y-334500D01*
X57500Y-316500D01*
X67000Y-316500D01*
X72000Y-311500D01*
X78000Y-311000D01*
G54D20*
X140046Y-176301D02*
X140046Y-187546D01*
X147000Y-194500D01*
X147000Y-212956D01*
X138956Y-221000D01*
G54D26*
X272500Y-215889D02*
X272500Y-225500D01*
X269500Y-228500D01*
X243500Y-228500D01*
X234000Y-238000D01*
X225000Y-238000D01*
G54D36*
X425342Y-485778D02*
X425342Y-474222D01*
X422453Y-474222D01*
X421298Y-474945D01*
X420720Y-476389D01*
X420720Y-477834D01*
X421298Y-479278D01*
X422453Y-480000D01*
X421298Y-480722D01*
X420720Y-482167D01*
X420720Y-483611D01*
X421298Y-485056D01*
X422453Y-485778D01*
X425342Y-485778D01*
G54D36*
X425342Y-480000D02*
X422453Y-480000D01*
G54D36*
X412054Y-476389D02*
X412054Y-483611D01*
X412632Y-485056D01*
X413787Y-485778D01*
X414943Y-485778D01*
X416098Y-485056D01*
X416676Y-483611D01*
X416676Y-476389D01*
X416098Y-474945D01*
X414943Y-474222D01*
X413787Y-474222D01*
X412632Y-474945D01*
X412054Y-476389D01*
G54D36*
X405699Y-485778D02*
X405699Y-474222D01*
G54D36*
X408010Y-474222D02*
X403388Y-474222D01*
G54D36*
X397033Y-485778D02*
X397033Y-474222D01*
G54D36*
X399344Y-474222D02*
X394722Y-474222D01*
G54D36*
X386056Y-476389D02*
X386056Y-483611D01*
X386634Y-485056D01*
X387789Y-485778D01*
X388945Y-485778D01*
X390100Y-485056D01*
X390678Y-483611D01*
X390678Y-476389D01*
X390100Y-474945D01*
X388945Y-474222D01*
X387789Y-474222D01*
X386634Y-474945D01*
X386056Y-476389D01*
G54D36*
X382012Y-485778D02*
X382012Y-474222D01*
X379123Y-481445D01*
X376234Y-474222D01*
X376234Y-485778D01*
X133089Y-43892D02*
G54D18*
D03*
X133089Y-103892D02*
G54D18*
D03*
X83289Y-78992D02*
G54D19*
D03*
G54D29*
X312000Y-219000D02*
X323000Y-219000D01*
X326000Y-222000D01*
X342328Y-222000D01*
X342932Y-221396D01*
X342932Y-233932D01*
X347000Y-238000D01*
X369220Y-238000D01*
X369869Y-237351D01*
X406592Y-131314D02*
G54D37*
D03*
X482792Y-131315D02*
G54D37*
D03*
G54D22*
X327000Y-147000D02*
X327000Y-160000D01*
X377907Y-160000D01*
X406592Y-131314D01*
G54D38*
G75*
G01X73000Y-39000D02*
G03X73000Y-39000I-30000J0D01*
G01*
G36*
G75*
G01X73000Y-39000D02*
G03X73000Y-39000I-30000J0D01*
G01*
G37*
X73000Y-39000D01*
G54D38*
G75*
G01X493000Y-39000D02*
G03X493000Y-39000I-30000J0D01*
G01*
G36*
G75*
G01X493000Y-39000D02*
G03X493000Y-39000I-30000J0D01*
G01*
G37*
X493000Y-39000D01*
G54D38*
G75*
G01X73000Y-459000D02*
G03X73000Y-459000I-30000J0D01*
G01*
G36*
G75*
G01X73000Y-459000D02*
G03X73000Y-459000I-30000J0D01*
G01*
G37*
X73000Y-459000D01*
G54D38*
G75*
G01X493000Y-459000D02*
G03X493000Y-459000I-30000J0D01*
G01*
G36*
G75*
G01X493000Y-459000D02*
G03X493000Y-459000I-30000J0D01*
G01*
G37*
X493000Y-459000D01*
G54D28*
X434000Y-332000D02*
X352037Y-332000D01*
X315974Y-295937D01*
G54D29*
X124066Y-261045D02*
X124066Y-237066D01*
X124000Y-237000D01*
G54D29*
X128000Y-237000D02*
X125000Y-240000D01*
G54D29*
X329000Y-154000D02*
X330000Y-154000D01*
X335000Y-159000D01*
X256000Y-257000D02*
G54D30*
D03*
X245000Y-257000D02*
G54D30*
D03*
G36*
X240000Y-251700D02*
X261000Y-251700D01*
X261000Y-262700D01*
X240000Y-262700D01*
X240000Y-251700D01*
G37*
G54D34*
X240000Y-251700D02*
X261000Y-251700D01*
X261000Y-262700D01*
X240000Y-262700D01*
X240000Y-251700D01*
G36*
X494000Y-9000D02*
X505000Y-9000D01*
X505000Y0D01*
X494000Y0D01*
X494000Y-9000D01*
G37*
G54D39*
X494000Y-9000D02*
X505000Y-9000D01*
X505000Y0D01*
X494000Y0D01*
X494000Y-9000D01*
G36*
X12000Y-11000D02*
X0Y-11000D01*
X0Y0D01*
X12000Y0D01*
X12000Y-11000D01*
G37*
G54D39*
X12000Y-11000D02*
X0Y-11000D01*
X0Y0D01*
X12000Y0D01*
X12000Y-11000D01*
G36*
X12000Y-489000D02*
X0Y-489000D01*
X0Y-500000D01*
X12000Y-500000D01*
X12000Y-489000D01*
G37*
G54D39*
X12000Y-489000D02*
X0Y-489000D01*
X0Y-500000D01*
X12000Y-500000D01*
X12000Y-489000D01*
G36*
X494000Y-489000D02*
X504000Y-489000D01*
X504000Y-500000D01*
X494000Y-500000D01*
X494000Y-489000D01*
G37*
G54D39*
X494000Y-489000D02*
X504000Y-489000D01*
X504000Y-500000D01*
X494000Y-500000D01*
X494000Y-489000D01*
%LPD*%
G54D40*
G36*
X86967Y-295134D02*
X102467Y-295134D01*
X102467Y-302894D01*
X86967Y-302894D01*
X86967Y-295134D01*
G37*
G36*
X86967Y-302894D02*
X71467Y-302894D01*
X71467Y-295134D01*
X86967Y-295134D01*
X86967Y-302894D01*
G37*
G54D41*
G36*
X434000Y-393667D02*
X446500Y-393667D01*
X446500Y-400333D01*
X434000Y-400333D01*
X434000Y-393667D01*
G37*
G36*
X437333Y-397000D02*
X437333Y-409500D01*
X430667Y-409500D01*
X430667Y-397000D01*
X437333Y-397000D01*
G37*
G36*
X434000Y-400333D02*
X421500Y-400333D01*
X421500Y-393667D01*
X434000Y-393667D01*
X434000Y-400333D01*
G37*
G36*
X430667Y-397000D02*
X430667Y-384500D01*
X437333Y-384500D01*
X437333Y-397000D01*
X430667Y-397000D01*
G37*
G54D42*
G36*
X444869Y-255018D02*
X476369Y-255018D01*
X476369Y-264684D01*
X444869Y-264684D01*
X444869Y-255018D01*
G37*
G36*
X449702Y-259851D02*
X449702Y-276851D01*
X440036Y-276851D01*
X440036Y-259851D01*
X449702Y-259851D01*
G37*
G36*
X444869Y-264684D02*
X413369Y-264684D01*
X413369Y-255018D01*
X444869Y-255018D01*
X444869Y-264684D01*
G37*
G36*
X440036Y-259851D02*
X440036Y-242851D01*
X449702Y-242851D01*
X449702Y-259851D01*
X440036Y-259851D01*
G37*
G54D42*
G36*
X444869Y-160018D02*
X476369Y-160018D01*
X476369Y-169684D01*
X444869Y-169684D01*
X444869Y-160018D01*
G37*
G36*
X449702Y-164851D02*
X449702Y-181851D01*
X440036Y-181851D01*
X440036Y-164851D01*
X449702Y-164851D01*
G37*
G36*
X444869Y-169684D02*
X413369Y-169684D01*
X413369Y-160018D01*
X444869Y-160018D01*
X444869Y-169684D01*
G37*
G54D41*
G36*
X369869Y-184018D02*
X382369Y-184018D01*
X382369Y-190684D01*
X369869Y-190684D01*
X369869Y-184018D01*
G37*
G36*
X373202Y-187351D02*
X373202Y-199851D01*
X366536Y-199851D01*
X366536Y-187351D01*
X373202Y-187351D01*
G37*
G36*
X369869Y-190684D02*
X357369Y-190684D01*
X357369Y-184018D01*
X369869Y-184018D01*
X369869Y-190684D01*
G37*
G36*
X366536Y-187351D02*
X366536Y-174851D01*
X373202Y-174851D01*
X373202Y-187351D01*
X366536Y-187351D01*
G37*
G54D43*
G36*
X266221Y-349780D02*
X255721Y-349780D01*
X255721Y-344446D01*
X266221Y-344446D01*
X266221Y-349780D01*
G37*
G36*
X263554Y-347113D02*
X263554Y-336613D01*
X268888Y-336613D01*
X268888Y-347113D01*
X263554Y-347113D01*
G37*
G36*
X266221Y-344446D02*
X276721Y-344446D01*
X276721Y-349780D01*
X266221Y-349780D01*
X266221Y-344446D01*
G37*
G36*
X268888Y-347113D02*
X268888Y-357613D01*
X263554Y-357613D01*
X263554Y-347113D01*
X268888Y-347113D01*
G37*
G54D44*
G36*
X264140Y-215889D02*
X264140Y-209389D01*
X267860Y-209389D01*
X267860Y-215889D01*
X264140Y-215889D01*
G37*
G36*
X267860Y-215889D02*
X267860Y-222389D01*
X264140Y-222389D01*
X264140Y-215889D01*
X267860Y-215889D01*
G37*
G54D43*
G36*
X263542Y-378945D02*
X263542Y-368445D01*
X268876Y-368445D01*
X268876Y-378945D01*
X263542Y-378945D01*
G37*
G36*
X266209Y-376278D02*
X276709Y-376278D01*
X276709Y-381612D01*
X266209Y-381612D01*
X266209Y-376278D01*
G37*
G36*
X268876Y-378945D02*
X268876Y-389445D01*
X263542Y-389445D01*
X263542Y-378945D01*
X268876Y-378945D01*
G37*
G54D43*
G36*
X121208Y-200363D02*
X121208Y-189863D01*
X126541Y-189863D01*
X126541Y-200363D01*
X121208Y-200363D01*
G37*
G36*
X123875Y-197696D02*
X134375Y-197696D01*
X134375Y-203030D01*
X123875Y-203030D01*
X123875Y-197696D01*
G37*
G36*
X126541Y-200363D02*
X126541Y-210863D01*
X121208Y-210863D01*
X121208Y-200363D01*
X126541Y-200363D01*
G37*
G36*
X123875Y-203030D02*
X113375Y-203030D01*
X113375Y-197696D01*
X123875Y-197696D01*
X123875Y-203030D01*
G37*
G54D43*
G36*
X140047Y-153634D02*
X150547Y-153634D01*
X150547Y-158968D01*
X140047Y-158968D01*
X140047Y-153634D01*
G37*
G36*
X140047Y-158968D02*
X129547Y-158968D01*
X129547Y-153634D01*
X140047Y-153634D01*
X140047Y-158968D01*
G37*
G36*
X137380Y-156301D02*
X137380Y-145801D01*
X142714Y-145801D01*
X142714Y-156301D01*
X137380Y-156301D01*
G37*
G54D45*
G36*
X381089Y-98392D02*
X406089Y-98392D01*
X406089Y-113392D01*
X381089Y-113392D01*
X381089Y-98392D01*
G37*
G36*
X388589Y-105892D02*
X388589Y-130892D01*
X373589Y-130892D01*
X373589Y-105892D01*
X388589Y-105892D01*
G37*
G36*
X381089Y-113392D02*
X356089Y-113392D01*
X356089Y-98392D01*
X381089Y-98392D01*
X381089Y-113392D01*
G37*
G36*
X373589Y-105892D02*
X373589Y-80892D01*
X388589Y-80892D01*
X388589Y-105892D01*
X373589Y-105892D01*
G37*
G54D43*
G36*
X149466Y-263712D02*
X138966Y-263712D01*
X138966Y-258378D01*
X149466Y-258378D01*
X149466Y-263712D01*
G37*
G36*
X146799Y-261045D02*
X146799Y-250545D01*
X152133Y-250545D01*
X152133Y-261045D01*
X146799Y-261045D01*
G37*
G36*
X149466Y-258378D02*
X159966Y-258378D01*
X159966Y-263712D01*
X149466Y-263712D01*
X149466Y-258378D01*
G37*
G36*
X152133Y-261045D02*
X152133Y-271545D01*
X146799Y-271545D01*
X146799Y-261045D01*
X152133Y-261045D01*
G37*
G54D46*
G36*
X39819Y-91354D02*
X49319Y-91354D01*
X49319Y-97422D01*
X39819Y-97422D01*
X39819Y-91354D01*
G37*
G36*
X42852Y-94388D02*
X42852Y-103388D01*
X36786Y-103388D01*
X36786Y-94388D01*
X42852Y-94388D01*
G37*
G36*
X39819Y-97422D02*
X30319Y-97422D01*
X30319Y-91354D01*
X39819Y-91354D01*
X39819Y-97422D01*
G37*
G36*
X36786Y-94388D02*
X36786Y-85388D01*
X42852Y-85388D01*
X42852Y-94388D01*
X36786Y-94388D01*
G37*
G54D46*
G36*
X117931Y-137364D02*
X127431Y-137364D01*
X127431Y-143430D01*
X117931Y-143430D01*
X117931Y-137364D01*
G37*
G36*
X120964Y-140397D02*
X120964Y-149397D01*
X114898Y-149397D01*
X114898Y-140397D01*
X120964Y-140397D01*
G37*
G36*
X117931Y-143430D02*
X108431Y-143430D01*
X108431Y-137364D01*
X117931Y-137364D01*
X117931Y-143430D01*
G37*
G36*
X114898Y-140397D02*
X114898Y-131397D01*
X120964Y-131397D01*
X120964Y-140397D01*
X114898Y-140397D01*
G37*
G54D43*
G36*
X344333Y-141000D02*
X344333Y-130500D01*
X349667Y-130500D01*
X349667Y-141000D01*
X344333Y-141000D01*
G37*
G36*
X347000Y-138333D02*
X357500Y-138333D01*
X357500Y-143667D01*
X347000Y-143667D01*
X347000Y-138333D01*
G37*
G54D47*
G36*
X344601Y-115114D02*
X344601Y-105614D01*
X348934Y-105614D01*
X348934Y-115114D01*
X344601Y-115114D01*
G37*
G36*
X346767Y-112948D02*
X355767Y-112948D01*
X355767Y-117281D01*
X346767Y-117281D01*
X346767Y-112948D01*
G37*
G36*
X348934Y-115114D02*
X348934Y-124614D01*
X344601Y-124614D01*
X344601Y-115114D01*
X348934Y-115114D01*
G37*
G36*
X346767Y-117281D02*
X337767Y-117281D01*
X337767Y-112948D01*
X346767Y-112948D01*
X346767Y-117281D01*
G37*
G54D47*
G36*
X87000Y-229834D02*
X96500Y-229834D01*
X96500Y-234166D01*
X87000Y-234166D01*
X87000Y-229834D01*
G37*
G36*
X89167Y-232000D02*
X89167Y-241000D01*
X84834Y-241000D01*
X84834Y-232000D01*
X89167Y-232000D01*
G37*
G36*
X87000Y-234166D02*
X77500Y-234166D01*
X77500Y-229834D01*
X87000Y-229834D01*
X87000Y-234166D01*
G37*
G36*
X84834Y-232000D02*
X84834Y-223000D01*
X89167Y-223000D01*
X89167Y-232000D01*
X84834Y-232000D01*
G37*
G54D48*
G36*
X187833Y-210000D02*
X187833Y-206000D01*
X190167Y-206000D01*
X190167Y-210000D01*
X187833Y-210000D01*
G37*
G36*
X189000Y-208833D02*
X193000Y-208833D01*
X193000Y-211167D01*
X189000Y-211167D01*
X189000Y-208833D01*
G37*
G36*
X190167Y-210000D02*
X190167Y-214000D01*
X187833Y-214000D01*
X187833Y-210000D01*
X190167Y-210000D01*
G37*
G36*
X189000Y-211167D02*
X185000Y-211167D01*
X185000Y-208833D01*
X189000Y-208833D01*
X189000Y-211167D01*
G37*
G54D48*
G36*
X241000Y-239833D02*
X245000Y-239833D01*
X245000Y-242167D01*
X241000Y-242167D01*
X241000Y-239833D01*
G37*
G36*
X242167Y-241000D02*
X242167Y-245000D01*
X239833Y-245000D01*
X239833Y-241000D01*
X242167Y-241000D01*
G37*
G54D43*
G36*
X290763Y-452190D02*
X301263Y-452190D01*
X301263Y-457524D01*
X290763Y-457524D01*
X290763Y-452190D01*
G37*
G36*
X293430Y-454857D02*
X293430Y-465357D01*
X288096Y-465357D01*
X288096Y-454857D01*
X293430Y-454857D01*
G37*
G36*
X290763Y-457524D02*
X280263Y-457524D01*
X280263Y-452190D01*
X290763Y-452190D01*
X290763Y-457524D01*
G37*
G36*
X288096Y-454857D02*
X288096Y-444357D01*
X293430Y-444357D01*
X293430Y-454857D01*
X288096Y-454857D01*
G37*
G54D46*
G36*
X61190Y-302988D02*
X51690Y-302988D01*
X51690Y-296920D01*
X61190Y-296920D01*
X61190Y-302988D01*
G37*
G36*
X58156Y-299954D02*
X58156Y-290954D01*
X64224Y-290954D01*
X64224Y-299954D01*
X58156Y-299954D01*
G37*
G36*
X61190Y-296920D02*
X70690Y-296920D01*
X70690Y-302988D01*
X61190Y-302988D01*
X61190Y-296920D01*
G37*
G36*
X64224Y-299954D02*
X64224Y-308954D01*
X58156Y-308954D01*
X58156Y-299954D01*
X64224Y-299954D01*
G37*
G54D46*
G36*
X38190Y-302988D02*
X28690Y-302988D01*
X28690Y-296920D01*
X38190Y-296920D01*
X38190Y-302988D01*
G37*
G36*
X35156Y-299954D02*
X35156Y-290954D01*
X41224Y-290954D01*
X41224Y-299954D01*
X35156Y-299954D01*
G37*
G36*
X38190Y-296920D02*
X47690Y-296920D01*
X47690Y-302988D01*
X38190Y-302988D01*
X38190Y-296920D01*
G37*
G36*
X41224Y-299954D02*
X41224Y-308954D01*
X35156Y-308954D01*
X35156Y-299954D01*
X41224Y-299954D01*
G37*
G54D43*
G36*
X266221Y-412780D02*
X255721Y-412780D01*
X255721Y-407446D01*
X266221Y-407446D01*
X266221Y-412780D01*
G37*
G36*
X263554Y-410113D02*
X263554Y-399613D01*
X268888Y-399613D01*
X268888Y-410113D01*
X263554Y-410113D01*
G37*
G36*
X266221Y-407446D02*
X276721Y-407446D01*
X276721Y-412780D01*
X266221Y-412780D01*
X266221Y-407446D01*
G37*
G36*
X268888Y-410113D02*
X268888Y-420613D01*
X263554Y-420613D01*
X263554Y-410113D01*
X268888Y-410113D01*
G37*
G54D47*
G36*
X64000Y-229834D02*
X73500Y-229834D01*
X73500Y-234166D01*
X64000Y-234166D01*
X64000Y-229834D01*
G37*
G36*
X66167Y-232000D02*
X66167Y-241000D01*
X61834Y-241000D01*
X61834Y-232000D01*
X66167Y-232000D01*
G37*
G36*
X64000Y-234166D02*
X54500Y-234166D01*
X54500Y-229834D01*
X64000Y-229834D01*
X64000Y-234166D01*
G37*
G36*
X61834Y-232000D02*
X61834Y-223000D01*
X66167Y-223000D01*
X66167Y-232000D01*
X61834Y-232000D01*
G37*
G54D46*
G36*
X225000Y-215966D02*
X234500Y-215966D01*
X234500Y-222034D01*
X225000Y-222034D01*
X225000Y-215966D01*
G37*
G36*
X225000Y-222034D02*
X215500Y-222034D01*
X215500Y-215966D01*
X225000Y-215966D01*
X225000Y-222034D01*
G37*
G36*
X221966Y-219000D02*
X221966Y-210000D01*
X228034Y-210000D01*
X228034Y-219000D01*
X221966Y-219000D01*
G37*
G54D43*
G36*
X215421Y-296780D02*
X204921Y-296780D01*
X204921Y-291446D01*
X215421Y-291446D01*
X215421Y-296780D01*
G37*
G36*
X212754Y-294113D02*
X212754Y-283613D01*
X218088Y-283613D01*
X218088Y-294113D01*
X212754Y-294113D01*
G37*
G36*
X215421Y-291446D02*
X225921Y-291446D01*
X225921Y-296780D01*
X215421Y-296780D01*
X215421Y-291446D01*
G37*
G36*
X218088Y-294113D02*
X218088Y-304613D01*
X212754Y-304613D01*
X212754Y-294113D01*
X218088Y-294113D01*
G37*
G54D47*
G36*
X223708Y-318865D02*
X223708Y-309365D01*
X228040Y-309365D01*
X228040Y-318865D01*
X223708Y-318865D01*
G37*
G36*
X225874Y-316698D02*
X234874Y-316698D01*
X234874Y-321032D01*
X225874Y-321032D01*
X225874Y-316698D01*
G37*
G36*
X225874Y-321032D02*
X216874Y-321032D01*
X216874Y-316698D01*
X225874Y-316698D01*
X225874Y-321032D01*
G37*
G54D46*
G36*
X342931Y-199364D02*
X352431Y-199364D01*
X352431Y-205430D01*
X342931Y-205430D01*
X342931Y-199364D01*
G37*
G36*
X345964Y-202397D02*
X345964Y-211397D01*
X339898Y-211397D01*
X339898Y-202397D01*
X345964Y-202397D01*
G37*
G36*
X342931Y-205430D02*
X333431Y-205430D01*
X333431Y-199364D01*
X342931Y-199364D01*
X342931Y-205430D01*
G37*
G36*
X339898Y-202397D02*
X339898Y-193397D01*
X345964Y-193397D01*
X345964Y-202397D01*
X339898Y-202397D01*
G37*
G54D48*
G36*
X239833Y-219000D02*
X239833Y-215000D01*
X242167Y-215000D01*
X242167Y-219000D01*
X239833Y-219000D01*
G37*
G36*
X241000Y-217833D02*
X245000Y-217833D01*
X245000Y-220167D01*
X241000Y-220167D01*
X241000Y-217833D01*
G37*
G36*
X242167Y-219000D02*
X242167Y-223000D01*
X239833Y-223000D01*
X239833Y-219000D01*
X242167Y-219000D01*
G37*
G36*
X241000Y-220167D02*
X237000Y-220167D01*
X237000Y-217833D01*
X241000Y-217833D01*
X241000Y-220167D01*
G37*
G54D48*
G36*
X104833Y-241000D02*
X104833Y-237000D01*
X107167Y-237000D01*
X107167Y-241000D01*
X104833Y-241000D01*
G37*
G36*
X106000Y-239833D02*
X110000Y-239833D01*
X110000Y-242167D01*
X106000Y-242167D01*
X106000Y-239833D01*
G37*
G36*
X107167Y-241000D02*
X107167Y-245000D01*
X104833Y-245000D01*
X104833Y-241000D01*
X107167Y-241000D01*
G37*
G36*
X106000Y-242167D02*
X102000Y-242167D01*
X102000Y-239833D01*
X106000Y-239833D01*
X106000Y-242167D01*
G37*
G54D46*
G36*
X316974Y-353904D02*
X326474Y-353904D01*
X326474Y-359970D01*
X316974Y-359970D01*
X316974Y-353904D01*
G37*
G36*
X320008Y-356937D02*
X320008Y-365937D01*
X313940Y-365937D01*
X313940Y-356937D01*
X320008Y-356937D01*
G37*
G36*
X316974Y-359970D02*
X307474Y-359970D01*
X307474Y-353904D01*
X316974Y-353904D01*
X316974Y-359970D01*
G37*
G36*
X313940Y-356937D02*
X313940Y-347937D01*
X320008Y-347937D01*
X320008Y-356937D01*
X313940Y-356937D01*
G37*
G54D48*
G36*
X315833Y-338000D02*
X315833Y-334000D01*
X318167Y-334000D01*
X318167Y-338000D01*
X315833Y-338000D01*
G37*
G36*
X317000Y-336833D02*
X321000Y-336833D01*
X321000Y-339167D01*
X317000Y-339167D01*
X317000Y-336833D01*
G37*
G36*
X318167Y-338000D02*
X318167Y-342000D01*
X315833Y-342000D01*
X315833Y-338000D01*
X318167Y-338000D01*
G37*
G36*
X317000Y-339167D02*
X313000Y-339167D01*
X313000Y-336833D01*
X317000Y-336833D01*
X317000Y-339167D01*
G37*
G54D48*
G36*
X331833Y-356000D02*
X331833Y-352000D01*
X334167Y-352000D01*
X334167Y-356000D01*
X331833Y-356000D01*
G37*
G36*
X333000Y-354833D02*
X337000Y-354833D01*
X337000Y-357167D01*
X333000Y-357167D01*
X333000Y-354833D01*
G37*
G36*
X334167Y-356000D02*
X334167Y-360000D01*
X331833Y-360000D01*
X331833Y-356000D01*
X334167Y-356000D01*
G37*
G36*
X333000Y-357167D02*
X329000Y-357167D01*
X329000Y-354833D01*
X333000Y-354833D01*
X333000Y-357167D01*
G37*
G54D48*
G36*
X187833Y-223000D02*
X187833Y-219000D01*
X190167Y-219000D01*
X190167Y-223000D01*
X187833Y-223000D01*
G37*
G36*
X189000Y-221833D02*
X193000Y-221833D01*
X193000Y-224167D01*
X189000Y-224167D01*
X189000Y-221833D01*
G37*
G36*
X190167Y-223000D02*
X190167Y-227000D01*
X187833Y-227000D01*
X187833Y-223000D01*
X190167Y-223000D01*
G37*
G36*
X189000Y-224167D02*
X185000Y-224167D01*
X185000Y-221833D01*
X189000Y-221833D01*
X189000Y-224167D01*
G37*
G54D48*
G36*
X201833Y-223000D02*
X201833Y-219000D01*
X204167Y-219000D01*
X204167Y-223000D01*
X201833Y-223000D01*
G37*
G36*
X203000Y-221833D02*
X207000Y-221833D01*
X207000Y-224167D01*
X203000Y-224167D01*
X203000Y-221833D01*
G37*
G36*
X204167Y-223000D02*
X204167Y-227000D01*
X201833Y-227000D01*
X201833Y-223000D01*
X204167Y-223000D01*
G37*
G36*
X203000Y-224167D02*
X199000Y-224167D01*
X199000Y-221833D01*
X203000Y-221833D01*
X203000Y-224167D01*
G37*
G54D45*
G36*
X133089Y-96392D02*
X158089Y-96392D01*
X158089Y-111392D01*
X133089Y-111392D01*
X133089Y-96392D01*
G37*
G36*
X140589Y-103892D02*
X140589Y-128892D01*
X125589Y-128892D01*
X125589Y-103892D01*
X140589Y-103892D01*
G37*
G36*
X133089Y-111392D02*
X108089Y-111392D01*
X108089Y-96392D01*
X133089Y-96392D01*
X133089Y-111392D01*
G37*
G36*
X125589Y-103892D02*
X125589Y-78892D01*
X140589Y-78892D01*
X140589Y-103892D01*
X125589Y-103892D01*
G37*
G54D49*
G36*
X479959Y-131315D02*
X479959Y-120315D01*
X485626Y-120315D01*
X485626Y-131315D01*
X479959Y-131315D01*
G37*
G36*
X482792Y-128482D02*
X493792Y-128482D01*
X493792Y-134148D01*
X482792Y-134148D01*
X482792Y-128482D01*
G37*
G36*
X485626Y-131315D02*
X485626Y-142315D01*
X479959Y-142315D01*
X479959Y-131315D01*
X485626Y-131315D01*
G37*
G36*
X482792Y-134148D02*
X471792Y-134148D01*
X471792Y-128482D01*
X482792Y-128482D01*
X482792Y-134148D01*
G37*
X178967Y-286314D02*
G54D50*
D03*
X178967Y-299014D02*
G54D50*
D03*
X178967Y-311714D02*
G54D50*
D03*
X178967Y-324414D02*
G54D50*
D03*
X178967Y-337114D02*
G54D50*
D03*
X178967Y-349814D02*
G54D50*
D03*
X178967Y-362514D02*
G54D50*
D03*
X178967Y-375214D02*
G54D50*
D03*
X178967Y-387914D02*
G54D50*
D03*
X178967Y-400614D02*
G54D50*
D03*
X86967Y-400614D02*
G54D50*
D03*
X86967Y-387914D02*
G54D50*
D03*
X86967Y-375214D02*
G54D50*
D03*
X86967Y-362514D02*
G54D50*
D03*
X86967Y-349814D02*
G54D50*
D03*
X86967Y-337114D02*
G54D50*
D03*
X86967Y-324414D02*
G54D50*
D03*
X86967Y-311714D02*
G54D50*
D03*
X86967Y-299014D02*
G54D50*
D03*
X86967Y-286314D02*
G54D50*
D03*
X42087Y-163864D02*
G54D51*
D03*
X64987Y-163864D02*
G54D51*
D03*
X87887Y-163864D02*
G54D51*
D03*
X434000Y-397000D02*
G54D51*
D03*
G36*
X444000Y-322000D02*
X444000Y-342000D01*
X424000Y-342000D01*
X424000Y-322000D01*
X444000Y-322000D01*
G37*
G54D52*
X459369Y-259851D02*
X430369Y-259851D01*
G54D52*
X459369Y-164851D02*
X430369Y-164851D01*
X369869Y-212351D02*
G54D53*
D03*
X369869Y-237351D02*
G54D53*
D03*
X369869Y-187351D02*
G54D53*
D03*
X215421Y-347113D02*
G54D54*
D03*
X240821Y-347113D02*
G54D54*
D03*
X266221Y-347113D02*
G54D54*
D03*
G36*
X283621Y-355113D02*
X283621Y-339113D01*
X299621Y-339113D01*
X299621Y-355113D01*
X283621Y-355113D01*
G37*
X253000Y-215889D02*
G54D55*
D03*
X253000Y-242889D02*
G54D55*
D03*
X259500Y-215889D02*
G54D55*
D03*
X259500Y-242889D02*
G54D55*
D03*
X266000Y-215889D02*
G54D55*
D03*
X266000Y-242889D02*
G54D55*
D03*
X272500Y-215889D02*
G54D55*
D03*
X272500Y-242889D02*
G54D55*
D03*
X215409Y-378945D02*
G54D54*
D03*
X240809Y-378945D02*
G54D54*
D03*
X266209Y-378945D02*
G54D54*
D03*
G36*
X283609Y-386945D02*
X283609Y-370945D01*
X299609Y-370945D01*
X299609Y-386945D01*
X283609Y-386945D01*
G37*
X108000Y-221000D02*
G54D56*
D03*
X138956Y-221000D02*
G54D56*
D03*
X123875Y-200363D02*
G54D56*
D03*
X140047Y-156301D02*
G54D56*
D03*
G36*
X148046Y-168301D02*
X148046Y-184301D01*
X132046Y-184301D01*
X132046Y-168301D01*
X148046Y-168301D01*
G37*
X381089Y-45892D02*
G54D57*
D03*
X381089Y-105892D02*
G54D57*
D03*
X331289Y-80992D02*
G54D58*
D03*
G36*
X90666Y-269045D02*
X90666Y-253045D01*
X106666Y-253045D01*
X106666Y-269045D01*
X90666Y-269045D01*
G37*
X124066Y-261045D02*
G54D54*
D03*
X149466Y-261045D02*
G54D54*
D03*
X174866Y-261045D02*
G54D54*
D03*
X200266Y-261045D02*
G54D54*
D03*
X88458Y-192149D02*
G54D56*
D03*
X37658Y-192149D02*
G54D56*
D03*
X39490Y-135388D02*
G54D51*
D03*
X64890Y-135388D02*
G54D51*
D03*
X90290Y-135388D02*
G54D51*
D03*
G54D59*
X39490Y-135388D02*
X39490Y-161267D01*
X42087Y-163864D01*
X42087Y-173595D01*
X37456Y-178225D01*
X37456Y-193948D01*
X37658Y-194149D01*
G54D59*
X88458Y-194149D02*
X88458Y-164436D01*
X87887Y-163864D01*
X87887Y-137791D01*
X90290Y-135388D01*
X39819Y-94388D02*
G54D60*
D03*
X39819Y-113388D02*
G54D60*
D03*
X117931Y-140397D02*
G54D60*
D03*
X117932Y-159396D02*
G54D60*
D03*
G54D59*
X39490Y-135388D02*
X39490Y-113717D01*
X39819Y-113388D01*
G54D59*
X64890Y-135388D02*
X64890Y-163767D01*
X64987Y-163864D01*
G54D31*
X87887Y-163864D02*
X113464Y-163864D01*
X117932Y-159396D01*
X250793Y-49171D02*
G54D61*
D03*
X283293Y-49271D02*
G54D61*
D03*
X250793Y-75171D02*
G54D61*
D03*
X283293Y-75271D02*
G54D61*
D03*
X250793Y-101171D02*
G54D61*
D03*
X283293Y-101271D02*
G54D61*
D03*
X250793Y-127171D02*
G54D61*
D03*
X283293Y-127271D02*
G54D61*
D03*
X250793Y-153171D02*
G54D61*
D03*
X283293Y-153271D02*
G54D61*
D03*
G36*
X188293Y-40171D02*
X201293Y-40171D01*
X201293Y-58171D01*
X188293Y-58171D01*
X188293Y-40171D01*
G37*
X227293Y-49271D02*
G54D61*
D03*
G36*
X188293Y-66172D02*
X201293Y-66171D01*
X201293Y-84171D01*
X188293Y-84172D01*
X188293Y-66172D01*
G37*
X227293Y-75271D02*
G54D61*
D03*
X194793Y-101171D02*
G54D61*
D03*
X227293Y-101271D02*
G54D61*
D03*
X194793Y-127171D02*
G54D61*
D03*
X227293Y-127271D02*
G54D61*
D03*
G36*
X188293Y-144171D02*
X201293Y-144171D01*
X201293Y-162171D01*
X188293Y-162171D01*
X188293Y-144171D01*
G37*
X227293Y-153271D02*
G54D61*
D03*
G54D31*
X283293Y-49271D02*
X283293Y-153271D01*
G54D31*
X250793Y-49171D02*
X250793Y-153171D01*
G54D31*
X194793Y-49171D02*
X194793Y-153171D01*
G54D31*
X227293Y-49271D02*
X227293Y-153271D01*
G54D31*
X283293Y-49271D02*
X283293Y-35293D01*
X275000Y-27000D01*
X205000Y-27000D01*
X195000Y-37000D01*
X195000Y-48964D01*
X194793Y-49171D01*
G36*
X227293Y-49271D02*
X227293Y-153271D01*
X250693Y-153271D01*
X250793Y-153171D01*
X250793Y-49171D01*
X227293Y-49271D01*
G37*
G54D31*
X227293Y-49271D02*
X227293Y-153271D01*
X250693Y-153271D01*
X250793Y-153171D01*
X250793Y-49171D01*
X227293Y-49271D01*
X347000Y-141000D02*
G54D56*
D03*
G36*
X335000Y-149000D02*
X319000Y-149000D01*
X319000Y-133000D01*
X335000Y-133000D01*
X335000Y-149000D01*
G37*
X327767Y-115114D02*
G54D62*
D03*
X346767Y-115114D02*
G54D62*
D03*
G54D31*
X327426Y-115772D02*
X327426Y-137628D01*
X328084Y-138286D01*
X225000Y-179000D02*
G54D60*
D03*
X225000Y-198000D02*
G54D60*
D03*
X290000Y-179000D02*
G54D60*
D03*
X290000Y-198000D02*
G54D60*
D03*
G54D31*
X251000Y-153000D02*
X251000Y-177000D01*
X252000Y-178000D01*
X309000Y-178000D01*
X327000Y-160000D01*
X327000Y-138000D01*
X266600Y-197482D02*
G54D62*
D03*
X247600Y-197483D02*
G54D62*
D03*
G54D31*
X225000Y-198000D02*
X247083Y-198000D01*
X247600Y-197483D01*
G54D31*
X266600Y-197482D02*
X288483Y-197482D01*
X289000Y-198000D01*
X87000Y-213000D02*
G54D60*
D03*
X87000Y-232000D02*
G54D60*
D03*
G54D63*
X247600Y-197483D02*
X247600Y-210489D01*
X253000Y-215889D01*
G54D63*
X259500Y-215889D02*
X259500Y-204582D01*
X266600Y-197482D01*
X189000Y-210000D02*
G54D64*
D03*
X241000Y-241000D02*
G54D64*
D03*
X290000Y-218400D02*
G54D65*
D03*
X290000Y-238400D02*
G54D65*
D03*
X312000Y-219000D02*
G54D60*
D03*
X312000Y-238000D02*
G54D60*
D03*
G54D63*
X311000Y-219000D02*
X289000Y-219000D01*
X275611Y-219000D01*
X272500Y-215889D01*
G54D35*
X272500Y-242889D02*
X276111Y-242889D01*
X281000Y-238000D01*
X288600Y-238000D01*
X289000Y-238400D01*
G54D35*
X275611Y-219000D02*
X275611Y-219389D01*
X273000Y-222000D01*
G36*
X324163Y-446857D02*
X324163Y-462857D01*
X308163Y-462857D01*
X308163Y-446857D01*
X324163Y-446857D01*
G37*
X290763Y-454857D02*
G54D54*
D03*
X265363Y-454857D02*
G54D54*
D03*
X239963Y-454857D02*
G54D54*
D03*
X214563Y-454857D02*
G54D54*
D03*
X189163Y-454857D02*
G54D54*
D03*
X163763Y-454857D02*
G54D54*
D03*
X138363Y-454857D02*
G54D54*
D03*
X30000Y-232000D02*
G54D60*
D03*
X30000Y-213000D02*
G54D60*
D03*
X61190Y-299954D02*
G54D60*
D03*
X61190Y-280955D02*
G54D60*
D03*
X38190Y-299954D02*
G54D60*
D03*
X38190Y-280955D02*
G54D60*
D03*
G54D66*
X38190Y-280955D02*
X61190Y-280955D01*
X156000Y-290000D02*
G54D64*
D03*
X39000Y-264000D02*
G54D64*
D03*
X315974Y-276937D02*
G54D60*
D03*
X315974Y-295937D02*
G54D60*
D03*
X215421Y-410113D02*
G54D54*
D03*
X240821Y-410113D02*
G54D54*
D03*
X266221Y-410113D02*
G54D54*
D03*
G36*
X283621Y-418113D02*
X283621Y-402113D01*
X299621Y-402113D01*
X299621Y-418113D01*
X283621Y-418113D01*
G37*
X64000Y-213000D02*
G54D60*
D03*
X64000Y-232000D02*
G54D60*
D03*
X47000Y-213000D02*
G54D64*
D03*
X225000Y-219000D02*
G54D60*
D03*
X225000Y-238000D02*
G54D60*
D03*
G54D66*
X30000Y-232000D02*
X30000Y-240000D01*
X51000Y-261000D01*
X98621Y-261000D01*
X98666Y-261045D01*
X113000Y-455000D02*
G54D54*
D03*
X215421Y-294113D02*
G54D54*
D03*
X240821Y-294113D02*
G54D54*
D03*
X266221Y-294113D02*
G54D54*
D03*
X247874Y-318865D02*
G54D62*
D03*
X266874Y-318865D02*
G54D62*
D03*
X206874Y-318865D02*
G54D62*
D03*
X225874Y-318865D02*
G54D62*
D03*
G54D63*
X178967Y-324414D02*
X191586Y-324414D01*
X197000Y-319000D01*
X206740Y-319000D01*
X206874Y-318865D01*
G54D63*
X240821Y-294113D02*
X240821Y-311812D01*
X247874Y-318865D01*
X342931Y-202397D02*
G54D60*
D03*
X342932Y-221396D02*
G54D60*
D03*
G54D63*
X266874Y-318865D02*
X279865Y-318865D01*
X291000Y-330000D01*
X291000Y-346492D01*
X291621Y-347113D01*
G54D63*
X178967Y-337114D02*
X195886Y-337114D01*
X202000Y-331000D01*
X244000Y-331000D01*
X246000Y-329000D01*
X246000Y-320740D01*
X247874Y-318865D01*
G54D35*
X174866Y-261045D02*
X168955Y-261045D01*
X154500Y-275500D01*
X150500Y-275500D01*
X136000Y-290000D01*
X136000Y-302000D01*
X145714Y-311714D01*
X178967Y-311714D01*
G54D35*
X200266Y-261045D02*
X199955Y-261045D01*
X185000Y-276000D01*
X166000Y-276000D01*
X161000Y-281000D01*
X153000Y-281000D01*
X146000Y-288000D01*
X146000Y-295000D01*
X150000Y-299000D01*
X178954Y-299000D01*
X178967Y-299014D01*
G54D63*
X178967Y-286314D02*
X159686Y-286314D01*
X156000Y-290000D01*
G54D63*
X86967Y-400614D02*
X86967Y-408967D01*
X97000Y-419000D01*
X206534Y-419000D01*
X215421Y-410113D01*
G54D63*
X178967Y-387914D02*
X206440Y-387914D01*
X215409Y-378945D01*
G54D32*
X316163Y-454857D02*
X316163Y-419163D01*
X307000Y-410000D01*
X291734Y-410000D01*
X291621Y-410113D01*
X291621Y-347113D01*
G54D35*
X178967Y-400614D02*
X201386Y-400614D01*
X210000Y-392000D01*
X227754Y-392000D01*
X240809Y-378945D01*
G54D38*
X266000Y-242889D02*
X266000Y-237000D01*
X268000Y-235000D01*
X271300Y-235000D01*
X278000Y-228300D01*
X299300Y-228300D01*
X312000Y-238000D01*
X158000Y-375000D02*
G54D64*
D03*
G54D38*
X159000Y-375000D02*
X178754Y-375000D01*
X178967Y-375214D01*
X157486Y-362514D02*
G54D64*
D03*
G54D35*
X158486Y-362514D02*
X178967Y-362514D01*
G54D35*
X178967Y-349814D02*
X192814Y-349814D01*
X198000Y-355000D01*
X198000Y-364000D01*
X201000Y-367000D01*
X249000Y-367000D01*
X253000Y-371000D01*
X253000Y-384000D01*
X241000Y-396000D01*
X241000Y-409934D01*
X240821Y-410113D01*
G54D66*
X39000Y-264000D02*
X39000Y-280145D01*
X38190Y-280955D01*
G54D66*
X61190Y-280955D02*
X67955Y-280955D01*
X74000Y-287000D01*
X86281Y-287000D01*
X86967Y-286314D01*
G54D59*
X86967Y-299014D02*
X62131Y-299014D01*
X61190Y-299954D01*
X38190Y-299954D01*
G54D35*
X87000Y-311500D02*
X70500Y-311500D01*
X65500Y-316500D01*
X57500Y-316500D01*
X39500Y-334500D01*
X39500Y-401500D01*
X119000Y-481000D01*
X259000Y-481000D01*
X265000Y-475000D01*
X265000Y-455000D01*
X265500Y-455000D01*
G54D35*
X86967Y-324414D02*
X61086Y-324414D01*
X47000Y-338500D01*
X47000Y-401000D01*
X101000Y-455000D01*
X113000Y-455000D01*
X347193Y-420772D02*
G54D67*
D03*
X347093Y-453272D02*
G54D67*
D03*
X346000Y-469000D02*
G54D64*
D03*
G54D66*
X316163Y-419163D02*
X345585Y-419163D01*
X347193Y-420772D01*
G54D66*
X346000Y-469000D02*
X346000Y-454365D01*
X347093Y-453272D01*
G54D35*
X86967Y-337114D02*
X69886Y-337114D01*
X54500Y-352500D01*
X54500Y-400500D01*
X95000Y-441000D01*
X143000Y-441000D01*
X229000Y-279000D02*
G54D64*
D03*
X127000Y-306000D02*
G54D64*
D03*
X241000Y-219000D02*
G54D64*
D03*
G54D35*
X369869Y-212351D02*
X386351Y-212351D01*
X392000Y-218000D01*
X392000Y-247000D01*
X382000Y-257000D01*
X297000Y-257000D01*
X282000Y-272000D01*
X210000Y-272000D01*
X197000Y-285000D01*
X197000Y-319000D01*
G54D35*
X229000Y-279000D02*
X291000Y-279000D01*
X294000Y-276000D01*
X316910Y-276000D01*
X318974Y-273937D01*
G54D35*
X127000Y-306000D02*
X125000Y-306000D01*
X111000Y-320000D01*
X111000Y-358000D01*
X106000Y-363000D01*
G54D35*
X189163Y-454857D02*
X189163Y-463837D01*
X182000Y-471000D01*
X157000Y-471000D01*
X150000Y-464000D01*
X150000Y-448000D01*
X143000Y-441000D01*
G54D35*
X106000Y-363000D02*
X87454Y-363000D01*
X86967Y-362514D01*
G54D35*
X163763Y-454857D02*
X163763Y-446763D01*
X151000Y-434000D01*
X96000Y-434000D01*
X62000Y-400000D01*
X62000Y-357000D01*
X69000Y-350000D01*
X86781Y-350000D01*
X86967Y-349814D01*
X109000Y-375000D02*
G54D64*
D03*
G54D35*
X109000Y-375000D02*
X87181Y-375000D01*
X86967Y-375214D01*
X123000Y-388000D02*
G54D64*
D03*
G54D35*
X123486Y-387514D02*
X87367Y-387514D01*
X86967Y-387914D01*
X278000Y-257500D02*
G54D64*
D03*
X269000Y-255000D02*
G54D64*
D03*
G54D35*
X266000Y-242889D02*
X266000Y-252000D01*
X268000Y-254000D01*
G54D35*
X272500Y-242889D02*
X272500Y-248500D01*
X277000Y-253000D01*
X277000Y-257000D01*
X106000Y-241000D02*
G54D64*
D03*
X316974Y-356937D02*
G54D60*
D03*
X316974Y-375937D02*
G54D60*
D03*
G54D66*
X291609Y-378945D02*
X313966Y-378945D01*
X316974Y-375937D01*
X317000Y-338000D02*
G54D64*
D03*
X333000Y-356000D02*
G54D64*
D03*
G54D66*
X342931Y-200897D02*
X342931Y-192569D01*
X349000Y-186500D01*
X373720Y-186500D01*
X374369Y-185851D01*
G54D31*
X194793Y-153171D02*
X194793Y-173793D01*
X200000Y-179000D01*
X225000Y-179000D01*
G54D35*
X259500Y-242889D02*
X259500Y-253500D01*
X256000Y-257000D01*
G54D35*
X253000Y-242889D02*
X253000Y-249000D01*
X245000Y-257000D01*
G54D35*
X245000Y-257000D02*
X245000Y-266000D01*
G54D35*
X256000Y-257000D02*
X256000Y-265000D01*
G54D66*
X108000Y-221000D02*
X124000Y-237000D01*
X224000Y-237000D01*
X225000Y-238000D01*
X174520Y-159740D02*
G54D54*
D03*
X174520Y-235940D02*
G54D54*
D03*
G54D31*
X194793Y-101171D02*
X184829Y-101171D01*
X174000Y-112000D01*
X174000Y-159220D01*
X189000Y-223000D02*
G54D64*
D03*
X203000Y-223000D02*
G54D64*
D03*
G54D66*
X30000Y-213000D02*
X47000Y-213000D01*
X64000Y-213000D01*
X87000Y-213000D01*
G54D66*
X87000Y-213000D02*
X99677Y-213000D01*
X107677Y-221000D01*
G54D59*
X117932Y-159396D02*
X117932Y-170932D01*
X124000Y-177000D01*
X139347Y-177000D01*
X140046Y-176301D01*
X157958Y-176301D01*
X174520Y-159740D01*
G54D31*
X383000Y-46000D02*
X316000Y-46000D01*
X303000Y-59000D01*
X303000Y-106000D01*
X312000Y-115000D01*
X328000Y-115000D01*
G54D59*
X140046Y-176301D02*
X140046Y-187546D01*
X147000Y-194500D01*
X147000Y-212956D01*
X138956Y-221000D01*
G54D63*
X272500Y-215889D02*
X272500Y-225500D01*
X269500Y-228500D01*
X243500Y-228500D01*
X234000Y-238000D01*
X225000Y-238000D01*
X133089Y-43892D02*
G54D57*
D03*
X133089Y-103892D02*
G54D57*
D03*
X83289Y-78992D02*
G54D58*
D03*
G54D66*
X312000Y-219000D02*
X323000Y-219000D01*
X326000Y-222000D01*
X342328Y-222000D01*
X342932Y-221396D01*
X342932Y-233932D01*
X347000Y-238000D01*
X369220Y-238000D01*
X369869Y-237351D01*
X406592Y-131314D02*
G54D68*
D03*
X482792Y-131315D02*
G54D68*
D03*
G54D31*
X327000Y-147000D02*
X327000Y-160000D01*
X377907Y-160000D01*
X406592Y-131314D01*
G54D35*
X434000Y-332000D02*
X352037Y-332000D01*
X315974Y-295937D01*
G54D66*
X124066Y-261045D02*
X124066Y-237066D01*
X124000Y-237000D01*
G54D66*
X128000Y-237000D02*
X125000Y-240000D01*
G54D66*
X329000Y-154000D02*
X330000Y-154000D01*
X335000Y-159000D01*
X256000Y-257000D02*
G54D64*
D03*
X245000Y-257000D02*
G54D64*
D03*
M02*
