%FSLAX34Y34*%
%MOMM*%
%LNSMDMASK_BOTTOM*%
G71*
G01*
%ADD10R, 2.600X0.800*%
%ADD11R, 0.450X0.800*%
%ADD12R, 1.400X1.300*%
%ADD13R, 1.300X1.800*%
%ADD14R, 1.300X1.400*%
%ADD15R, 1.400X1.200*%
%ADD16R, 1.800X1.300*%
%ADD17R, 1.800X3.700*%
%LPD*%
X176000Y-287300D02*
G54D10*
D03*
X176000Y-300000D02*
G54D10*
D03*
X176000Y-312700D02*
G54D10*
D03*
X176000Y-325400D02*
G54D10*
D03*
X176000Y-338100D02*
G54D10*
D03*
X176000Y-350800D02*
G54D10*
D03*
X176000Y-363500D02*
G54D10*
D03*
X176000Y-376200D02*
G54D10*
D03*
X176000Y-388900D02*
G54D10*
D03*
X176000Y-401600D02*
G54D10*
D03*
X84000Y-401600D02*
G54D10*
D03*
X84000Y-388900D02*
G54D10*
D03*
X84000Y-376200D02*
G54D10*
D03*
X84000Y-363500D02*
G54D10*
D03*
X84000Y-350800D02*
G54D10*
D03*
X84000Y-338100D02*
G54D10*
D03*
X84000Y-325400D02*
G54D10*
D03*
X84000Y-312700D02*
G54D10*
D03*
X84000Y-300000D02*
G54D10*
D03*
X84000Y-287300D02*
G54D10*
D03*
X250033Y-216875D02*
G54D11*
D03*
X250033Y-243875D02*
G54D11*
D03*
X256533Y-216875D02*
G54D11*
D03*
X256533Y-243875D02*
G54D11*
D03*
X263033Y-216875D02*
G54D11*
D03*
X263033Y-243875D02*
G54D11*
D03*
X269533Y-216875D02*
G54D11*
D03*
X269533Y-243875D02*
G54D11*
D03*
X36852Y-95374D02*
G54D12*
D03*
X36852Y-114374D02*
G54D12*
D03*
X114964Y-141383D02*
G54D12*
D03*
X114964Y-160383D02*
G54D12*
D03*
X247826Y-50158D02*
G54D13*
D03*
X280326Y-50258D02*
G54D13*
D03*
X247826Y-76158D02*
G54D13*
D03*
X280326Y-76258D02*
G54D13*
D03*
X247826Y-102158D02*
G54D13*
D03*
X280326Y-102258D02*
G54D13*
D03*
X247826Y-128158D02*
G54D13*
D03*
X280326Y-128258D02*
G54D13*
D03*
X247826Y-154158D02*
G54D13*
D03*
X280326Y-154258D02*
G54D13*
D03*
G36*
X185326Y-41158D02*
X198326Y-41158D01*
X198326Y-59158D01*
X185326Y-59158D01*
X185326Y-41158D01*
G37*
X224326Y-50258D02*
G54D13*
D03*
G36*
X185326Y-67158D02*
X198326Y-67158D01*
X198326Y-85158D01*
X185326Y-85158D01*
X185326Y-67158D01*
G37*
X224326Y-76258D02*
G54D13*
D03*
X191826Y-102158D02*
G54D13*
D03*
X224326Y-102258D02*
G54D13*
D03*
X191826Y-128158D02*
G54D13*
D03*
X224326Y-128258D02*
G54D13*
D03*
G36*
X185326Y-145158D02*
X198326Y-145158D01*
X198326Y-163158D01*
X185326Y-163158D01*
X185326Y-145158D01*
G37*
X224326Y-154258D02*
G54D13*
D03*
X324800Y-116100D02*
G54D14*
D03*
X343800Y-116101D02*
G54D14*
D03*
X222033Y-179986D02*
G54D12*
D03*
X222033Y-198986D02*
G54D12*
D03*
X287033Y-179986D02*
G54D12*
D03*
X287033Y-198986D02*
G54D12*
D03*
X263632Y-198469D02*
G54D14*
D03*
X244632Y-198469D02*
G54D14*
D03*
X84033Y-213986D02*
G54D12*
D03*
X84033Y-232986D02*
G54D12*
D03*
X287033Y-219386D02*
G54D15*
D03*
X287033Y-239386D02*
G54D15*
D03*
X309033Y-219986D02*
G54D12*
D03*
X309033Y-238986D02*
G54D12*
D03*
X27033Y-232986D02*
G54D12*
D03*
X27032Y-213987D02*
G54D12*
D03*
X58223Y-300940D02*
G54D12*
D03*
X58223Y-281941D02*
G54D12*
D03*
X35223Y-300940D02*
G54D12*
D03*
X35223Y-281941D02*
G54D12*
D03*
X313006Y-277923D02*
G54D12*
D03*
X313006Y-296923D02*
G54D12*
D03*
X171289Y-218445D02*
G54D12*
D03*
X171289Y-199445D02*
G54D12*
D03*
X222033Y-219986D02*
G54D12*
D03*
X222033Y-238986D02*
G54D12*
D03*
X244907Y-319852D02*
G54D14*
D03*
X263906Y-319851D02*
G54D14*
D03*
X203907Y-319852D02*
G54D14*
D03*
X222907Y-319851D02*
G54D14*
D03*
X339964Y-203383D02*
G54D12*
D03*
X339964Y-222383D02*
G54D12*
D03*
X344226Y-421758D02*
G54D16*
D03*
X344126Y-454258D02*
G54D16*
D03*
X311942Y-368482D02*
G54D12*
D03*
X311942Y-349482D02*
G54D12*
D03*
X237126Y-102158D02*
G54D17*
D03*
X191826Y-102158D02*
G54D17*
D03*
M02*
